<svg width="1148" height="192" viewBox="0 0 1148 192" fill="none" xmlns="http://www.w3.org/2000/svg">
<mask id="path-1-inside-1_43_3031" fill="white">
<path fill-rule="evenodd" clip-rule="evenodd" d="M179.844 142.743C161.096 174.987 131.335 192 94.3481 192C43.1014 192 0.846802 146.005 0.846802 96.748C0.846802 40.9974 44.8521 0 94.6027 0C129.6 0 162.353 15.9947 181.101 50.7533H148.603C134.597 34.504 118.348 24.748 96.6081 24.748C57.8547 24.748 27.8547 57.5013 27.8547 94.2493C27.8547 133.003 57.1067 167.252 95.112 167.252C114.369 167.252 131.605 159.756 146.613 142.743H179.844ZM208.585 188.498V49.9884H232.84V62.4817H233.333C239.588 53.2351 250.33 47.2351 268.585 46.2324V72.9857C246.081 73.7337 234.59 87.4844 234.59 110.736V188.498H208.585ZM278.148 119.745C278.148 158.753 312.89 192 351.898 192C396.158 192 427.161 157.257 427.654 120.254C428.164 76.249 392.163 46.249 353.904 46.249C311.394 46.249 278.148 77.4904 278.148 119.745ZM304.137 118.997C304.137 91.9891 326.641 69.9944 352.646 69.9944L352.63 70.0103C379.877 70.0103 401.633 90.7636 401.633 118.758C401.633 146.753 378.381 168.254 352.137 168.254C325.893 168.254 304.137 146.005 304.137 118.997ZM508.652 86.736C507.395 76.7413 501.65 69.9774 490.907 69.9774C480.912 69.9774 474.658 76.7254 474.658 84.7307C474.658 96.2756 486.251 99.8555 499.706 104.01L500.408 104.227C519.904 110.227 537.904 121.972 537.904 147.723C537.904 173.473 518.408 191.967 491.4 191.967C466.398 191.967 442.398 174.969 442.398 142.964H468.403C469.66 159.723 478.159 168.221 491.91 168.221C503.91 168.221 511.915 160.471 511.915 149.219C511.915 139.717 504.658 133.463 488.408 128.211C454.413 117.468 448.652 102.715 448.652 86.9588C448.652 62.4654 469.406 46.2002 492.148 46.2002C514.891 46.2002 533.894 62.1949 534.657 86.7041H508.652V86.736ZM601.676 69.9774C612.419 69.9774 618.164 76.7413 619.422 86.736V86.7041H645.427C644.663 62.1949 625.661 46.2002 602.918 46.2002C580.175 46.2002 559.422 62.4654 559.422 86.9588C559.422 102.715 565.183 117.468 599.178 128.211C615.427 133.463 622.684 139.717 622.684 149.219C622.684 160.471 614.679 168.221 602.679 168.221C588.928 168.221 580.43 159.723 579.172 142.964H553.167C553.167 174.969 577.167 191.967 602.17 191.967C629.178 191.967 648.674 173.473 648.674 147.723C648.674 121.972 630.674 110.227 611.178 104.227L610.475 104.01C597.021 99.8555 585.427 96.2756 585.427 84.7307C585.427 76.7254 591.682 69.9774 601.676 69.9774ZM742.88 188.499V73.7511H724.132V50.0058H742.88V3.50178H768.885V188.515H742.88V188.499ZM916.146 166.997V188.498L916.162 188.514H942.167V50.005H916.162V69.501H915.669C904.926 53.745 887.913 46.249 867.669 46.249C826.91 46.249 795.159 77.2517 795.159 121.496C795.159 161.49 828.151 192 868.655 192C888.406 192 905.897 183.501 915.653 166.997H916.146ZM868.385 69.9944C897.143 69.9944 916.639 92.4824 916.639 119.49C916.639 145.734 894.39 168.238 868.385 168.238C842.379 168.238 821.133 146.737 821.133 119.49C821.133 92.2437 842.379 69.9944 868.385 69.9944ZM975.628 188.501V3.4873H1001.63V188.501H975.628ZM1032.63 3.4873V188.501H1058.63V3.4873H1032.63ZM1059.14 116.755L1114.64 188.501L1114.65 188.516H1147.15L1088.9 115.259L1139.15 50.0072H1108.4L1059.14 116.755Z"/>
</mask>
<path d="M179.844 142.743L181.573 143.748L183.32 140.743H179.844V142.743ZM181.101 50.7533V52.7533H184.453L182.862 49.8038L181.101 50.7533ZM148.603 50.7533L147.088 52.059L147.686 52.7533H148.603V50.7533ZM146.613 142.743V140.743H145.711L145.114 141.42L146.613 142.743ZM208.585 49.9884V47.9884H206.585V49.9884H208.585ZM208.585 188.498H206.585V190.498H208.585V188.498ZM232.84 49.9884H234.84V47.9884H232.84V49.9884ZM232.84 62.4817H230.84V64.4818H232.84V62.4817ZM233.333 62.4817V64.4818H234.395L234.99 63.6023L233.333 62.4817ZM268.585 46.2324H270.585V44.1196L268.475 44.2354L268.585 46.2324ZM268.585 72.9857L268.652 74.9846L270.585 74.9204V72.9857H268.585ZM234.59 188.498V190.498H236.59V188.498H234.59ZM427.654 120.254L429.654 120.281L429.654 120.277L427.654 120.254ZM352.646 69.9944L354.06 71.4086L357.475 67.9944H352.646V69.9944ZM352.63 70.0103L351.216 68.5961L347.802 72.0103H352.63V70.0103ZM508.652 86.736L506.668 86.9856L510.652 86.736H508.652ZM499.706 104.01L500.296 102.099L500.296 102.099L499.706 104.01ZM500.408 104.227L499.818 106.138L499.82 106.138L500.408 104.227ZM442.398 142.964V140.964H440.398V142.964H442.398ZM468.403 142.964L470.397 142.814L470.258 140.964H468.403V142.964ZM488.408 128.211L489.023 126.308L489.011 126.304L488.408 128.211ZM534.657 86.7041V88.7041H536.721L536.656 86.6418L534.657 86.7041ZM508.652 86.7041V84.7041H506.652V86.7041H508.652ZM619.422 86.736L617.437 86.9856L621.422 86.736H619.422ZM619.422 86.7041V84.7041H617.422V86.7041H619.422ZM645.427 86.7041V88.7041H647.49L647.426 86.6418L645.427 86.7041ZM599.178 128.211L599.793 126.308L599.78 126.304L599.178 128.211ZM579.172 142.964L581.167 142.814L581.028 140.964H579.172V142.964ZM553.167 142.964V140.964H551.167V142.964H553.167ZM611.178 104.227L610.588 106.138L610.59 106.138L611.178 104.227ZM610.475 104.01L611.066 102.099L611.065 102.099L610.475 104.01ZM742.88 73.7511H744.88V71.7511H742.88V73.7511ZM724.132 73.7511H722.132V75.7511H724.132V73.7511ZM724.132 50.0058V48.0058H722.132V50.0058H724.132ZM742.88 50.0058V52.0058H744.88V50.0058H742.88ZM742.88 3.50178V1.50178H740.88V3.50178H742.88ZM768.885 3.50178H770.885V1.50178H768.885V3.50178ZM768.885 188.515V190.515H770.885V188.515H768.885ZM742.88 188.515H740.88V190.515H742.88V188.515ZM916.146 188.498H914.146V189.32L914.724 189.904L916.146 188.498ZM916.146 166.997H918.146V164.997H916.146V166.997ZM916.162 188.514L914.739 189.92L915.327 190.514H916.162V188.514ZM942.167 188.514V190.514H944.167V188.514H942.167ZM942.167 50.005H944.167V48.005H942.167V50.005ZM916.162 50.005V48.005H914.162V50.005H916.162ZM916.162 69.501V71.501H918.162V69.501H916.162ZM915.669 69.501L914.016 70.6277L914.612 71.501H915.669V69.501ZM915.653 166.997V164.997H914.512L913.931 165.979L915.653 166.997ZM975.628 3.4873V1.4873H973.628V3.4873H975.628ZM975.628 188.501H973.628V190.501H975.628V188.501ZM1001.63 3.4873H1003.63V1.4873H1001.63V3.4873ZM1001.63 188.501V190.501H1003.63V188.501H1001.63ZM1032.63 188.501H1030.63V190.501H1032.63V188.501ZM1032.63 3.4873V1.4873H1030.63V3.4873H1032.63ZM1058.63 188.501V190.501H1060.63V188.501H1058.63ZM1058.63 3.4873H1060.63V1.4873H1058.63V3.4873ZM1114.64 188.501L1113.06 189.724L1113.14 189.826L1113.23 189.917L1114.64 188.501ZM1059.14 116.755L1057.53 115.568L1056.64 116.784L1057.56 117.979L1059.14 116.755ZM1114.65 188.516L1113.24 189.933L1113.83 190.516H1114.65V188.516ZM1147.15 188.516V190.516H1151.3L1148.72 187.272L1147.15 188.516ZM1088.9 115.259L1087.32 114.039L1086.36 115.279L1087.34 116.504L1088.9 115.259ZM1139.15 50.0072L1140.73 51.2274L1143.21 48.0072H1139.15V50.0072ZM1108.4 50.0072V48.0072H1107.39L1106.79 48.8196L1108.4 50.0072ZM94.3481 194C132.046 194 162.467 176.609 181.573 143.748L178.115 141.737C159.726 173.365 130.623 190 94.3481 190V194ZM-1.1532 96.748C-1.1532 147.034 41.9229 194 94.3481 194V190C44.28 190 2.8468 144.976 2.8468 96.748H-1.1532ZM94.6027 -2C43.7477 -2 -1.1532 39.8926 -1.1532 96.748H2.8468C2.8468 42.1021 45.9564 2 94.6027 2V-2ZM182.862 49.8038C163.725 14.3239 130.247 -2 94.6027 -2V2C128.953 2 160.982 17.6654 179.341 51.7027L182.862 49.8038ZM148.603 52.7533H181.101V48.7533H148.603V52.7533ZM96.6081 26.748C117.62 26.748 133.355 36.1261 147.088 52.059L150.118 49.4476C135.84 32.8818 119.076 22.748 96.6081 22.748V26.748ZM29.8547 94.2493C29.8547 58.5396 59.0244 26.748 96.6081 26.748V22.748C56.6851 22.748 25.8547 56.463 25.8547 94.2493H29.8547ZM95.112 165.252C58.4046 165.252 29.8547 132.102 29.8547 94.2493H25.8547C25.8547 133.903 55.8088 169.252 95.112 169.252V165.252ZM145.114 141.42C130.462 158.029 113.761 165.252 95.112 165.252V169.252C114.977 169.252 132.749 161.483 148.113 144.066L145.114 141.42ZM179.844 140.743H146.613V144.743H179.844V140.743ZM206.585 49.9884V188.498H210.585V49.9884H206.585ZM232.84 47.9884H208.585V51.9884H232.84V47.9884ZM234.84 62.4817V49.9884H230.84V62.4817H234.84ZM233.333 60.4817H232.84V64.4818H233.333V60.4817ZM268.475 44.2354C249.802 45.2611 238.383 51.4471 231.677 61.3612L234.99 63.6023C240.793 55.023 250.859 49.2091 268.695 48.2294L268.475 44.2354ZM270.585 72.9857V46.2324H266.585V72.9857H270.585ZM236.59 110.736C236.59 99.4177 239.387 90.7025 244.648 84.746C249.883 78.8185 257.804 75.3452 268.652 74.9846L268.519 70.9868C256.862 71.3743 247.786 75.1503 241.65 82.0981C235.539 89.017 232.59 98.8031 232.59 110.736H236.59ZM236.59 188.498V110.736H232.59V188.498H236.59ZM208.585 190.498H234.59V186.498H208.585V190.498ZM351.898 190C313.942 190 280.148 157.596 280.148 119.745H276.148C276.148 159.91 311.839 194 351.898 194V190ZM425.654 120.228C425.175 156.157 395.044 190 351.898 190V194C397.273 194 429.146 158.357 429.654 120.281L425.654 120.228ZM353.904 48.249C391.176 48.249 426.149 77.4613 425.654 120.231L429.654 120.277C430.178 75.0368 393.151 44.249 353.904 44.249V48.249ZM280.148 119.745C280.148 78.6695 312.423 48.249 353.904 48.249V44.249C310.366 44.249 276.148 76.3113 276.148 119.745H280.148ZM352.646 67.9944C325.537 67.9944 302.137 90.8841 302.137 118.997H306.137C306.137 93.0941 327.745 71.9944 352.646 71.9944V67.9944ZM354.045 71.4245L354.06 71.4086L351.232 68.5801L351.216 68.5961L354.045 71.4245ZM403.633 118.758C403.633 89.6254 380.948 68.0103 352.63 68.0103V72.0103C378.806 72.0103 399.633 91.9018 399.633 118.758H403.633ZM352.137 170.254C379.439 170.254 403.633 147.903 403.633 118.758H399.633C399.633 145.603 377.323 166.254 352.137 166.254V170.254ZM302.137 118.997C302.137 147.063 324.742 170.254 352.137 170.254V166.254C327.044 166.254 306.137 144.947 306.137 118.997H302.137ZM490.907 71.9774C495.831 71.9774 499.416 73.5129 501.921 76.0219C504.458 78.5623 506.077 82.2906 506.668 86.9856L510.637 86.4864C509.97 81.1868 508.088 76.5357 504.752 73.1954C501.385 69.8239 496.725 67.9774 490.907 67.9774V71.9774ZM476.658 84.7307C476.658 77.9149 481.93 71.9774 490.907 71.9774V67.9774C479.894 67.9774 472.658 75.5359 472.658 84.7307H476.658ZM500.296 102.099C493.486 99.9961 487.507 98.1352 483.195 95.4448C479.027 92.8446 476.658 89.6307 476.658 84.7307H472.658C472.658 91.3755 476.085 95.7241 481.078 98.8386C485.926 101.863 492.471 103.869 499.116 105.921L500.296 102.099ZM500.998 102.316L500.296 102.099L499.116 105.921L499.818 106.138L500.998 102.316ZM539.904 147.723C539.904 134.32 535.196 124.435 527.878 117.151C520.618 109.924 510.899 105.363 500.996 102.315L499.82 106.138C509.413 109.091 518.442 113.402 525.056 119.986C531.613 126.512 535.904 135.375 535.904 147.723H539.904ZM491.4 193.967C519.416 193.967 539.904 174.672 539.904 147.723H535.904C535.904 172.275 517.4 189.967 491.4 189.967V193.967ZM440.398 142.964C440.398 159.506 446.618 172.304 456.182 180.951C465.714 189.569 478.46 193.967 491.4 193.967V189.967C479.338 189.967 467.582 185.865 458.864 177.984C450.177 170.13 444.398 158.428 444.398 142.964H440.398ZM468.403 140.964H442.398V144.964H468.403V140.964ZM491.91 166.221C485.466 166.221 480.472 164.245 476.923 160.501C473.34 156.722 471.004 150.906 470.397 142.814L466.408 143.114C467.059 151.78 469.601 158.593 474.02 163.253C478.472 167.949 484.602 170.221 491.91 170.221V166.221ZM509.915 149.219C509.915 154.353 508.099 158.562 505.031 161.493C501.955 164.431 497.474 166.221 491.91 166.221V170.221C498.345 170.221 503.867 168.137 507.794 164.386C511.728 160.628 513.915 155.337 513.915 149.219H509.915ZM487.793 130.114C495.825 132.71 501.391 135.483 504.929 138.618C508.375 141.673 509.915 145.079 509.915 149.219H513.915C513.915 143.857 511.826 139.386 507.581 135.624C503.428 131.944 497.24 128.964 489.023 126.308L487.793 130.114ZM446.652 86.9588C446.652 95.0985 448.147 103.241 454.23 110.726C460.267 118.154 470.623 124.688 487.805 130.118L489.011 126.304C472.198 120.991 462.677 114.777 457.334 108.203C452.038 101.687 450.652 94.5751 450.652 86.9588H446.652ZM492.148 44.2002C468.532 44.2002 446.652 61.1432 446.652 86.9588H450.652C450.652 63.7876 470.279 48.2002 492.148 48.2002V44.2002ZM536.656 86.6418C535.856 60.9544 515.87 44.2002 492.148 44.2002V48.2002C513.912 48.2002 531.931 63.4353 532.658 86.7665L536.656 86.6418ZM508.652 88.7041H534.657V84.7041H508.652V88.7041ZM510.652 86.736V86.7041H506.652V86.736H510.652ZM621.406 86.4864C620.739 81.1868 618.857 76.5357 615.521 73.1954C612.154 69.8239 607.495 67.9774 601.676 67.9774V71.9774C606.601 71.9774 610.185 73.5129 612.691 76.0219C615.228 78.5623 616.847 82.2905 617.437 86.9856L621.406 86.4864ZM617.422 86.7041V86.736H621.422V86.7041H617.422ZM645.427 84.7041H619.422V88.7041H645.427V84.7041ZM602.918 48.2002C624.681 48.2002 642.701 63.4353 643.428 86.7665L647.426 86.6418C646.625 60.9544 626.64 44.2002 602.918 44.2002V48.2002ZM561.422 86.9588C561.422 63.7876 581.049 48.2002 602.918 48.2002V44.2002C579.302 44.2002 557.422 61.1432 557.422 86.9588H561.422ZM599.78 126.304C582.968 120.991 573.447 114.777 568.104 108.203C562.808 101.687 561.422 94.5751 561.422 86.9588H557.422C557.422 95.0985 558.916 103.241 565 110.726C571.036 118.154 581.393 124.688 598.575 130.118L599.78 126.304ZM624.684 149.219C624.684 143.857 622.595 139.386 618.351 135.624C614.198 131.944 608.01 128.964 599.793 126.308L598.563 130.114C606.595 132.71 612.161 135.483 615.698 138.618C619.145 141.673 620.684 145.079 620.684 149.219H624.684ZM602.679 170.221C609.114 170.221 614.636 168.137 618.563 164.386C622.497 160.628 624.684 155.337 624.684 149.219H620.684C620.684 154.353 618.869 158.562 615.8 161.493C612.725 164.431 608.244 166.221 602.679 166.221V170.221ZM577.178 143.114C577.828 151.78 580.371 158.593 584.789 163.253C589.241 167.949 595.372 170.221 602.679 170.221V166.221C596.236 166.221 591.242 164.245 587.692 160.501C584.109 156.722 581.774 150.906 581.167 142.814L577.178 143.114ZM553.167 144.964H579.172V140.964H553.167V144.964ZM602.17 189.967C590.108 189.967 578.352 185.865 569.634 177.984C560.947 170.13 555.167 158.428 555.167 142.964H551.167C551.167 159.506 557.387 172.304 566.951 180.951C576.484 189.569 589.229 193.967 602.17 193.967V189.967ZM646.674 147.723C646.674 172.275 628.17 189.967 602.17 189.967V193.967C630.186 193.967 650.674 174.672 650.674 147.723H646.674ZM610.59 106.138C620.183 109.091 629.212 113.402 635.826 119.986C642.382 126.512 646.674 135.375 646.674 147.723H650.674C650.674 134.32 645.965 124.435 638.648 117.151C631.388 109.924 621.669 105.363 611.766 102.315L610.59 106.138ZM609.885 105.921L610.588 106.138L611.768 102.316L611.066 102.099L609.885 105.921ZM583.427 84.7307C583.427 91.3755 586.855 95.7241 591.847 98.8386C596.695 101.863 603.241 103.869 609.885 105.921L611.065 102.099C604.256 99.9961 598.277 98.1352 593.964 95.4448C589.796 92.8446 587.427 89.6307 587.427 84.7307H583.427ZM601.676 67.9774C590.664 67.9774 583.427 75.5359 583.427 84.7307H587.427C587.427 77.9149 592.699 71.9774 601.676 71.9774V67.9774ZM740.88 73.7511V188.499H744.88V73.7511H740.88ZM724.132 75.7511H742.88V71.7511H724.132V75.7511ZM722.132 50.0058V73.7511H726.132V50.0058H722.132ZM742.88 48.0058H724.132V52.0058H742.88V48.0058ZM740.88 3.50178V50.0058H744.88V3.50178H740.88ZM768.885 1.50178H742.88V5.50177H768.885V1.50178ZM770.885 188.515V3.50178H766.885V188.515H770.885ZM742.88 190.515H768.885V186.515H742.88V190.515ZM740.88 188.499V188.515H744.88V188.499H740.88ZM918.146 188.498V166.997H914.146V188.498H918.146ZM917.584 187.108L917.568 187.092L914.724 189.904L914.739 189.92L917.584 187.108ZM942.167 186.514H916.162V190.514H942.167V186.514ZM940.167 50.005V188.514H944.167V50.005H940.167ZM916.162 52.005H942.167V48.005H916.162V52.005ZM918.162 69.501V50.005H914.162V69.501H918.162ZM915.669 71.501H916.162V67.501H915.669V71.501ZM867.669 48.249C887.391 48.249 903.718 55.5241 914.016 70.6277L917.321 68.3743C906.133 51.9659 888.434 44.249 867.669 44.249V48.249ZM797.159 121.496C797.159 78.3204 828.05 48.249 867.669 48.249V44.249C825.77 44.249 793.159 76.1829 793.159 121.496H797.159ZM868.655 190C829.155 190 797.159 160.288 797.159 121.496H793.159C793.159 162.693 827.147 194 868.655 194V190ZM913.931 165.979C904.594 181.774 887.824 190 868.655 190V194C888.988 194 907.199 185.228 917.374 168.015L913.931 165.979ZM916.146 164.997H915.653V168.997H916.146V164.997ZM918.639 119.49C918.639 91.4938 898.36 67.9944 868.385 67.9944V71.9944C895.926 71.9944 914.639 93.4711 914.639 119.49H918.639ZM868.385 170.238C895.515 170.238 918.639 146.819 918.639 119.49H914.639C914.639 144.65 893.266 166.238 868.385 166.238V170.238ZM819.133 119.49C819.133 147.794 841.228 170.238 868.385 170.238V166.238C843.531 166.238 823.133 145.68 823.133 119.49H819.133ZM868.385 67.9944C841.189 67.9944 819.133 91.2274 819.133 119.49H823.133C823.133 93.26 843.57 71.9944 868.385 71.9944V67.9944ZM973.628 3.4873V188.501H977.628V3.4873H973.628ZM1001.63 1.4873H975.628V5.4873H1001.63V1.4873ZM1003.63 188.501V3.4873H999.633V188.501H1003.63ZM975.628 190.501H1001.63V186.501H975.628V190.501ZM1034.63 188.501V3.4873H1030.63V188.501H1034.63ZM1058.63 186.501H1032.63V190.501H1058.63V186.501ZM1056.63 3.4873V188.501H1060.63V3.4873H1056.63ZM1032.63 5.4873H1058.63V1.4873H1032.63V5.4873ZM1116.22 187.277L1060.72 115.532L1057.56 117.979L1113.06 189.724L1116.22 187.277ZM1116.07 187.1L1116.05 187.084L1113.23 189.917L1113.24 189.933L1116.07 187.1ZM1147.15 186.516H1114.65V190.516H1147.15V186.516ZM1087.34 116.504L1145.59 189.761L1148.72 187.272L1090.47 114.014L1087.34 116.504ZM1137.56 48.787L1087.32 114.039L1090.49 116.479L1140.73 51.2274L1137.56 48.787ZM1108.4 52.0072H1139.15V48.0072H1108.4V52.0072ZM1060.75 117.943L1110.01 51.1947L1106.79 48.8196L1057.53 115.568L1060.75 117.943Z" fill="url(#paint0_linear_43_3031)" mask="url(#path-1-inside-1_43_3031)"/>
<defs>
<linearGradient id="paint0_linear_43_3031" x1="162.252" y1="141.913" x2="391.384" y2="-391.438" gradientUnits="userSpaceOnUse">
<stop stop-color="#FF6174"/>
<stop offset="0.334782" stop-color="#BE6CFF"/>
<stop offset="0.765" stop-color="#7CC8FF"/>
<stop offset="1" stop-color="#4BF4B7"/>
</linearGradient>
</defs>
</svg>
