<svg width="1161" height="636" viewBox="0 0 1161 636" fill="none" xmlns="http://www.w3.org/2000/svg">
<g clip-path="url(#clip0_43_2821)">
<path d="M66.2622 574.554L20.5977 510.011H20.223L20.223 574.554H0.0078125L0.0078125 435.305L44.3652 435.305C77.6797 435.305 92.4664 452.993 92.4664 481.597C92.4664 508.13 72.2512 522.054 52.7882 522.617L91.5284 574.554L66.2622 574.554ZM35.0069 507.187C58.5885 507.187 72.2512 497.968 72.2512 479.903C72.2512 463.909 59.5265 453.936 41.5593 453.936H20.2229L20.2229 507.187L35.0069 507.187Z" fill="white"/>
<path d="M194.027 573.047C191.407 574.554 178.494 577.188 169.696 577.188C127.773 577.188 98.7656 544.259 98.7656 504.366C98.7656 463.719 129.272 432.671 168.575 432.671C179.99 432.671 187.292 434.365 194.027 436.812L194.027 457.697C186.728 452.993 179.429 451.299 169.136 451.299C143.87 451.299 124.593 467.673 119.727 494.957L192.343 494.957L192.343 513.585L119.727 513.585C124.218 540.682 144.619 558.56 170.071 558.56C178.119 558.56 185.979 556.489 194.027 551.785L194.027 573.047Z" fill="white"/>
<path d="M296.094 573.047C293.288 574.554 280.374 577.188 271.016 577.188C228.157 577.188 200.832 543.129 200.832 504.929C200.832 464.849 230.777 432.671 272.137 432.671C282.059 432.671 289.169 434.365 296.094 436.812L296.094 457.697C289.358 453.183 282.059 451.299 271.763 451.299C241.446 451.299 221.044 475.011 221.044 504.553C221.044 535.037 242.567 558.56 272.137 558.56C280.186 558.56 288.048 556.489 296.094 551.785V573.047Z" fill="white"/>
<path d="M374.559 574.554L328.895 510.011H328.52L328.52 574.554H308.305L308.305 435.305L352.662 435.305C385.977 435.305 400.761 452.993 400.761 481.597C400.761 508.13 380.548 522.054 361.085 522.618L399.828 574.554L374.559 574.554ZM343.304 507.187C366.885 507.187 380.548 497.968 380.548 479.903C380.548 463.909 367.823 453.936 349.856 453.936H328.52L328.52 507.187L343.304 507.187Z" fill="white"/>
<path d="M504.198 574.554V559.313H503.632C496.899 570.413 484.543 577.188 464.894 577.188C437.008 577.188 413.984 559.5 413.984 519.043L413.984 435.305L434.2 435.305L434.2 516.409C434.2 542.94 445.051 558.56 467.514 558.56C489.411 558.56 504.009 540.872 504.009 516.032L504.009 435.305H524.224L524.224 574.554L504.198 574.554Z" fill="white"/>
<path d="M545.66 574.554L545.66 435.305L565.875 435.305L565.875 574.554L545.66 574.554Z" fill="white"/>
<path d="M599.947 574.554L599.947 453.936L573.371 453.936V435.305L646.738 435.305V453.936L620.162 453.936L620.162 574.554L599.947 574.554Z" fill="white"/>
<path d="M827.98 574.554L827.98 467.107H827.608L751.249 574.554H736.273L736.273 467.107H735.901L659.537 574.554H633.898L735.524 435.305L756.488 435.305L756.488 531.84H756.86L827.23 435.305H848.195L848.195 574.554L827.98 574.554Z" fill="white"/>
<path d="M957.604 573.047C954.984 574.554 942.068 577.188 933.276 577.188C891.353 577.188 862.34 544.259 862.34 504.366C862.34 463.719 892.846 432.671 932.149 432.671C943.567 432.671 950.866 434.365 957.604 436.812V457.697C950.305 452.993 943.006 451.299 932.716 451.299C907.449 451.299 888.172 467.673 883.304 494.957L955.922 494.957V513.585L883.304 513.585C887.795 540.682 908.193 558.56 933.648 558.56C941.696 558.56 949.556 556.489 957.604 551.785V573.047Z" fill="white"/>
<path d="M1063.83 574.554L1063.83 493.45C1063.83 466.166 1052.41 451.299 1030.51 451.299C1009.55 451.299 994.02 468.423 994.02 494.016L994.02 574.554H973.805L973.805 435.305L993.831 435.305V450.549H994.392C1000.94 439.446 1013.86 432.671 1033.32 432.671C1060.27 432.671 1084.04 449.418 1084.04 490.439L1084.04 574.554L1063.83 574.554Z" fill="white"/>
<path d="M1113.99 574.554L1113.99 453.936L1087.41 453.936V435.305L1160.78 435.305V453.936L1134.21 453.936L1134.21 574.554L1113.99 574.554Z" fill="white"/>
<path d="M170.817 252.407C165.779 255.096 142.595 259.795 125.793 259.795C48.8399 259.795 -0.214844 199.028 -0.214844 130.873C-0.214844 59.3628 53.5485 1.95117 127.806 1.95117C145.614 1.95117 158.385 4.97313 170.817 9.33921L170.817 46.603C158.723 38.5479 145.614 35.1874 127.133 35.1874C72.7021 35.1874 36.0742 77.4943 36.0742 130.201C36.0742 184.591 74.7151 226.559 127.806 226.559C142.256 226.559 156.367 222.865 170.817 214.472L170.817 252.407Z" fill="white"/>
<path d="M359.337 255.096L359.337 181.908L274.661 181.908L224.594 255.096L180.238 255.096L350.936 6.65088L395.626 6.65088L395.626 255.096L359.337 255.096ZM359.337 53.6575H358.664L297.511 148.666L359.337 148.666L359.337 53.6575Z" fill="white"/>
<path d="M552.733 255.096L470.748 139.939H470.075L470.075 255.096L433.781 255.096L433.781 6.65088L513.42 6.65088C573.232 6.65088 599.78 38.2093 599.78 89.2435C599.78 136.584 563.486 161.426 528.542 162.432L598.096 255.096L552.733 255.096ZM496.618 134.901C538.956 134.901 563.486 118.452 563.486 86.2216C563.486 57.685 540.64 39.892 508.382 39.892L470.075 39.892L470.075 134.901L496.618 134.901Z" fill="white"/>
<path d="M782.13 252.407C777.426 255.096 754.237 259.795 738.442 259.795C663.173 259.795 611.094 201.045 611.094 129.868C611.094 57.3465 665.864 1.95117 736.429 1.95117C756.928 1.95117 770.032 4.97313 782.13 9.33921L782.13 46.603C769.026 38.2094 755.921 35.1874 737.435 35.1874C692.073 35.1874 657.463 64.401 648.728 113.08L779.101 113.08V146.317L648.728 146.317C656.79 194.662 693.418 226.559 739.119 226.559C753.569 226.559 767.68 222.865 782.13 214.472L782.13 252.407Z" fill="white"/>
<path d="M965.368 252.407C960.665 255.096 937.485 259.795 921.69 259.795C846.421 259.795 794.332 201.045 794.332 129.868C794.332 57.3465 849.102 1.95117 919.667 1.95117C940.166 1.95117 953.27 4.97313 965.368 9.33921L965.368 46.603C952.264 38.2094 939.159 35.1874 920.684 35.1874C875.321 35.1874 840.701 64.401 831.971 113.08L962.349 113.08V146.317L831.971 146.317C840.034 194.662 876.656 226.559 922.358 226.559C936.808 226.559 950.919 222.865 965.368 214.472L965.368 252.407Z" fill="white"/>
<path d="M1113.73 255.096L1031.75 139.939H1031.07L1031.07 255.096L994.785 255.096L994.785 6.65088L1074.42 6.65088C1134.23 6.65088 1160.78 38.2093 1160.78 89.2435C1160.78 136.584 1124.48 161.426 1089.54 162.432L1159.09 255.096L1113.73 255.096ZM1057.62 134.901C1099.96 134.901 1124.48 118.452 1124.48 86.2216C1124.48 57.685 1101.63 39.892 1069.38 39.892L1031.07 39.892L1031.07 134.901L1057.62 134.901Z" fill="white"/>
</g>
<defs>
<clipPath id="clip0_43_2821">
<rect width="1161" height="636" fill="white"/>
</clipPath>
</defs>
</svg>
