<svg width="193" height="480" viewBox="0 0 193 480" fill="none" xmlns="http://www.w3.org/2000/svg">
<path d="M9.00565 45.1062L33.4605 27.8022L33.4605 27.6603L9.00565 27.6603L9.00565 20L61.7659 20L61.7659 36.8086C61.7659 49.4327 55.0641 55.0359 44.2263 55.0359C34.1731 55.0359 28.8975 47.3756 28.6839 40.0004L9.00563 54.6804L9.00565 45.1062ZM34.5305 33.2624C34.5305 42.1983 38.0236 47.3756 44.8681 47.3756C50.9282 47.3756 54.7067 42.5538 54.7067 35.7454L54.7067 27.6602L34.5305 27.6602L34.5305 33.2624Z" fill="white"/>
<path d="M9.57462 93.5216C9.00371 92.5288 8.00568 87.6355 8.00568 84.3017C8.00568 68.4154 20.4821 57.4235 35.5974 57.4235C50.9981 57.4235 62.762 68.9833 62.762 83.8769C62.762 88.2023 62.1202 90.9692 61.193 93.5216L53.2796 93.5216C55.0621 90.7558 55.7039 87.9899 55.7039 84.0893C55.7039 74.5151 49.5 67.2103 39.1624 65.3667L39.1624 92.8833L32.1043 92.8833L32.1043 65.3667C21.8374 67.0683 15.0637 74.799 15.0637 84.4437C15.0637 87.4935 15.8482 90.4718 17.6307 93.5216L9.57462 93.5216Z" fill="white"/>
<path d="M9.57462 132.198C9.00371 131.135 8.00568 126.242 8.00568 122.696C8.00568 106.455 20.9103 96.1003 35.3838 96.1003C50.5699 96.1003 62.762 107.448 62.762 123.12C62.762 126.88 62.1202 129.574 61.193 132.198L53.2796 132.198C54.9902 129.646 55.7039 126.88 55.7039 122.979C55.7039 111.49 46.7195 103.76 35.5265 103.76C23.9762 103.76 15.0638 111.915 15.0638 123.12C15.0638 126.17 15.8482 129.15 17.6307 132.198L9.57462 132.198Z" fill="white"/>
<path d="M9.00565 161.934L33.4605 144.63L33.4605 144.488L9.00565 144.488L9.00565 136.828L61.7659 136.828L61.7659 153.636C61.7659 166.26 55.0641 171.862 44.2263 171.862C34.1731 171.862 28.8975 164.203 28.6839 156.828L9.00563 171.509L9.00565 161.934ZM34.5305 150.09C34.5305 159.026 38.0236 164.203 44.8681 164.203C50.9282 164.203 54.7067 159.381 54.7067 152.573L54.7067 144.488L34.5305 144.488L34.5305 150.09Z" fill="white"/>
<path d="M9.00566 211.057L14.7803 211.057L14.7803 210.843C10.5746 208.291 8.00762 203.609 8.00762 196.164C8.00762 185.597 14.7094 176.872 30.0383 176.872L61.7659 176.872L61.7659 184.532L31.0363 184.532C20.9841 184.532 15.0657 188.644 15.0657 197.156C15.0657 205.454 21.7675 210.986 31.179 210.986L61.7659 210.986L61.7659 218.646L9.00563 218.646L9.00566 211.057Z" fill="white"/>
<path d="M9.00565 226.771L61.7659 226.771L61.7659 234.431L9.00563 234.431L9.00565 226.771Z" fill="white"/>
<path d="M9.00565 247.343L54.7067 247.343L54.7067 237.272L61.7659 237.272L61.7659 265.074L54.7067 265.074L54.7067 255.003L9.00565 255.003L9.00565 247.343Z" fill="white"/>
<path d="M9.00491 333.751L49.7164 333.751L49.7164 333.61L9.00488 304.674L9.00488 299L49.7164 299L49.7164 298.859L9.00489 269.921L9.00489 260.206L61.7659 298.716L61.7659 306.66L25.1893 306.66L25.1893 306.801L61.7659 333.467L61.7659 341.411L9.00488 341.411L9.00491 333.751Z" fill="white"/>
<path d="M9.57462 382.874C9.00371 381.881 8.00568 376.986 8.00568 373.655C8.00568 357.769 20.4821 346.775 35.5974 346.775C50.9981 346.775 62.762 358.334 62.762 373.228C62.762 377.554 62.1202 380.32 61.193 382.874L53.2796 382.874C55.0621 380.108 55.7039 377.342 55.7039 373.442C55.7039 363.868 49.5 356.563 39.1624 354.719L39.1624 382.236L32.1043 382.236L32.1043 354.719C21.8374 356.42 15.0637 364.15 15.0637 373.796C15.0637 376.846 15.8482 379.824 17.6307 382.874L9.57462 382.874Z" fill="white"/>
<path d="M9.00371 423.124L39.7333 423.124C50.0709 423.124 55.7039 418.798 55.7039 410.5C55.7039 402.556 49.2156 396.671 39.5187 396.671L9.00371 396.671L9.00371 389.011L61.7639 389.011L61.7639 396.599L55.9883 396.599L55.9883 396.812C60.195 399.294 62.762 404.188 62.762 411.562C62.762 421.776 56.4164 430.782 40.874 430.782L9.00368 430.782L9.00371 423.124Z" fill="white"/>
<path d="M9.00565 442.131L54.7067 442.131L54.7067 432.06L61.7659 432.06L61.7659 459.862L54.7067 459.862L54.7067 449.791L9.00565 449.791L9.00565 442.131Z" fill="white"/>
<path d="M89.8036 84.8658C88.7841 82.9553 87.0019 74.1623 87.0019 67.79C87.0019 38.6046 110.046 20 135.892 20C163.01 20 184.781 40.3904 184.781 68.5535C184.781 75.3075 183.635 80.1509 181.98 84.8658L167.848 84.8658C170.903 80.2794 172.177 75.3074 172.177 68.2983C172.177 47.6547 156.134 33.7631 136.146 33.7631C115.521 33.7631 99.6057 48.4181 99.6057 68.5535C99.6057 74.0338 101.007 79.3856 104.19 84.8658L89.8036 84.8658Z" fill="white"/>
<path d="M88.7851 156.364L116.539 156.364L116.539 124.249L88.7851 105.261L88.7851 88.4385L183 153.178L183 170.127L88.785 170.127L88.7851 156.364ZM165.174 156.364L165.174 156.109L129.145 132.916L129.145 156.364L165.174 156.364Z" fill="white"/>
<path d="M88.7851 229.71L132.455 198.616L132.455 198.361L88.7851 198.361L88.7851 184.596L183 184.596L183 214.8C183 237.484 171.032 247.553 151.679 247.553C133.727 247.553 124.306 233.788 123.925 220.535L88.785 246.914L88.7851 229.71ZM134.365 208.427C134.365 224.485 140.603 233.788 152.825 233.788C163.647 233.788 170.394 225.123 170.394 212.889L170.394 198.361L134.365 198.361L134.365 208.427Z" fill="white"/>
<path d="M89.8036 316.712C88.7841 314.928 87.0019 306.133 87.0019 300.142C87.0019 271.596 109.281 251.844 136.273 251.844C163.774 251.844 184.781 272.616 184.781 299.379C184.781 307.153 183.635 312.123 181.98 316.712L167.848 316.712C171.031 311.742 172.177 306.772 172.177 299.761C172.177 282.556 161.099 269.43 142.639 266.117L142.639 315.563L130.035 315.563L130.035 266.117C111.702 269.175 99.6056 283.067 99.6056 300.399C99.6056 305.88 101.006 311.232 104.19 316.712L89.8036 316.712Z" fill="white"/>
<path d="M89.8036 386.212C88.7841 384.428 87.0019 375.637 87.0019 369.646C87.0019 341.1 109.281 321.344 136.273 321.344C163.774 321.344 184.781 342.116 184.781 368.879C184.781 376.654 183.635 381.624 181.98 386.212L167.848 386.212C171.031 381.242 172.177 376.272 172.177 369.265C172.177 352.06 161.099 338.93 142.639 335.62L142.639 385.067L130.035 385.067L130.035 335.62C111.702 338.677 99.6056 352.567 99.6056 369.9C99.6056 375.38 101.006 380.732 104.19 386.212L89.8036 386.212Z" fill="white"/>
<path d="M88.7851 442.48L132.455 411.386L132.455 411.129L88.7851 411.129L88.7851 397.368L183 397.368L183 427.57C183 450.255 171.032 460.323 151.679 460.323C133.727 460.323 124.306 446.558 123.925 433.304L88.785 459.685L88.7851 442.48ZM134.365 421.198C134.365 437.257 140.603 446.558 152.825 446.558C163.647 446.558 170.394 437.892 170.394 425.658L170.394 411.129L134.365 411.129L134.365 421.198Z" fill="white"/>
</svg>
