<svg width="360" height="152" viewBox="0 0 360 152" fill="none" xmlns="http://www.w3.org/2000/svg">
<path fill-rule="evenodd" clip-rule="evenodd" d="M73.9691 120.585C71.7083 121.878 60.5658 124.141 52.9761 124.141C16.8035 124.141 -8.22656 95.8534 -8.22656 61.5854C-8.22656 27.3174 18.0954 0 52.0072 0C61.8577 0 68.1556 1.45477 73.9691 3.55611V21.4983C67.6712 17.4573 61.3733 16.0025 52.4916 16.0025C30.6912 16.0025 14.0583 30.0653 9.8597 53.5034H72.5157V69.5059H9.8597C13.7353 92.7822 31.3371 108.138 53.299 108.138C60.2429 108.138 67.0252 106.36 73.9691 102.319V120.585ZM154.23 121.878V73.0626C154.23 54.1505 146.802 45.2602 131.945 45.2602C117.089 45.2602 108.369 56.0902 108.369 72.9009V121.878H91.5742V32.3289H107.238V41.8658H107.561C114.182 33.2988 123.387 29.9043 133.722 29.9043C155.199 29.9043 171.025 43.4822 171.025 68.2133V121.878H154.23ZM194.439 47.684V121.877H211.234V2.2627H194.439V32.328H182.328V47.684H194.439ZM232.871 121.878V32.3289H248.535V40.411H248.858C252.895 34.4303 259.839 30.5509 271.627 29.9043V47.1999C257.094 47.6849 249.665 56.5751 249.665 71.6078V121.878H232.871ZM284.543 124.787L265.488 151.781H285.351L369 32.3281H349.137L302.145 100.864H301.338V32.3281H284.543V124.787Z" fill="white"/>
</svg>
