<svg width="954" height="320" viewBox="0 0 954 320" fill="none" xmlns="http://www.w3.org/2000/svg">
<path fill-rule="evenodd" clip-rule="evenodd" d="M207.998 273.432C202.286 276.702 174.137 282.423 154.963 282.423C63.5792 282.423 0.345047 210.905 0.345047 124.265C0.345047 37.6251 66.8428 -31.4414 152.515 -31.4414C177.401 -31.4414 193.311 -27.7633 207.998 -22.4505V22.9127C192.087 12.6958 176.177 9.0177 153.739 9.0177C98.6639 9.0177 56.6438 44.5727 46.0368 103.831H204.326V144.29H46.0368C55.8279 203.14 100.296 241.964 155.779 241.964C173.321 241.964 190.455 237.469 207.998 227.252V273.432ZM410.758 276.702V153.281C410.758 105.466 391.991 82.9884 354.459 82.9884C316.926 82.9884 294.896 110.37 294.896 152.872V276.702H252.468V50.2942H292.041V74.4062H292.857C309.583 52.7463 332.837 44.1641 358.946 44.1641C413.205 44.1641 453.186 78.493 453.186 141.021V276.702H410.758ZM512.34 89.1177V276.701H554.768V-25.7207H512.34V50.2934H481.742V89.1177H512.34ZM609.432 276.702V50.2942H649.004V70.7281H649.82C660.019 55.607 677.561 45.7988 707.343 44.1641V87.8926C670.626 89.1186 651.86 111.596 651.86 149.603V276.702H609.432ZM739.98 284.059L691.84 352.308H742.019L953.344 50.2949H903.164L784.447 223.574H782.408V50.2949H739.98V284.059Z" fill="white"/>
</svg>
