<svg width="291" height="123" viewBox="0 0 291 123" fill="none" xmlns="http://www.w3.org/2000/svg">
<path d="M251.12 50.2099V0.862793H289.605V8.84753H260.472V21.0045H286.44V28.9892H260.472V42.2251H290.037V50.2099H251.12Z" fill="white"/>
<path d="M210.095 50.2099V0.862793H219.447V42.0813H244.192V50.2099H210.095Z" fill="white"/>
<path d="M161.905 50.2099V0.862793H186.65C190.295 0.862793 193.292 1.5102 195.642 2.80503C198.04 4.09985 199.838 5.92219 201.037 8.27205C202.236 10.6219 202.835 13.4274 202.835 16.6884C202.835 19.9015 202.212 22.7069 200.965 25.1047C199.718 27.5025 197.848 29.3728 195.354 30.7156C192.908 32.0104 189.839 32.6578 186.146 32.6578H171.256V50.2099H161.905ZM171.256 24.6731H185.859C188.257 24.6731 190.103 23.9778 191.398 22.587C192.74 21.1483 193.412 19.1821 193.412 16.6884C193.412 15.0099 193.124 13.5952 192.549 12.4443C191.973 11.2933 191.134 10.4061 190.031 9.78267C188.928 9.15924 187.537 8.84753 185.859 8.84753H171.256V24.6731Z" fill="white"/>
<path d="M101.21 50.2099V0.862793H115.956L123.725 28.3418C124.013 29.3009 124.301 30.3799 124.588 31.5788C124.876 32.7777 125.14 33.9287 125.38 35.0317C125.667 36.1347 125.883 37.0938 126.027 37.9091H126.602C126.698 37.1897 126.842 36.3025 127.034 35.2475C127.226 34.1925 127.442 33.0655 127.682 31.8666C127.969 30.6197 128.281 29.4208 128.617 28.2698L136.386 0.862793H150.988V50.2099H141.637V25.2486C141.637 23.0426 141.661 20.8366 141.709 18.6306C141.757 16.4246 141.805 14.5304 141.853 12.9478C141.949 11.3652 141.996 10.4301 141.996 10.1423H141.421C141.325 10.574 141.085 11.5091 140.702 12.9478C140.318 14.3865 139.91 15.9451 139.479 17.6235C139.047 19.302 138.664 20.7407 138.328 21.9396L130.199 50.2099H121.567L113.438 22.0115C113.151 21.0045 112.815 19.8055 112.431 18.4148C112.096 16.9761 111.736 15.5135 111.352 14.0268C111.017 12.5402 110.705 11.2453 110.417 10.1423H109.842C109.89 11.4372 109.938 12.9957 109.986 14.8181C110.034 16.5925 110.082 18.4148 110.129 20.2851C110.177 22.1075 110.201 23.7619 110.201 25.2486V50.2099H101.21Z" fill="white"/>
<path d="M45.1019 50.2099L64.3084 0.862793H76.1057L95.3841 50.2099H85.2414L81.285 39.7074H58.6975L54.7411 50.2099H45.1019ZM61.6468 31.7946H78.2637L73.3002 18.4148C73.1084 17.9353 72.8686 17.3358 72.5809 16.6165C72.3411 15.8492 72.0773 15.0339 71.7896 14.1707C71.5019 13.2595 71.2141 12.3483 70.9264 11.4372C70.6387 10.526 70.3749 9.71074 70.1351 8.99139H69.7754C69.4877 9.95052 69.128 11.0535 68.6964 12.3004C68.3128 13.5472 67.9291 14.7222 67.5455 15.8252C67.1618 16.9282 66.8501 17.7914 66.6103 18.4148L61.6468 31.7946Z" fill="white"/>
<path d="M20.6452 51.0735C17.9117 51.0735 15.2981 50.7858 12.8043 50.2103C10.3106 49.5869 8.10462 48.6517 6.18637 47.4048C4.26811 46.11 2.75749 44.5275 1.65449 42.6572C0.551498 40.7389 0 38.485 0 35.8953C0 35.6076 0 35.3198 0 35.0321C0.0479564 34.7444 0.0719346 34.5286 0.0719346 34.3847H9.49535C9.49535 34.4806 9.47138 34.6724 9.42342 34.9602C9.42342 35.2 9.42342 35.4158 9.42342 35.6076C9.42342 37.1901 9.87901 38.5569 10.7902 39.7079C11.7013 40.8108 13.0201 41.6741 14.7466 42.2975C16.473 42.873 18.5111 43.1607 20.861 43.1607C22.4436 43.1607 23.8343 43.0648 25.0332 42.873C26.2801 42.6811 27.3351 42.4174 28.1983 42.0817C29.1095 41.698 29.8528 41.2664 30.4283 40.7869C31.0038 40.2593 31.4114 39.6839 31.6512 39.0604C31.9389 38.437 32.0828 37.7656 32.0828 37.0463C32.0828 35.6555 31.6512 34.5046 30.788 33.5934C29.9248 32.6822 28.7498 31.9149 27.2632 31.2915C25.8245 30.6681 24.17 30.1166 22.2997 29.637C20.4774 29.1095 18.5831 28.582 16.6169 28.0545C14.6986 27.5269 12.8043 26.9035 10.934 26.1842C9.1117 25.4169 7.45721 24.5057 5.97056 23.4506C4.53187 22.3956 3.38092 21.0768 2.51771 19.4943C1.65449 17.8637 1.22289 15.9215 1.22289 13.6676C1.22289 11.3657 1.70245 9.35148 2.66158 7.62506C3.66866 5.89863 5.05939 4.48392 6.83378 3.38092C8.65612 2.22997 10.7662 1.39073 13.164 0.863211C15.5618 0.287737 18.1755 0 21.0049 0C23.6425 0 26.1122 0.287737 28.4141 0.863211C30.764 1.39073 32.8261 2.25395 34.6005 3.45285C36.3749 4.60381 37.7656 6.09045 38.7727 7.9128C39.7798 9.68718 40.2833 11.8212 40.2833 14.315V15.1782H31.0038V14.4588C31.0038 13.0681 30.5722 11.8932 29.709 10.934C28.8937 9.97492 27.7188 9.23159 26.1842 8.70407C24.6975 8.17656 22.9471 7.9128 20.9329 7.9128C18.7749 7.9128 16.9286 8.1286 15.394 8.5602C13.8594 8.94385 12.6845 9.54331 11.8692 10.3586C11.0539 11.1259 10.6463 12.085 10.6463 13.236C10.6463 14.4349 11.0779 15.4419 11.9411 16.2572C12.8043 17.0725 13.9553 17.7678 15.394 18.3433C16.8806 18.9188 18.5351 19.4463 20.3575 19.9259C22.2278 20.4054 24.122 20.9329 26.0403 21.5084C28.0065 22.0359 29.9008 22.6594 31.7231 23.3787C33.5934 24.0981 35.2479 25.0092 36.6866 26.1122C38.1732 27.1673 39.3482 28.4861 40.2114 30.0686C41.0746 31.6512 41.5062 33.5455 41.5062 35.7515C41.5062 39.4441 40.595 42.4174 38.7727 44.6713C36.9983 46.9253 34.5286 48.5558 31.3635 49.5629C28.2463 50.57 24.6735 51.0735 20.6452 51.0735Z" fill="white"/>
<path d="M277.571 122.137V102.036H269.902V98.1143H289.827V102.036H282.123V122.137H277.571Z" fill="white"/>
<path d="M242.538 122.137V98.1143H246.88L257.141 112.297C257.257 112.437 257.397 112.635 257.561 112.892C257.724 113.125 257.876 113.359 258.016 113.592C258.156 113.826 258.25 114.012 258.296 114.152H258.471C258.471 113.826 258.471 113.51 258.471 113.207C258.471 112.904 258.471 112.6 258.471 112.297V98.1143H262.849V122.137H258.541L248.246 107.849C248.059 107.569 247.838 107.231 247.581 106.834C247.347 106.414 247.184 106.122 247.091 105.958H246.915C246.915 106.262 246.915 106.577 246.915 106.904C246.915 107.207 246.915 107.522 246.915 107.849V122.137H242.538Z" fill="white"/>
<path d="M215.509 122.137V98.1143H234.243V102.001H220.061V107.919H232.702V111.806H220.061V118.25H234.453V122.137H215.509Z" fill="white"/>
<path d="M182.461 122.137V98.1143H189.639L193.421 111.491C193.561 111.958 193.701 112.483 193.841 113.067C193.982 113.651 194.11 114.211 194.227 114.748C194.367 115.285 194.472 115.752 194.542 116.149H194.822C194.869 115.798 194.939 115.366 195.032 114.853C195.125 114.339 195.23 113.791 195.347 113.207C195.487 112.6 195.639 112.016 195.802 111.456L199.584 98.1143H206.693V122.137H202.141V109.985C202.141 108.911 202.152 107.838 202.176 106.764C202.199 105.69 202.222 104.768 202.246 103.997C202.292 103.227 202.316 102.772 202.316 102.632H202.036C201.989 102.842 201.872 103.297 201.685 103.997C201.499 104.698 201.3 105.456 201.09 106.273C200.88 107.091 200.693 107.791 200.53 108.375L196.573 122.137H192.371L188.414 108.41C188.274 107.919 188.11 107.336 187.923 106.659C187.76 105.958 187.585 105.246 187.398 104.523C187.235 103.799 187.083 103.169 186.943 102.632H186.663C186.686 103.262 186.709 104.021 186.733 104.908C186.756 105.772 186.779 106.659 186.803 107.569C186.826 108.456 186.838 109.262 186.838 109.985V122.137H182.461Z" fill="white"/>
<path d="M163.161 122.137V102.036H155.492V98.1143H175.417V102.036H167.713V122.137H163.161Z" fill="white"/>
<path d="M143.892 122.137V98.1143H148.445V122.137H143.892Z" fill="white"/>
<path d="M125.031 122.557C122.93 122.557 121.121 122.218 119.603 121.541C118.086 120.864 116.919 119.837 116.101 118.46C115.308 117.059 114.911 115.32 114.911 113.242V98.1143H119.463V113.102C119.463 114.946 119.942 116.347 120.899 117.304C121.879 118.238 123.257 118.705 125.031 118.705C126.805 118.705 128.183 118.238 129.163 117.304C130.167 116.347 130.669 114.946 130.669 113.102V98.1143H135.221V113.242C135.221 115.32 134.813 117.059 133.996 118.46C133.179 119.837 132.011 120.864 130.494 121.541C128.976 122.218 127.155 122.557 125.031 122.557Z" fill="white"/>
<path d="M86.7903 122.137V98.1143H99.4318C101.206 98.1143 102.677 98.4177 103.844 99.0247C105.011 99.6317 105.887 100.495 106.47 101.616C107.054 102.737 107.346 104.056 107.346 105.573C107.346 107.137 106.996 108.526 106.295 109.74C105.595 110.931 104.568 111.83 103.214 112.437L108.186 122.137H103.214L98.8015 113.207H91.3427V122.137H86.7903ZM91.3427 109.39H99.0816C100.249 109.39 101.148 109.052 101.778 108.375C102.408 107.698 102.724 106.764 102.724 105.573C102.724 104.803 102.583 104.161 102.303 103.647C102.023 103.11 101.615 102.702 101.078 102.421C100.541 102.141 99.8754 102.001 99.0816 102.001H91.3427V109.39Z" fill="white"/>
<path d="M68.6259 122.556C66.1747 122.556 64.0736 122.124 62.3227 121.26C60.5951 120.397 59.2644 119.054 58.3306 117.233C57.4202 115.389 56.9649 113.02 56.9649 110.125C56.9649 105.899 57.9921 102.771 60.0465 100.74C62.1009 98.7089 64.9607 97.6934 68.6259 97.6934C70.6103 97.6934 72.3962 98.0319 73.9837 98.7089C75.5945 99.3859 76.8668 100.413 77.8006 101.79C78.7578 103.144 79.2364 104.872 79.2364 106.973H74.579C74.579 105.806 74.3222 104.825 73.8086 104.032C73.3183 103.215 72.6296 102.596 71.7425 102.176C70.8554 101.755 69.8399 101.545 68.696 101.545C67.1085 101.545 65.7895 101.86 64.7389 102.491C63.6884 103.098 62.9063 104.008 62.3927 105.222C61.9025 106.436 61.6573 107.942 61.6573 109.74V110.51C61.6573 112.331 61.9025 113.848 62.3927 115.062C62.9063 116.276 63.6767 117.187 64.7039 117.794C65.7544 118.401 67.0851 118.704 68.696 118.704C69.9099 118.704 70.9721 118.506 71.8826 118.109C72.7931 117.689 73.4934 117.082 73.9837 116.288C74.4973 115.471 74.7541 114.479 74.7541 113.311H79.2364C79.2364 115.412 78.7694 117.152 77.8356 118.529C76.9018 119.883 75.6295 120.899 74.0187 121.576C72.4312 122.229 70.6336 122.556 68.6259 122.556Z" fill="white"/>
<path d="M31.0213 122.137V98.1143H49.7559V102.001H35.5737V107.919H48.2151V111.806H35.5737V118.25H49.966V122.137H31.0213Z" fill="white"/>
<path d="M2.4188 122.137V98.1143H15.0603C16.8345 98.1143 18.3053 98.4177 19.4725 99.0247C20.6398 99.6317 21.5153 100.495 22.0989 101.616C22.6825 102.737 22.9743 104.056 22.9743 105.573C22.9743 107.137 22.6242 108.526 21.9238 109.74C21.2234 110.931 20.1962 111.83 18.8422 112.437L23.8148 122.137H18.8422L14.43 113.207H6.97114V122.137H2.4188ZM6.97114 109.39H14.7101C15.8774 109.39 16.7762 109.052 17.4065 108.375C18.0368 107.698 18.352 106.764 18.352 105.573C18.352 104.803 18.2119 104.161 17.9318 103.647C17.6516 103.11 17.2431 102.702 16.7061 102.421C16.1692 102.141 15.5038 102.001 14.7101 102.001H6.97114V109.39Z" fill="white"/>
<path d="M142.149 87.118V63.0957H154.79C156.564 63.0957 158.035 63.3992 159.203 64.0062C160.37 64.6131 161.245 65.4769 161.829 66.5975C162.413 67.7181 162.704 69.0371 162.704 70.5545C162.704 72.1187 162.354 73.5077 161.654 74.7217C160.953 75.9123 159.926 76.8111 158.572 77.418L163.545 87.118H158.572L154.16 78.1884H146.701V87.118H142.149ZM146.701 74.3715H154.44C155.607 74.3715 156.506 74.033 157.136 73.356C157.767 72.679 158.082 71.7451 158.082 70.5545C158.082 69.7841 157.942 69.1421 157.662 68.6285C157.382 68.0916 156.973 67.6831 156.436 67.4029C155.899 67.1228 155.234 66.9827 154.44 66.9827H146.701V74.3715Z" fill="white"/>
<path d="M115.119 87.118V63.0957H133.854V66.9827H119.671V72.9007H132.313V76.7877H119.671V83.231H134.064V87.118H115.119Z" fill="white"/>
<path d="M88.09 87.118V63.0957H106.825V66.9827H92.6423V72.9007H105.284V76.7877H92.6423V83.231H107.035V87.118H88.09Z" fill="white"/>
<path d="M59.4875 87.118V63.0957H72.129C73.9032 63.0957 75.374 63.3992 76.5412 64.0062C77.7085 64.6131 78.5839 65.4769 79.1676 66.5975C79.7512 67.7181 80.043 69.0371 80.043 70.5545C80.043 72.1187 79.6928 73.5077 78.9925 74.7217C78.2921 75.9123 77.2649 76.8111 75.9109 77.418L80.8834 87.118H75.9109L71.4986 78.1884H64.0398V87.118H59.4875ZM64.0398 74.3715H71.7788C72.946 74.3715 73.8448 74.033 74.4752 73.356C75.1055 72.679 75.4206 71.7451 75.4206 70.5545C75.4206 69.7841 75.2806 69.1421 75.0004 68.6285C74.7203 68.0916 74.3117 67.6831 73.7748 67.4029C73.2379 67.1228 72.5725 66.9827 71.7788 66.9827H64.0398V74.3715Z" fill="white"/>
<path d="M28.6726 87.118L38.0224 63.0957H43.7653L53.1501 87.118H48.2126L46.2866 82.0054H35.291L33.365 87.118H28.6726ZM36.7267 78.1534H44.8158L42.3996 71.6401C42.3062 71.4066 42.1895 71.1148 42.0494 70.7646C41.9327 70.3911 41.8043 69.9942 41.6642 69.574C41.5242 69.1305 41.3841 68.6869 41.244 68.2433C41.1039 67.7998 40.9755 67.4029 40.8588 67.0527H40.6837C40.5437 67.5196 40.3686 68.0566 40.1585 68.6636C39.9717 69.2705 39.7849 69.8425 39.5982 70.3794C39.4114 70.9164 39.2597 71.3366 39.1429 71.6401L36.7267 78.1534Z" fill="white"/>
<path d="M12.9941 87.5375C10.5429 87.5375 8.44179 87.1057 6.69089 86.2419C4.96334 85.3781 3.63266 84.0358 2.69885 82.2148C1.78838 80.3705 1.33315 78.001 1.33315 75.1062C1.33315 70.8807 2.36034 67.7524 4.41473 65.7214C6.46911 63.6903 9.32891 62.6748 12.9941 62.6748C14.9785 62.6748 16.7644 63.0133 18.3519 63.6903C19.9627 64.3673 21.235 65.3945 22.1688 66.7719C23.126 68.1259 23.6046 69.8535 23.6046 71.9546H18.9472C18.9472 70.7873 18.6904 69.8068 18.1768 69.0131C17.6865 68.196 16.9978 67.5773 16.1107 67.1571C15.2236 66.7369 14.2081 66.5268 13.0642 66.5268C11.4767 66.5268 10.1577 66.8419 9.10713 67.4723C8.05659 68.0792 7.27452 68.9897 6.76093 70.2037C6.27068 71.4176 6.02555 72.9234 6.02555 74.721V75.4914C6.02555 77.3123 6.27068 78.8298 6.76093 80.0437C7.27452 81.2577 8.04492 82.1681 9.07211 82.7751C10.1227 83.3821 11.4533 83.6856 13.0642 83.6856C14.2781 83.6856 15.3403 83.4871 16.2508 83.0903C17.1613 82.6701 17.8616 82.0631 18.3519 81.2693C18.8655 80.4523 19.1223 79.4601 19.1223 78.2928H23.6046C23.6046 80.3939 23.1377 82.1331 22.2038 83.5105C21.27 84.8645 19.9977 85.88 18.3869 86.557C16.7994 87.2107 15.0018 87.5375 12.9941 87.5375Z" fill="white"/>
</svg>
