<svg width="210" height="20" viewBox="0 0 210 20" fill="none" xmlns="http://www.w3.org/2000/svg">
<path d="M92.4685 19.2099V0.488647H106.64V3.51789H95.912V8.12998H105.474V11.1592H95.912V16.1807H106.799V19.2099H92.4685Z" fill="#3F3F3F"/>
<path d="M77.3625 19.2099V0.488647H80.806V16.1261H89.9179V19.2099H77.3625Z" fill="#3F3F3F"/>
<path d="M59.6169 19.2099V0.488647H68.7288C70.0709 0.488647 71.1746 0.734262 72.0398 1.22549C72.9228 1.71672 73.585 2.40808 74.0265 3.29957C74.4679 4.19105 74.6887 5.25538 74.6887 6.49255C74.6887 7.71152 74.4591 8.77585 74 9.68553C73.5408 10.5952 72.8521 11.3048 71.9339 11.8142C71.0333 12.3054 69.9031 12.551 68.5434 12.551H63.0604V19.2099H59.6169ZM63.0604 9.52179H68.4375C69.3204 9.52179 70.0003 9.25798 70.4771 8.73036C70.9715 8.18456 71.2187 7.43862 71.2187 6.49255C71.2187 5.85577 71.1128 5.31906 70.9009 4.88241C70.689 4.44576 70.3799 4.10918 69.9738 3.87266C69.5676 3.63615 69.0555 3.51789 68.4375 3.51789H63.0604V9.52179Z" fill="#3F3F3F"/>
<path d="M37.2676 19.2099V0.488647H42.6976L45.5583 10.9136C45.6643 11.2775 45.7702 11.6868 45.8762 12.1417C45.9822 12.5965 46.0793 13.0332 46.1676 13.4516C46.2735 13.8701 46.353 14.2339 46.406 14.5432H46.6179C46.6532 14.2703 46.7062 13.9337 46.7768 13.5335C46.8474 13.1332 46.9269 12.7057 47.0152 12.2508C47.1211 11.7778 47.2359 11.323 47.3595 10.8863L50.2202 0.488647H55.5973V19.2099H52.1539V9.74011C52.1539 8.9032 52.1627 8.0663 52.1804 7.22939C52.198 6.39248 52.2157 5.67383 52.2333 5.07344C52.2687 4.47305 52.2863 4.11828 52.2863 4.00912H52.0744C52.0391 4.17286 51.9508 4.52763 51.8095 5.07344C51.6683 5.61925 51.5182 6.21055 51.3592 6.84732C51.2003 7.4841 51.059 8.02991 50.9354 8.48475L47.9423 19.2099H44.7637L41.7705 8.51204C41.6646 8.12997 41.541 7.67513 41.3997 7.14752C41.2761 6.60171 41.1437 6.0468 41.0024 5.4828C40.8788 4.9188 40.764 4.42757 40.6581 4.00912H40.4461C40.4638 4.50034 40.4815 5.09164 40.4991 5.783C40.5168 6.45616 40.5344 7.14752 40.5521 7.85707C40.5698 8.54843 40.5786 9.17611 40.5786 9.74011V19.2099H37.2676Z" fill="#3F3F3F"/>
<path d="M16.6083 19.2099L23.6806 0.488647H28.0246L35.1234 19.2099H31.3886L29.9318 15.2255H21.6145L20.1577 19.2099H16.6083ZM22.7005 12.2235H28.8193L26.9916 7.14752C26.921 6.96558 26.8327 6.73816 26.7267 6.46526C26.6384 6.17416 26.5413 5.86487 26.4353 5.53738C26.3294 5.1917 26.2234 4.84602 26.1175 4.50034C26.0115 4.15467 25.9144 3.84537 25.8261 3.57247H25.6937C25.5877 3.93634 25.4553 4.3548 25.2964 4.82783C25.1551 5.30086 25.0138 5.74661 24.8726 6.16506C24.7313 6.58352 24.6165 6.911 24.5282 7.14752L22.7005 12.2235Z" fill="#3F3F3F"/>
<path d="M7.60208 19.5374C6.59553 19.5374 5.63313 19.4282 4.71488 19.2099C3.79662 18.9734 2.98432 18.6186 2.27797 18.1455C1.57163 17.6543 1.01538 17.0539 0.609226 16.3444C0.203075 15.6166 0 14.7615 0 13.7791C0 13.6699 0 13.5607 0 13.4516C0.0176587 13.3424 0.0264881 13.2605 0.0264881 13.206H3.49642C3.49642 13.2424 3.4876 13.3151 3.46994 13.4243C3.46994 13.5153 3.46994 13.5971 3.46994 13.6699C3.46994 14.2703 3.63769 14.7888 3.97321 15.2255C4.30873 15.6439 4.79434 15.9714 5.43005 16.2079C6.06577 16.4262 6.81626 16.5354 7.68154 16.5354C8.26428 16.5354 8.77638 16.499 9.21785 16.4262C9.67697 16.3535 10.0655 16.2534 10.3833 16.126C10.7188 15.9805 10.9925 15.8168 11.2045 15.6348C11.4164 15.4347 11.5665 15.2164 11.6548 14.9798C11.7607 14.7433 11.8137 14.4886 11.8137 14.2157C11.8137 13.6881 11.6548 13.2515 11.3369 12.9058C11.019 12.5601 10.5864 12.269 10.039 12.0325C9.50922 11.796 8.89999 11.5867 8.2113 11.4048C7.54027 11.2047 6.84275 11.0045 6.11874 10.8044C5.4124 10.6043 4.71488 10.3678 4.02619 10.0949C3.35515 9.80376 2.74593 9.45808 2.19851 9.05782C1.66875 8.65756 1.24494 8.15723 0.927082 7.55685C0.609226 6.93826 0.450297 6.20142 0.450297 5.34632C0.450297 4.47302 0.626884 3.70889 0.980058 3.05392C1.35089 2.39895 1.86299 1.86224 2.51637 1.44378C3.1874 1.00714 3.96438 0.688748 4.84732 0.488617C5.73025 0.270294 6.69265 0.161133 7.73452 0.161133C8.70574 0.161133 9.61517 0.270294 10.4628 0.488617C11.3281 0.688748 12.0874 1.01623 12.7408 1.47107C13.3941 1.90772 13.9062 2.47172 14.2771 3.16308C14.6479 3.83625 14.8333 4.64586 14.8333 5.59193V5.91942H11.4164V5.64651C11.4164 5.1189 11.2574 4.67315 10.9396 4.30928C10.6394 3.94541 10.2067 3.66341 9.64166 3.46328C9.09424 3.26315 8.44969 3.16308 7.70803 3.16308C6.91339 3.16308 6.23353 3.24495 5.66845 3.40869C5.10337 3.55424 4.67073 3.78167 4.37053 4.09096C4.07033 4.38206 3.92023 4.74593 3.92023 5.18258C3.92023 5.63742 4.07916 6.01948 4.39702 6.32877C4.71488 6.63807 5.13869 6.90187 5.66845 7.1202C6.21587 7.33852 6.82509 7.53865 7.49612 7.72059C8.18481 7.90252 8.88233 8.10265 9.58868 8.32098C10.3127 8.52111 11.0102 8.75762 11.6812 9.03053C12.3699 9.30343 12.9792 9.64911 13.5089 10.0676C14.0563 10.4678 14.489 10.9682 14.8068 11.5685C15.1247 12.1689 15.2836 12.8876 15.2836 13.7245C15.2836 15.1254 14.9481 16.2534 14.2771 17.1085C13.6237 17.9636 12.7143 18.5822 11.5488 18.9643C10.401 19.3463 9.08541 19.5374 7.60208 19.5374Z" fill="#3F3F3F"/>
<path d="M206.026 19.8596V13.1462H203.54V11.8362H210V13.1462H207.502V19.8596H206.026Z" fill="#3F3F3F"/>
<path d="M194.669 19.8596V11.8362H196.077L199.403 16.5731C199.441 16.6199 199.486 16.6861 199.539 16.7719C199.592 16.8499 199.642 16.9279 199.687 17.0058C199.732 17.0838 199.763 17.1462 199.778 17.193H199.835C199.835 17.0838 199.835 16.9785 199.835 16.8772C199.835 16.7758 199.835 16.6744 199.835 16.5731V11.8362H201.254V19.8596H199.857L196.52 15.0877C196.459 14.9941 196.387 14.8811 196.304 14.7485C196.228 14.6082 196.175 14.5107 196.145 14.4561H196.088C196.088 14.5575 196.088 14.6628 196.088 14.7719C196.088 14.8733 196.088 14.9785 196.088 15.0877V19.8596H194.669Z" fill="#3F3F3F"/>
<path d="M185.907 19.8596V11.8362H191.981V13.1345H187.383V15.1111H191.481V16.4093H187.383V18.5614H192.049V19.8596H185.907Z" fill="#3F3F3F"/>
<path d="M175.194 19.8596V11.8362H177.521L178.747 16.3041C178.792 16.46 178.838 16.6355 178.883 16.8304C178.929 17.0253 178.97 17.2125 179.008 17.3918C179.054 17.5711 179.088 17.7271 179.11 17.8596H179.201C179.216 17.7427 179.239 17.5984 179.269 17.4269C179.299 17.2553 179.334 17.0721 179.371 16.8772C179.417 16.6745 179.466 16.4795 179.519 16.2924L180.745 11.8362H183.049V19.8596H181.574V15.8012C181.574 15.4425 181.577 15.0838 181.585 14.7251C181.593 14.3665 181.6 14.0585 181.608 13.8012C181.623 13.5438 181.63 13.3918 181.63 13.345H181.54C181.524 13.4152 181.487 13.5672 181.426 13.8012C181.366 14.0351 181.301 14.2885 181.233 14.5614C181.165 14.8343 181.104 15.0682 181.051 15.2631L179.769 19.8596H178.406L177.124 15.2748C177.078 15.1111 177.025 14.9162 176.965 14.69C176.912 14.4561 176.855 14.2183 176.794 13.9766C176.742 13.7349 176.692 13.5244 176.647 13.345H176.556C176.564 13.5555 176.571 13.809 176.579 14.1052C176.586 14.3937 176.594 14.69 176.601 14.9941C176.609 15.2904 176.613 15.5594 176.613 15.8012V19.8596H175.194Z" fill="#3F3F3F"/>
<path d="M168.938 19.8596V13.1462H166.452V11.8362H172.911V13.1462H170.414V19.8596H168.938Z" fill="#3F3F3F"/>
<path d="M162.691 19.8596V11.8362H164.167V19.8596H162.691Z" fill="#3F3F3F"/>
<path d="M156.577 20C155.896 20 155.309 19.8869 154.817 19.6608C154.325 19.4347 153.947 19.0916 153.682 18.6316C153.425 18.1637 153.296 17.5828 153.296 16.8889V11.8362H154.772V16.8421C154.772 17.4581 154.927 17.9259 155.237 18.2456C155.555 18.5575 156.001 18.7134 156.577 18.7134C157.152 18.7134 157.598 18.5575 157.916 18.2456C158.242 17.9259 158.404 17.4581 158.404 16.8421V11.8362H159.88V16.8889C159.88 17.5828 159.748 18.1637 159.483 18.6316C159.218 19.0916 158.839 19.4347 158.348 19.6608C157.856 19.8869 157.265 20 156.577 20Z" fill="#3F3F3F"/>
<path d="M144.179 19.8596V11.8362H148.278C148.853 11.8362 149.329 11.9376 149.708 12.1403C150.086 12.3431 150.37 12.6316 150.559 13.0058C150.748 13.3801 150.843 13.8206 150.843 14.3275C150.843 14.8499 150.73 15.3138 150.503 15.7193C150.275 16.1169 149.942 16.4171 149.504 16.6199L151.116 19.8596H149.504L148.073 16.8772H145.655V19.8596H144.179ZM145.655 15.6023H148.164C148.542 15.6023 148.834 15.4893 149.038 15.2631C149.242 15.037 149.345 14.7251 149.345 14.3275C149.345 14.0702 149.299 13.8557 149.208 13.6842C149.118 13.5049 148.985 13.3684 148.811 13.2748C148.637 13.1813 148.421 13.1345 148.164 13.1345H145.655V15.6023Z" fill="#3F3F3F"/>
<path d="M138.291 20C137.497 20 136.816 19.8558 136.248 19.5673C135.688 19.2788 135.257 18.8304 134.954 18.2222C134.659 17.6063 134.511 16.8148 134.511 15.848C134.511 14.4367 134.844 13.3918 135.51 12.7135C136.176 12.0351 137.103 11.6959 138.291 11.6959C138.935 11.6959 139.514 11.809 140.028 12.0351C140.551 12.2612 140.963 12.6043 141.266 13.0643C141.576 13.5166 141.731 14.0936 141.731 14.7953H140.221C140.221 14.4055 140.138 14.078 139.972 13.8129C139.813 13.54 139.589 13.3334 139.302 13.193C139.014 13.0526 138.685 12.9825 138.314 12.9825C137.8 12.9825 137.372 13.0877 137.031 13.2983C136.691 13.501 136.437 13.8051 136.271 14.2105C136.112 14.616 136.032 15.1189 136.032 15.7193V15.9766C136.032 16.5848 136.112 17.0916 136.271 17.4971C136.437 17.9026 136.687 18.2066 137.02 18.4094C137.361 18.6121 137.792 18.7135 138.314 18.7135C138.708 18.7135 139.052 18.6472 139.347 18.5146C139.642 18.3743 139.869 18.1716 140.028 17.9064C140.195 17.6335 140.278 17.3022 140.278 16.9123H141.731C141.731 17.6141 141.58 18.1949 141.277 18.655C140.974 19.1072 140.562 19.4464 140.04 19.6725C139.525 19.8909 138.942 20 138.291 20Z" fill="#3F3F3F"/>
<path d="M126.101 19.8596V11.8362H132.174V13.1345H127.577V15.1111H131.675V16.4093H127.577V18.5614H132.243V19.8596H126.101Z" fill="#3F3F3F"/>
<path d="M116.828 19.8596V11.8362H120.926C121.501 11.8362 121.978 11.9376 122.357 12.1403C122.735 12.3431 123.019 12.6316 123.208 13.0058C123.397 13.3801 123.492 13.8206 123.492 14.3275C123.492 14.8499 123.378 15.3138 123.151 15.7193C122.924 16.1169 122.591 16.4171 122.152 16.6199L123.764 19.8596H122.152L120.722 16.8772H118.304V19.8596H116.828ZM118.304 15.6023H120.813C121.191 15.6023 121.482 15.4893 121.687 15.2631C121.891 15.037 121.993 14.7251 121.993 14.3275C121.993 14.0702 121.948 13.8557 121.857 13.6842C121.766 13.5049 121.634 13.3684 121.46 13.2748C121.286 13.1813 121.07 13.1345 120.813 13.1345H118.304V15.6023Z" fill="#3F3F3F"/>
<path d="M162.125 8.16377V0.140381H166.223C166.798 0.140381 167.275 0.241745 167.653 0.444475C168.032 0.647204 168.316 0.935703 168.505 1.30997C168.694 1.68424 168.789 2.12479 168.789 2.63161C168.789 3.15403 168.675 3.61796 168.448 4.02342C168.221 4.42108 167.888 4.72128 167.449 4.92401L169.061 8.16377H167.449L166.019 5.18132H163.601V8.16377H162.125ZM163.601 3.90646H166.11C166.488 3.90646 166.779 3.7934 166.984 3.56728C167.188 3.34116 167.29 3.02927 167.29 2.63161C167.29 2.3743 167.245 2.15987 167.154 1.98833C167.063 1.809 166.931 1.67255 166.757 1.57898C166.583 1.48541 166.367 1.43863 166.11 1.43863H163.601V3.90646Z" fill="#3F3F3F"/>
<path d="M153.363 8.16377V0.140381H159.436V1.43863H154.839V3.41524H158.937V4.71348H154.839V6.86553H159.504V8.16377H153.363Z" fill="#3F3F3F"/>
<path d="M144.601 8.16377V0.140381H150.674V1.43863H146.077V3.41524H150.175V4.71348H146.077V6.86553H150.743V8.16377H144.601Z" fill="#3F3F3F"/>
<path d="M135.329 8.16377V0.140381H139.427C140.003 0.140381 140.479 0.241745 140.858 0.444475C141.236 0.647204 141.52 0.935703 141.709 1.30997C141.898 1.68424 141.993 2.12479 141.993 2.63161C141.993 3.15403 141.879 3.61796 141.652 4.02342C141.425 4.42108 141.092 4.72128 140.653 4.92401L142.265 8.16377H140.653L139.223 5.18132H136.805V8.16377H135.329ZM136.805 3.90646H139.314C139.692 3.90646 139.984 3.7934 140.188 3.56728C140.392 3.34116 140.495 3.02927 140.495 2.63161C140.495 2.3743 140.449 2.15987 140.358 1.98833C140.267 1.809 140.135 1.67255 139.961 1.57898C139.787 1.48541 139.571 1.43863 139.314 1.43863H136.805V3.90646Z" fill="#3F3F3F"/>
<path d="M125.339 8.16377L128.37 0.140381H130.232L133.274 8.16377H131.673L131.049 6.45617H127.484L126.86 8.16377H125.339ZM127.95 5.16962H130.572L129.789 2.99418C129.759 2.91621 129.721 2.81874 129.675 2.70178C129.638 2.57703 129.596 2.44447 129.55 2.30412C129.505 2.15598 129.46 2.00783 129.414 1.85968C129.369 1.71153 129.327 1.57898 129.289 1.46202H129.233C129.187 1.61796 129.13 1.7973 129.062 2.00003C129.002 2.20276 128.941 2.39379 128.881 2.57313C128.82 2.75247 128.771 2.89282 128.733 2.99418L127.95 5.16962Z" fill="#3F3F3F"/>
<path d="M120.257 8.30409C119.462 8.30409 118.781 8.15984 118.213 7.87135C117.653 7.58285 117.222 7.1345 116.919 6.52632C116.624 5.91033 116.477 5.11891 116.477 4.15205C116.477 2.74074 116.81 1.69591 117.476 1.01754C118.142 0.339181 119.069 0 120.257 0C120.9 0 121.479 0.11306 121.994 0.339181C122.516 0.565302 122.928 0.908382 123.231 1.36842C123.541 1.82066 123.696 2.39766 123.696 3.09941H122.187C122.187 2.70955 122.103 2.38207 121.937 2.11696C121.778 1.84405 121.555 1.63743 121.267 1.49708C120.98 1.35672 120.65 1.28655 120.279 1.28655C119.765 1.28655 119.337 1.39181 118.997 1.60234C118.656 1.80507 118.403 2.10916 118.236 2.51462C118.077 2.92008 117.998 3.423 117.998 4.02339V4.2807C117.998 4.88889 118.077 5.39571 118.236 5.80117C118.403 6.20663 118.652 6.51072 118.985 6.71345C119.326 6.91618 119.757 7.01754 120.279 7.01754C120.673 7.01754 121.017 6.95127 121.313 6.81871C121.608 6.67836 121.835 6.47563 121.994 6.21053C122.16 5.93762 122.243 5.60624 122.243 5.21637H123.696C123.696 5.91813 123.545 6.49903 123.242 6.95906C122.94 7.41131 122.527 7.75049 122.005 7.97661C121.49 8.19493 120.908 8.30409 120.257 8.30409Z" fill="#3F3F3F"/>
</svg>
