<svg width="340" height="31" viewBox="0 0 340 31" fill="none" xmlns="http://www.w3.org/2000/svg">
<path d="M149.711 29.564V0.752014H172.655V5.41401H155.286V12.512H170.768V17.174H155.286V24.902H172.912V29.564H149.711Z" fill="#3F3F3F"/>
<path d="M125.253 29.564V0.752014H130.828V24.818H145.581V29.564H125.253Z" fill="#3F3F3F"/>
<path d="M96.523 29.564V0.752014H111.276C113.448 0.752014 115.235 1.13001 116.636 1.88601C118.066 2.64202 119.138 3.70602 119.853 5.07802C120.567 6.45002 120.925 8.08802 120.925 9.99202C120.925 11.868 120.553 13.506 119.81 14.906C119.066 16.306 117.951 17.398 116.465 18.182C115.007 18.938 113.177 19.316 110.975 19.316H102.098V29.564H96.523ZM102.098 14.654H110.804C112.233 14.654 113.334 14.248 114.106 13.436C114.907 12.596 115.307 11.448 115.307 9.99202C115.307 9.01202 115.135 8.18602 114.792 7.51402C114.449 6.84202 113.949 6.32401 113.291 5.96001C112.634 5.59601 111.804 5.41401 110.804 5.41401H102.098V14.654Z" fill="#3F3F3F"/>
<path d="M60.3385 29.564V0.752014H69.13L73.7616 16.796C73.9331 17.356 74.1047 17.986 74.2762 18.686C74.4477 19.386 74.605 20.058 74.7479 20.702C74.9195 21.346 75.0481 21.906 75.1339 22.382H75.477C75.5342 21.962 75.6199 21.444 75.7343 20.828C75.8487 20.212 75.9773 19.554 76.1203 18.854C76.2918 18.126 76.4776 17.426 76.6778 16.754L81.3094 0.752014H90.0151V29.564H84.44V14.99C84.44 13.702 84.4543 12.414 84.4829 11.126C84.5115 9.83802 84.5401 8.73202 84.5687 7.80802C84.6259 6.88402 84.6545 6.33802 84.6545 6.17001H84.3114C84.2542 6.42201 84.1112 6.96801 83.8825 7.80802C83.6538 8.64802 83.4108 9.55802 83.1535 10.538C82.8962 11.518 82.6674 12.358 82.4673 13.058L77.6213 29.564H72.475L67.629 13.1C67.4574 12.512 67.2573 11.812 67.0286 11C66.8284 10.16 66.614 9.30602 66.3853 8.43801C66.1852 7.57001 65.9993 6.81401 65.8278 6.17001H65.4847C65.5133 6.92601 65.5419 7.83602 65.5705 8.90002C65.5991 9.93602 65.6277 11 65.6562 12.092C65.6848 13.156 65.6991 14.122 65.6991 14.99V29.564H60.3385Z" fill="#3F3F3F"/>
<path d="M26.8891 29.564L38.3395 0.752014H45.3727L56.866 29.564H50.8191L48.4604 23.432H34.9944L32.6357 29.564H26.8891ZM36.7527 18.812H46.6593L43.7002 11C43.5858 10.72 43.4429 10.37 43.2713 9.95002C43.1284 9.50202 42.9711 9.02602 42.7996 8.52201C42.628 7.99002 42.4565 7.45801 42.285 6.92601C42.1134 6.39402 41.9562 5.91802 41.8132 5.49802H41.5988C41.4272 6.05801 41.2128 6.70201 40.9555 7.43002C40.7268 8.15801 40.4981 8.84402 40.2693 9.48802C40.0406 10.132 39.8548 10.636 39.7118 11L36.7527 18.812Z" fill="#3F3F3F"/>
<path d="M12.3081 30.068C10.6785 30.068 9.12029 29.9 7.63359 29.564C6.1469 29.2 4.83175 28.654 3.68814 27.926C2.54453 27.17 1.64394 26.246 0.986363 25.154C0.328788 24.034 0 22.718 0 21.206C0 21.038 0 20.87 0 20.702C0.0285903 20.534 0.0428854 20.408 0.0428854 20.324H5.66087C5.66087 20.38 5.64657 20.492 5.61798 20.66C5.61798 20.8 5.61798 20.926 5.61798 21.038C5.61798 21.962 5.88959 22.76 6.43281 23.432C6.97602 24.076 7.76225 24.58 8.7915 24.944C9.82075 25.28 11.0358 25.448 12.4368 25.448C13.3802 25.448 14.2094 25.392 14.9241 25.28C15.6675 25.168 16.2964 25.014 16.8111 24.818C17.3543 24.594 17.7974 24.342 18.1405 24.062C18.4836 23.754 18.7266 23.418 18.8696 23.054C19.0411 22.69 19.1269 22.298 19.1269 21.878C19.1269 21.066 18.8696 20.394 18.3549 19.862C17.8403 19.33 17.1399 18.882 16.2536 18.518C15.3958 18.154 14.4095 17.832 13.2945 17.552C12.208 17.244 11.0787 16.936 9.90652 16.628C8.76291 16.32 7.63359 15.956 6.51858 15.536C5.43215 15.088 4.44578 14.556 3.55949 13.94C2.70178 13.324 2.01561 12.554 1.50099 11.63C0.986363 10.678 0.729051 9.54399 0.729051 8.22799C0.729051 6.88398 1.01495 5.70798 1.58676 4.69999C2.18715 3.69199 3.01627 2.86599 4.07411 2.22199C5.16054 1.54999 6.41851 1.05999 7.84802 0.751984C9.27753 0.415985 10.8357 0.247986 12.5225 0.247986C14.095 0.247986 15.5674 0.415985 16.9397 0.751984C18.3406 1.05999 19.57 1.56399 20.6279 2.26398C21.6857 2.93598 22.5148 3.80398 23.1152 4.86799C23.7156 5.90399 24.0158 7.14999 24.0158 8.60599V9.10999H18.4836V8.68999C18.4836 7.87799 18.2263 7.19199 17.7117 6.63199C17.2256 6.07199 16.5252 5.63798 15.6103 5.32999C14.724 5.02199 13.6804 4.86799 12.4796 4.86799C11.1931 4.86799 10.0924 4.99399 9.17747 5.24598C8.26258 5.46998 7.56212 5.81999 7.07609 6.29599C6.59005 6.74399 6.34703 7.30398 6.34703 7.97599C6.34703 8.67599 6.60435 9.26398 7.11897 9.73998C7.6336 10.216 8.31976 10.622 9.17747 10.958C10.0638 11.294 11.0501 11.602 12.1366 11.882C13.2516 12.162 14.3809 12.47 15.5245 12.806C16.6967 13.114 17.826 13.478 18.9124 13.898C20.0275 14.318 21.0138 14.85 21.8715 15.494C22.7578 16.11 23.4583 16.88 23.9729 17.804C24.4875 18.728 24.7449 19.834 24.7449 21.122C24.7449 23.278 24.2016 25.014 23.1152 26.33C22.0574 27.646 20.585 28.598 18.698 29.186C16.8397 29.774 14.7097 30.068 12.3081 30.068Z" fill="#3F3F3F"/>
<path d="M333.566 30.5639V20.2319H329.541V18.2159H339.999V20.2319H335.956V30.5639H333.566Z" fill="#3F3F3F"/>
<path d="M315.179 30.5639V18.2159H317.458L322.844 25.5059C322.905 25.5779 322.978 25.6799 323.064 25.8119C323.15 25.9319 323.23 26.0519 323.303 26.1719C323.377 26.2919 323.426 26.3879 323.45 26.4599H323.542C323.542 26.2919 323.542 26.1299 323.542 25.9739C323.542 25.8179 323.542 25.6619 323.542 25.5059V18.2159H325.84V30.5639H323.579L318.175 23.2199C318.077 23.0759 317.961 22.9019 317.826 22.6979C317.704 22.4819 317.618 22.3319 317.569 22.2479H317.477C317.477 22.4039 317.477 22.5659 317.477 22.7339C317.477 22.8899 317.477 23.0519 317.477 23.2199V30.5639H315.179Z" fill="#3F3F3F"/>
<path d="M300.993 30.5639V18.2159H310.826V20.2139H303.382V23.2559H310.017V25.2539H303.382V28.5659H310.936V30.5639H300.993Z" fill="#3F3F3F"/>
<path d="M283.648 30.5639V18.2159H287.415L289.4 25.0919C289.474 25.3319 289.547 25.6019 289.621 25.9019C289.694 26.2019 289.762 26.4899 289.823 26.7659C289.897 27.0419 289.952 27.2819 289.989 27.4859H290.136C290.16 27.3059 290.197 27.0839 290.246 26.8199C290.295 26.5559 290.35 26.2739 290.411 25.9739C290.485 25.6619 290.564 25.3619 290.65 25.0739L292.635 18.2159H296.366V30.5639H293.977V24.3179C293.977 23.7659 293.983 23.2139 293.995 22.6619C294.007 22.1099 294.02 21.6359 294.032 21.2399C294.057 20.8439 294.069 20.6099 294.069 20.5379H293.922C293.897 20.6459 293.836 20.8799 293.738 21.2399C293.64 21.5999 293.536 21.9899 293.425 22.4099C293.315 22.8299 293.217 23.1899 293.131 23.4899L291.055 30.5639H288.849L286.772 23.5079C286.699 23.2559 286.613 22.9559 286.515 22.6079C286.429 22.2479 286.337 21.8819 286.239 21.5099C286.153 21.1379 286.074 20.8139 286 20.5379H285.853C285.865 20.8619 285.878 21.2519 285.89 21.7079C285.902 22.1519 285.914 22.6079 285.927 23.0759C285.939 23.5319 285.945 23.9459 285.945 24.3179V30.5639H283.648Z" fill="#3F3F3F"/>
<path d="M273.518 30.5639V20.2319H269.493V18.2159H279.951V20.2319H275.908V30.5639H273.518Z" fill="#3F3F3F"/>
<path d="M263.404 30.5639V18.2159H265.794V30.5639H263.404Z" fill="#3F3F3F"/>
<path d="M253.505 30.7799C252.402 30.7799 251.452 30.6059 250.656 30.2579C249.859 29.9099 249.247 29.3819 248.818 28.6739C248.401 27.9539 248.193 27.0599 248.193 25.9919V18.2159H250.582V25.9199C250.582 26.8679 250.834 27.5879 251.336 28.0799C251.851 28.5599 252.573 28.7999 253.505 28.7999C254.436 28.7999 255.159 28.5599 255.673 28.0799C256.2 27.5879 256.464 26.8679 256.464 25.9199V18.2159H258.853V25.9919C258.853 27.0599 258.639 27.9539 258.21 28.6739C257.781 29.3819 257.168 29.9099 256.372 30.2579C255.575 30.6059 254.62 30.7799 253.505 30.7799Z" fill="#3F3F3F"/>
<path d="M233.434 30.5639V18.2159H240.069C241 18.2159 241.772 18.3719 242.385 18.6839C242.998 18.9959 243.457 19.4399 243.763 20.0159C244.07 20.5919 244.223 21.2699 244.223 22.0499C244.223 22.8539 244.039 23.5679 243.672 24.1919C243.304 24.8039 242.765 25.2659 242.054 25.5779L244.664 30.5639H242.054L239.738 25.9739H235.824V30.5639H233.434ZM235.824 24.0119H239.885C240.498 24.0119 240.97 23.8379 241.301 23.4899C241.631 23.1419 241.797 22.6619 241.797 22.0499C241.797 21.6539 241.723 21.3239 241.576 21.0599C241.429 20.7839 241.215 20.5739 240.933 20.4299C240.651 20.2859 240.302 20.2139 239.885 20.2139H235.824V24.0119Z" fill="#3F3F3F"/>
<path d="M223.9 30.78C222.614 30.78 221.511 30.558 220.592 30.114C219.685 29.67 218.987 28.98 218.497 28.044C218.019 27.096 217.78 25.878 217.78 24.39C217.78 22.218 218.319 20.61 219.397 19.566C220.476 18.522 221.977 18 223.9 18C224.942 18 225.879 18.174 226.712 18.522C227.558 18.87 228.226 19.398 228.716 20.106C229.218 20.802 229.469 21.69 229.469 22.77H227.025C227.025 22.17 226.89 21.666 226.62 21.258C226.363 20.838 226.002 20.52 225.536 20.304C225.07 20.088 224.537 19.98 223.937 19.98C223.104 19.98 222.412 20.142 221.86 20.466C221.309 20.778 220.898 21.246 220.629 21.87C220.371 22.494 220.243 23.268 220.243 24.192V24.588C220.243 25.524 220.371 26.304 220.629 26.928C220.898 27.552 221.303 28.02 221.842 28.332C222.393 28.644 223.092 28.8 223.937 28.8C224.574 28.8 225.132 28.698 225.61 28.494C226.087 28.278 226.455 27.966 226.712 27.558C226.982 27.138 227.117 26.628 227.117 26.028H229.469C229.469 27.108 229.224 28.002 228.734 28.71C228.244 29.406 227.576 29.928 226.731 30.276C225.898 30.612 224.954 30.78 223.9 30.78Z" fill="#3F3F3F"/>
<path d="M204.164 30.5639V18.2159H213.997V20.2139H206.553V23.2559H213.188V25.2539H206.553V28.5659H214.107V30.5639H204.164Z" fill="#3F3F3F"/>
<path d="M189.151 30.5639V18.2159H195.786C196.717 18.2159 197.489 18.3719 198.102 18.6839C198.714 18.9959 199.174 19.4399 199.48 20.0159C199.786 20.5919 199.94 21.2699 199.94 22.0499C199.94 22.8539 199.756 23.5679 199.388 24.1919C199.021 24.8039 198.481 25.2659 197.771 25.5779L200.381 30.5639H197.771L195.455 25.9739H191.54V30.5639H189.151ZM191.54 24.0119H195.602C196.215 24.0119 196.686 23.8379 197.017 23.4899C197.348 23.1419 197.513 22.6619 197.513 22.0499C197.513 21.6539 197.44 21.3239 197.293 21.0599C197.146 20.7839 196.931 20.5739 196.65 20.4299C196.368 20.2859 196.019 20.2139 195.602 20.2139H191.54V24.0119Z" fill="#3F3F3F"/>
<path d="M262.489 12.5639V0.215942H269.124C270.055 0.215942 270.827 0.371943 271.44 0.683943C272.053 0.995943 272.512 1.43994 272.818 2.01594C273.125 2.59194 273.278 3.26994 273.278 4.04994C273.278 4.85394 273.094 5.56794 272.726 6.19194C272.359 6.80394 271.82 7.26594 271.109 7.57794L273.719 12.5639H271.109L268.793 7.97394H264.878V12.5639H262.489ZM264.878 6.01194H268.94C269.553 6.01194 270.025 5.83794 270.356 5.48994C270.686 5.14194 270.852 4.66194 270.852 4.04994C270.852 3.65394 270.778 3.32394 270.631 3.05994C270.484 2.78394 270.27 2.57394 269.988 2.42994C269.706 2.28594 269.357 2.21394 268.94 2.21394H264.878V6.01194Z" fill="#3F3F3F"/>
<path d="M248.303 12.5639V0.215942H258.136V2.21394H250.692V5.25594H257.327V7.25394H250.692V10.5659H258.246V12.5639H248.303Z" fill="#3F3F3F"/>
<path d="M234.116 12.5639V0.215942H243.949V2.21394H236.506V5.25594H243.141V7.25394H236.506V10.5659H244.06V12.5639H234.116Z" fill="#3F3F3F"/>
<path d="M219.104 12.5639V0.215942H225.739C226.67 0.215942 227.442 0.371943 228.055 0.683943C228.668 0.995943 229.127 1.43994 229.433 2.01594C229.74 2.59194 229.893 3.26994 229.893 4.04994C229.893 4.85394 229.709 5.56794 229.342 6.19194C228.974 6.80394 228.435 7.26594 227.724 7.57794L230.334 12.5639H227.724L225.408 7.97394H221.493V12.5639H219.104ZM221.493 6.01194H225.555C226.168 6.01194 226.64 5.83794 226.971 5.48994C227.301 5.14194 227.467 4.66194 227.467 4.04994C227.467 3.65394 227.393 3.32394 227.246 3.05994C227.099 2.78394 226.885 2.57394 226.603 2.42994C226.321 2.28594 225.972 2.21394 225.555 2.21394H221.493V6.01194Z" fill="#3F3F3F"/>
<path d="M202.93 12.5639L207.838 0.215942H210.852L215.778 12.5639H213.186L212.175 9.93594H206.404L205.393 12.5639H202.93ZM207.158 7.95594H211.403L210.135 4.60794C210.086 4.48794 210.025 4.33794 209.951 4.15794C209.89 3.96594 209.823 3.76194 209.749 3.54594C209.676 3.31794 209.602 3.08994 209.529 2.86194C209.455 2.63394 209.388 2.42994 209.326 2.24994H209.235C209.161 2.48994 209.069 2.76594 208.959 3.07794C208.861 3.38994 208.763 3.68394 208.665 3.95994C208.567 4.23594 208.487 4.45194 208.426 4.60794L207.158 7.95594Z" fill="#3F3F3F"/>
<path d="M194.702 12.78C193.415 12.78 192.312 12.558 191.394 12.114C190.487 11.67 189.788 10.98 189.298 10.044C188.82 9.096 188.581 7.878 188.581 6.39C188.581 4.218 189.121 2.61 190.199 1.566C191.277 0.522 192.778 0 194.702 0C195.743 0 196.681 0.174 197.514 0.522C198.359 0.869999 199.027 1.398 199.517 2.106C200.02 2.802 200.271 3.69 200.271 4.77H197.826C197.826 4.17 197.692 3.666 197.422 3.258C197.165 2.838 196.803 2.52 196.338 2.304C195.872 2.088 195.339 1.98 194.739 1.98C193.905 1.98 193.213 2.142 192.662 2.466C192.11 2.778 191.7 3.246 191.43 3.87C191.173 4.494 191.044 5.268 191.044 6.192V6.588C191.044 7.524 191.173 8.304 191.43 8.928C191.7 9.552 192.104 10.02 192.643 10.332C193.195 10.644 193.893 10.8 194.739 10.8C195.376 10.8 195.933 10.698 196.411 10.494C196.889 10.278 197.257 9.966 197.514 9.558C197.783 9.138 197.918 8.628 197.918 8.028H200.271C200.271 9.108 200.026 10.002 199.536 10.71C199.045 11.406 198.378 11.928 197.532 12.276C196.699 12.612 195.756 12.78 194.702 12.78Z" fill="#3F3F3F"/>
</svg>
