<svg width="48" height="48" viewBox="0 0 48 48" fill="none" xmlns="http://www.w3.org/2000/svg">
<g clip-path="url(#clip0_43_3116)">
<path d="M24 48.001C37.2548 48.001 48 37.2558 48 24.001C48 10.7462 37.2548 0.000976562 24 0.000976562C10.7452 0.000976562 0 10.7462 0 24.001C0 37.2558 10.7452 48.001 24 48.001Z" fill="white"/>
<path d="M19.0251 12.0877C17.7483 12.1453 16.8747 12.3565 16.1163 12.6541C15.3291 12.9613 14.6571 13.3741 13.9947 14.0461C13.3323 14.7181 12.9195 15.3805 12.6123 16.1773C12.3147 16.9453 12.1131 17.8093 12.0555 19.0957C11.9979 20.3725 11.9883 20.7853 11.9883 24.0397C11.9883 27.2941 12.0075 27.7069 12.0747 28.9837C12.1323 30.2605 12.3435 31.1341 12.6411 31.8925C12.9483 32.6797 13.3611 33.3517 14.0331 34.0141C14.7051 34.6765 15.3675 35.0893 16.1643 35.3965C16.9323 35.6941 17.7963 35.8957 19.0731 35.9533C20.3499 36.0109 20.7627 36.0205 24.0171 36.0205C27.2811 36.0205 27.6843 36.0013 28.9611 35.9437C30.2379 35.8861 31.1115 35.6749 31.8699 35.3773C32.6571 35.0701 33.3291 34.6573 33.9915 33.9853C34.6539 33.3133 35.0667 32.6509 35.3739 31.8541C35.6715 31.0861 35.8731 30.2221 35.9307 28.9453C35.9883 27.6685 35.9979 27.2557 35.9979 24.0013C35.9979 20.7469 35.9787 20.3341 35.9115 19.0573C35.8539 17.7805 35.6427 16.9069 35.3451 16.1485C35.0379 15.3613 34.6251 14.6893 33.9531 14.0269C33.2811 13.3645 32.6187 12.9517 31.8219 12.6445C31.0539 12.3469 30.1899 12.1453 28.9131 12.0877C27.6363 12.0301 27.2235 12.0205 23.9691 12.0205C20.7147 12.0205 20.3019 12.0397 19.0251 12.1069M19.1691 33.8029C17.9979 33.7549 17.3643 33.5533 16.9419 33.3901C16.3851 33.1693 15.9819 32.9101 15.5595 32.4973C15.1371 32.0749 14.8779 31.6813 14.6571 31.1149C14.4939 30.6925 14.2923 30.0589 14.2443 28.8877C14.1867 27.6205 14.1675 27.2461 14.1675 24.0397C14.1675 20.8333 14.1675 20.4589 14.2251 19.1917C14.2731 18.0205 14.4747 17.3869 14.6379 16.9645C14.8587 16.4077 15.1179 16.0045 15.5307 15.5821C15.9531 15.1597 16.3467 14.9005 16.9131 14.6797C17.3355 14.5165 17.9691 14.3149 19.1403 14.2669C20.4075 14.2093 20.7819 14.1901 23.9883 14.1901C27.1947 14.1901 27.5691 14.1901 28.8363 14.2477C30.0075 14.2957 30.6411 14.4877 31.0635 14.6605C31.6203 14.8813 32.0235 15.1405 32.4459 15.5533C32.8683 15.9757 33.1275 16.3693 33.3483 16.9357C33.5115 17.3581 33.7131 17.9917 33.7611 19.1629C33.8187 20.4301 33.8379 20.8045 33.8379 24.0109C33.8379 27.2173 33.8379 27.5917 33.7803 28.8589C33.7323 30.0301 33.5307 30.6637 33.3675 31.0861C33.1467 31.6429 32.8875 32.0461 32.4747 32.4685C32.0523 32.8909 31.6587 33.1501 31.0923 33.3709C30.6699 33.5341 30.0363 33.7357 28.8651 33.7837C27.5979 33.8413 27.2235 33.8605 24.0171 33.8605C20.8107 33.8605 20.4363 33.8605 19.1691 33.8029ZM28.9515 17.6077C28.9515 18.4045 29.5947 19.0477 30.3915 19.0477C31.1883 19.0477 31.8315 18.4045 31.8315 17.6077C31.8315 16.8109 31.1883 16.1677 30.3915 16.1677C29.5947 16.1677 28.9515 16.8109 28.9515 17.6077ZM17.8347 24.0301C17.8347 27.4381 20.6091 30.1837 24.0075 30.1837C27.4059 30.1837 30.1611 27.4093 30.1611 24.0109C30.1611 20.6125 27.3867 17.8573 23.9883 17.8573C20.5899 17.8573 17.8347 20.6317 17.8347 24.0301ZM19.9947 24.0301C19.9947 21.8221 21.7803 20.0269 23.9883 20.0269C26.1963 20.0269 27.9915 21.8125 27.9915 24.0205C27.9915 26.2285 26.2059 28.0237 23.9979 28.0237C21.7899 28.0237 19.9947 26.2381 19.9947 24.0301Z" fill="black"/>
</g>
<defs>
<clipPath id="clip0_43_3116">
<rect width="48" height="48" fill="white" transform="translate(0 0.000976562)"/>
</clipPath>
</defs>
</svg>
