<svg width="175" height="17" viewBox="0 0 175 17" fill="none" xmlns="http://www.w3.org/2000/svg">
<path d="M77.0569 16.141V0.99864H88.8661V3.44879H79.9264V7.17919H87.8949V9.62933H79.9264V13.6908H88.9986V16.141H77.0569Z" fill="black"/>
<path d="M64.468 16.141V0.99864H67.3376V13.6467H74.9308V16.141H64.468Z" fill="black"/>
<path d="M49.6812 16.141V0.99864H57.2744C58.3928 0.99864 59.3125 1.1973 60.0336 1.59462C60.7693 1.99194 61.3212 2.55113 61.6891 3.2722C62.057 3.99326 62.2409 4.85412 62.2409 5.85478C62.2409 6.84073 62.0496 7.70159 61.667 8.43737C61.2844 9.17315 60.7105 9.74706 59.9453 10.1591C59.1948 10.5564 58.253 10.7551 57.1199 10.7551H52.5507V16.141H49.6812ZM52.5507 8.30493H57.0316C57.7674 8.30493 58.3339 8.09155 58.7312 7.6648C59.1433 7.22333 59.3493 6.61999 59.3493 5.85478C59.3493 5.33974 59.261 4.90563 59.0844 4.55245C58.9078 4.19928 58.6503 3.92704 58.3118 3.73574C57.9734 3.54444 57.5466 3.44879 57.0316 3.44879H52.5507V8.30493Z" fill="black"/>
<path d="M31.0566 16.141V0.99864H35.5817L37.9656 9.43067C38.0539 9.72498 38.1422 10.0561 38.2305 10.424C38.3188 10.7919 38.3997 11.145 38.4733 11.4835C38.5616 11.822 38.6278 12.1163 38.672 12.3664H38.8485C38.878 12.1457 38.9221 11.8735 38.981 11.5497C39.0398 11.226 39.1061 10.8802 39.1796 10.5123C39.2679 10.1297 39.3636 9.76177 39.4666 9.4086L41.8505 0.99864H46.3314V16.141H43.4619V8.48152C43.4619 7.8046 43.4692 7.12768 43.484 6.45077C43.4987 5.77385 43.5134 5.19258 43.5281 4.70697C43.5575 4.22135 43.5722 3.9344 43.5722 3.84611H43.3957C43.3662 3.97855 43.2926 4.2655 43.1749 4.70697C43.0572 5.14844 42.9321 5.62669 42.7997 6.14174C42.6672 6.65678 42.5495 7.09825 42.4465 7.46614L39.9522 16.141H37.3034L34.8091 7.48821C34.7208 7.17919 34.6178 6.8113 34.5001 6.38454C34.3971 5.94308 34.2867 5.49425 34.169 5.03807C34.066 4.58188 33.9703 4.18456 33.882 3.84611H33.7054C33.7202 4.24343 33.7349 4.72168 33.7496 5.28088C33.7643 5.82535 33.779 6.38454 33.7937 6.95845C33.8085 7.51764 33.8158 8.02533 33.8158 8.48152V16.141H31.0566Z" fill="black"/>
<path d="M13.8397 16.141L19.7333 0.99864H23.3533L29.269 16.141H26.1567L24.9426 12.9183H18.0116L16.7976 16.141H13.8397ZM18.9166 10.4902H24.0155L22.4925 6.38454C22.4336 6.23739 22.36 6.05344 22.2718 5.83271C22.1982 5.59726 22.1172 5.3471 22.0289 5.08221C21.9407 4.80262 21.8524 4.52302 21.7641 4.24343C21.6758 3.96383 21.5948 3.71367 21.5213 3.49293H21.4109C21.3226 3.78724 21.2122 4.1257 21.0798 4.50831C20.9621 4.89091 20.8443 5.25144 20.7266 5.5899C20.6089 5.92836 20.5132 6.19324 20.4397 6.38454L18.9166 10.4902Z" fill="black"/>
<path d="M6.33506 16.4059C5.49627 16.4059 4.69427 16.3176 3.92906 16.141C3.16385 15.9497 2.48693 15.6627 1.89831 15.2801C1.30969 14.8828 0.846146 14.3972 0.507688 13.8233C0.169229 13.2347 0 12.543 0 11.7484C0 11.6601 0 11.5718 0 11.4835C0.0147156 11.3952 0.0220734 11.329 0.0220734 11.2848H2.91369C2.91369 11.3143 2.90633 11.3731 2.89161 11.4614C2.89161 11.535 2.89161 11.6012 2.89161 11.6601C2.89161 12.1457 3.03141 12.5651 3.31101 12.9183C3.5906 13.2567 3.99528 13.5216 4.52504 13.7129C5.0548 13.8895 5.68022 13.9778 6.40128 13.9778C6.88689 13.9778 7.31365 13.9484 7.68153 13.8895C8.06414 13.8306 8.38788 13.7497 8.65276 13.6467C8.93236 13.529 9.16045 13.3965 9.33704 13.2494C9.51363 13.0875 9.63871 12.9109 9.71229 12.7196C9.80058 12.5283 9.84473 12.3223 9.84473 12.1016C9.84473 11.6748 9.71229 11.3216 9.44741 11.042C9.18252 10.7624 8.82199 10.527 8.36581 10.3357C7.92434 10.1444 7.41665 9.97515 6.84275 9.828C6.28355 9.66613 5.70229 9.50425 5.09895 9.34238C4.51033 9.18051 3.92906 8.98921 3.35515 8.76847C2.79596 8.53302 2.28827 8.25343 1.83209 7.92969C1.39062 7.60594 1.03745 7.20127 0.772568 6.71565C0.507688 6.21532 0.375247 5.61934 0.375247 4.92771C0.375247 4.22136 0.522403 3.6033 0.816715 3.07354C1.12574 2.54378 1.55249 2.10967 2.09697 1.77121C2.65616 1.41804 3.30365 1.16052 4.03943 0.998646C4.77521 0.82206 5.57721 0.733767 6.44543 0.733767C7.25478 0.733767 8.01264 0.82206 8.71898 0.998646C9.44005 1.16052 10.0728 1.4254 10.6173 1.79329C11.1618 2.14646 11.5885 2.60265 11.8976 3.16184C12.2066 3.70631 12.3611 4.36116 12.3611 5.12637V5.39125H9.51363V5.17051C9.51363 4.74376 9.38119 4.38323 9.11631 4.08892C8.86614 3.79461 8.50561 3.56652 8.03471 3.40464C7.57853 3.24277 7.04141 3.16184 6.42335 3.16184C5.76115 3.16184 5.1946 3.22806 4.7237 3.3605C4.2528 3.47822 3.89227 3.66217 3.64211 3.91233C3.39194 4.14778 3.26686 4.44209 3.26686 4.79527C3.26686 5.16316 3.3993 5.47218 3.66418 5.72235C3.92906 5.97251 4.28224 6.18589 4.7237 6.36248C5.17989 6.53906 5.68757 6.70094 6.24677 6.84809C6.82067 6.99525 7.40194 7.15712 7.99056 7.3337C8.5939 7.49558 9.17517 7.68688 9.73436 7.90761C10.3083 8.12835 10.816 8.40794 11.2574 8.7464C11.7136 9.07014 12.0741 9.47482 12.339 9.96044C12.6039 10.4461 12.7363 11.0273 12.7363 11.7042C12.7363 12.8373 12.4567 13.7497 11.8976 14.4413C11.3531 15.133 10.5952 15.6333 9.62399 15.9423C8.66748 16.2514 7.57117 16.4059 6.33506 16.4059Z" fill="black"/>
<path d="M171.689 16.6664V11.2364H169.617V10.1769H175V11.2364H172.918V16.6664H171.689Z" fill="black"/>
<path d="M162.225 16.6664V10.1769H163.398L166.17 14.0082C166.201 14.046 166.239 14.0996 166.283 14.169C166.328 14.2321 166.369 14.2951 166.406 14.3582C166.444 14.4213 166.469 14.4717 166.482 14.5095H166.529C166.529 14.4213 166.529 14.3361 166.529 14.2541C166.529 14.1721 166.529 14.0902 166.529 14.0082V10.1769H167.712V16.6664H166.548L163.767 12.8067C163.717 12.7311 163.657 12.6396 163.587 12.5324C163.524 12.4189 163.48 12.3401 163.455 12.2959H163.408C163.408 12.3779 163.408 12.463 163.408 12.5513C163.408 12.6333 163.408 12.7185 163.408 12.8067V16.6664H162.225Z" fill="black"/>
<path d="M154.923 16.6664V10.1769H159.984V11.2269H156.153V12.8257H159.568V13.8757H156.153V15.6164H160.041V16.6664H154.923Z" fill="black"/>
<path d="M145.995 16.6664V10.1769H147.934L148.956 13.7906C148.994 13.9167 149.032 14.0586 149.07 14.2163C149.107 14.374 149.142 14.5253 149.174 14.6704C149.212 14.8154 149.24 14.9416 149.259 15.0488H149.335C149.347 14.9542 149.366 14.8375 149.391 14.6988C149.416 14.56 149.445 14.4118 149.476 14.2541C149.514 14.0902 149.555 13.9325 149.599 13.7811L150.621 10.1769H152.541V16.6664H151.312V13.3838C151.312 13.0937 151.315 12.8036 151.321 12.5135C151.327 12.2234 151.334 11.9743 151.34 11.7661C151.353 11.558 151.359 11.435 151.359 11.3972H151.283C151.271 11.454 151.239 11.5769 151.189 11.7661C151.138 11.9553 151.085 12.1603 151.028 12.381C150.971 12.6018 150.921 12.791 150.876 12.9486L149.808 16.6664H148.672L147.603 12.9581C147.565 12.8257 147.521 12.668 147.471 12.4851C147.427 12.2959 147.379 12.1036 147.329 11.908C147.285 11.7125 147.244 11.5423 147.206 11.3972H147.13C147.137 11.5675 147.143 11.7725 147.149 12.0121C147.156 12.2455 147.162 12.4851 147.168 12.7311C147.174 12.9707 147.178 13.1883 147.178 13.3838V16.6664H145.995Z" fill="black"/>
<path d="M140.781 16.6664V11.2364H138.709V10.1769H144.092V11.2364H142.011V16.6664H140.781Z" fill="black"/>
<path d="M135.576 16.6664V10.1769H136.806V16.6664H135.576Z" fill="black"/>
<path d="M130.48 16.78C129.912 16.78 129.424 16.6885 129.014 16.5056C128.604 16.3227 128.288 16.0452 128.068 15.6731C127.853 15.2947 127.746 14.8249 127.746 14.2636V10.1769H128.976V14.2257C128.976 14.724 129.105 15.1024 129.364 15.361C129.629 15.6132 130.001 15.7394 130.48 15.7394C130.959 15.7394 131.331 15.6132 131.596 15.361C131.868 15.1024 132.003 14.724 132.003 14.2257V10.1769H133.233V14.2636C133.233 14.8249 133.123 15.2947 132.902 15.6731C132.681 16.0452 132.366 16.3227 131.956 16.5056C131.546 16.6885 131.054 16.78 130.48 16.78Z" fill="black"/>
<path d="M120.15 16.6664V10.1769H123.565C124.044 10.1769 124.441 10.2588 124.757 10.4228C125.072 10.5868 125.309 10.8201 125.466 11.1229C125.624 11.4256 125.703 11.7819 125.703 12.1918C125.703 12.6144 125.608 12.9896 125.419 13.3176C125.23 13.6392 124.952 13.882 124.586 14.046L125.93 16.6664H124.586L123.394 14.2541H121.379V16.6664H120.15ZM121.379 13.223H123.47C123.785 13.223 124.028 13.1315 124.199 12.9486C124.369 12.7658 124.454 12.5135 124.454 12.1918C124.454 11.9837 124.416 11.8103 124.34 11.6715C124.265 11.5265 124.154 11.4161 124.009 11.3404C123.864 11.2648 123.685 11.2269 123.47 11.2269H121.379V13.223Z" fill="black"/>
<path d="M115.243 16.78C114.581 16.78 114.013 16.6633 113.54 16.4299C113.073 16.1966 112.714 15.834 112.462 15.342C112.216 14.8438 112.093 14.2037 112.093 13.4217C112.093 12.2801 112.37 11.4351 112.925 10.8864C113.48 10.3377 114.253 10.0633 115.243 10.0633C115.779 10.0633 116.261 10.1548 116.69 10.3377C117.126 10.5206 117.469 10.7981 117.721 11.1702C117.98 11.536 118.109 12.0027 118.109 12.5703H116.851C116.851 12.2549 116.782 11.99 116.643 11.7756C116.511 11.5549 116.325 11.3877 116.085 11.2742C115.845 11.1607 115.571 11.1039 115.262 11.1039C114.833 11.1039 114.477 11.1891 114.193 11.3594C113.909 11.5233 113.698 11.7693 113.559 12.0973C113.427 12.4252 113.36 12.832 113.36 13.3176V13.5257C113.36 14.0176 113.427 14.4276 113.559 14.7555C113.698 15.0835 113.906 15.3294 114.183 15.4934C114.467 15.6574 114.827 15.7394 115.262 15.7394C115.59 15.7394 115.877 15.6858 116.123 15.5785C116.369 15.465 116.558 15.301 116.69 15.0866C116.829 14.8659 116.898 14.5978 116.898 14.2825H118.109C118.109 14.8501 117.983 15.32 117.731 15.6921C117.479 16.0578 117.135 16.3322 116.7 16.5151C116.271 16.6917 115.785 16.78 115.243 16.78Z" fill="black"/>
<path d="M105.084 16.6664V10.1769H110.145V11.2269H106.314V12.8257H109.729V13.8757H106.314V15.6164H110.202V16.6664H105.084Z" fill="black"/>
<path d="M97.3569 16.6664V10.1769H100.772C101.251 10.1769 101.649 10.2588 101.964 10.4228C102.279 10.5868 102.516 10.8201 102.673 11.1229C102.831 11.4256 102.91 11.7819 102.91 12.1918C102.91 12.6144 102.815 12.9896 102.626 13.3176C102.437 13.6392 102.159 13.882 101.794 14.046L103.137 16.6664H101.794L100.602 14.2541H98.5867V16.6664H97.3569ZM98.5867 13.223H100.677C100.993 13.223 101.236 13.1315 101.406 12.9486C101.576 12.7658 101.661 12.5135 101.661 12.1918C101.661 11.9837 101.623 11.8103 101.548 11.6715C101.472 11.5265 101.362 11.4161 101.217 11.3404C101.072 11.2648 100.892 11.2269 100.677 11.2269H98.5867V13.223Z" fill="black"/>
<path d="M135.105 7.20646V0.716885H138.52C138.999 0.716885 139.396 0.798872 139.712 0.962845C140.027 1.12682 140.264 1.36017 140.421 1.66289C140.579 1.96561 140.658 2.32193 140.658 2.73187C140.658 3.15442 140.563 3.52966 140.374 3.85761C140.185 4.17925 139.907 4.42206 139.541 4.58603L140.885 7.20646H139.541L138.35 4.79415H136.335V7.20646H135.105ZM136.335 3.76301H138.425C138.741 3.76301 138.983 3.67156 139.154 3.48867C139.324 3.30578 139.409 3.05351 139.409 2.73187C139.409 2.52375 139.371 2.35031 139.296 2.21157C139.22 2.06651 139.109 1.95615 138.964 1.88047C138.819 1.80479 138.64 1.76695 138.425 1.76695H136.335V3.76301Z" fill="black"/>
<path d="M127.803 7.20646V0.716885H132.864V1.76695H129.033V3.36569H132.448V4.41575H129.033V6.1564H132.921V7.20646H127.803Z" fill="black"/>
<path d="M120.501 7.20646V0.716885H125.562V1.76695H121.731V3.36569H125.146V4.41575H121.731V6.1564H125.619V7.20646H120.501Z" fill="black"/>
<path d="M112.774 7.20646V0.716885H116.189C116.669 0.716885 117.066 0.798872 117.381 0.962845C117.697 1.12682 117.933 1.36017 118.091 1.66289C118.249 1.96561 118.327 2.32193 118.327 2.73187C118.327 3.15442 118.233 3.52966 118.044 3.85761C117.854 4.17925 117.577 4.42206 117.211 4.58603L118.554 7.20646H117.211L116.019 4.79415H114.004V7.20646H112.774ZM114.004 3.76301H116.095C116.41 3.76301 116.653 3.67156 116.823 3.48867C116.994 3.30578 117.079 3.05351 117.079 2.73187C117.079 2.52375 117.041 2.35031 116.965 2.21157C116.89 2.06651 116.779 1.95615 116.634 1.88047C116.489 1.80479 116.309 1.76695 116.095 1.76695H114.004V3.76301Z" fill="black"/>
<path d="M104.449 7.20646L106.975 0.716885H108.526L111.062 7.20646H109.728L109.208 5.82529H106.237L105.717 7.20646H104.449ZM106.625 4.78469H108.81L108.158 3.02513C108.132 2.96206 108.101 2.88323 108.063 2.78863C108.031 2.68772 107.997 2.58051 107.959 2.46699C107.921 2.34716 107.883 2.22733 107.845 2.10751C107.808 1.98768 107.773 1.88047 107.741 1.78587H107.694C107.656 1.912 107.609 2.05705 107.552 2.22103C107.502 2.385 107.451 2.53952 107.401 2.68457C107.35 2.82962 107.309 2.94314 107.278 3.02513L106.625 4.78469Z" fill="black"/>
<path d="M100.214 7.32001C99.5522 7.32001 98.9846 7.20333 98.5116 6.96999C98.0449 6.73664 97.6854 6.374 97.4331 5.88208C97.1872 5.38386 97.0642 4.74373 97.0642 3.9617C97.0642 2.82019 97.3417 1.9751 97.8967 1.42642C98.4517 0.877734 99.2242 0.603394 100.214 0.603394C100.75 0.603394 101.233 0.69484 101.662 0.877734C102.097 1.06063 102.441 1.33812 102.693 1.71022C102.951 2.076 103.081 2.5427 103.081 3.1103H101.823C101.823 2.79496 101.753 2.53008 101.614 2.31566C101.482 2.09492 101.296 1.9278 101.056 1.81428C100.817 1.70076 100.542 1.644 100.233 1.644C99.8045 1.644 99.4481 1.72914 99.1643 1.89942C98.8805 2.06339 98.6693 2.30935 98.5305 2.6373C98.3981 2.96524 98.3319 3.37203 98.3319 3.85764V4.06576C98.3319 4.55768 98.3981 4.96762 98.5305 5.29556C98.6693 5.62351 98.8774 5.86947 99.1549 6.03344C99.4387 6.19742 99.7982 6.2794 100.233 6.2794C100.561 6.2794 100.848 6.2258 101.094 6.11858C101.34 6.00506 101.529 5.84109 101.662 5.62666C101.801 5.40593 101.87 5.1379 101.87 4.82256H103.081C103.081 5.39016 102.955 5.86001 102.702 6.2321C102.45 6.59789 102.106 6.87223 101.671 7.05513C101.242 7.23171 100.757 7.32001 100.214 7.32001Z" fill="black"/>
</svg>
