<svg width="48" height="48" viewBox="0 0 48 48" fill="none" xmlns="http://www.w3.org/2000/svg">
<path d="M24 48C37.2548 48 48 37.2548 48 24C48 10.7452 37.2548 0 24 0C10.7452 0 0 10.7452 0 24C0 37.2548 10.7452 48 24 48Z" fill="white"/>
<path d="M11.5327 20.9942C10.2655 20.9558 8.48953 21.0325 7.20312 21.0325V27.6182H9.04633V22.6357C9.04633 22.6357 10.6879 22.5782 11.2735 22.6454C11.8303 22.7126 12.0319 23.0582 12.0511 23.7686C12.0607 24.5846 12.0511 25.0166 12.0511 27.6086H13.8943C13.8943 27.6086 13.9135 24.6422 13.8943 23.6054C13.8655 21.7718 13.2223 21.0326 11.5231 20.9846L11.5327 20.9942Z" fill="black"/>
<path d="M20.0659 20.9756C18.2419 20.9756 16.7539 22.4636 16.7539 24.3068C16.7539 26.15 18.2419 27.638 20.0659 27.638C21.8899 27.638 23.3779 26.15 23.3779 24.3068C23.3779 22.4636 21.8899 20.9756 20.0659 20.9756ZM20.0659 26.0444C19.1059 26.0444 18.3379 25.2668 18.3379 24.2972C18.3379 23.3276 19.1155 22.55 20.0659 22.55C21.0163 22.55 21.7939 23.3276 21.7939 24.2972C21.7939 25.2668 21.0163 26.0444 20.0659 26.0444Z" fill="black"/>
<path d="M40.8037 24.3068C40.8037 22.4732 39.3157 20.9756 37.4917 20.9756C35.6677 20.9756 34.1797 22.4636 34.1797 24.3068C34.1797 25.382 34.6693 26.3036 35.4373 26.918C35.9749 27.3404 36.7141 27.638 37.7221 27.638C38.2117 27.638 39.4693 27.5036 40.3717 26.4956L39.6229 25.4972C39.3061 25.7756 38.5093 26.1692 37.8757 26.1692C37.0693 26.1692 36.5893 26.0156 36.2341 25.6796C36.0133 25.478 35.8597 25.1804 35.7925 24.806H40.7461C40.7749 24.6332 40.7941 24.4796 40.7941 24.2972L40.8037 24.3068ZM35.8213 23.702C36.0037 22.9244 36.5509 22.3388 37.4917 22.3388C38.4325 22.3388 38.9797 22.9628 39.1525 23.702H35.8213Z" fill="black"/>
<path d="M29.6407 20.3613H27.9127V22.2141H26.1367V23.8365H27.9127V25.7565H29.6407V23.8365H31.4167V22.2141H29.6407V20.3613Z" fill="black"/>
</svg>
