<svg width="822" height="365" viewBox="0 0 822 365" fill="none" xmlns="http://www.w3.org/2000/svg">
<rect x="0.953125" y="0.862656" width="818.328" height="103.324" fill="white" fill-opacity="0.75"/>
<rect x="211.734" y="133.117" width="396.765" height="103.324" fill="white" fill-opacity="0.75"/>
<rect x="36.4961" y="257.933" width="747.241" height="103.324" fill="white" fill-opacity="0.75"/>
<path d="M59.0758 53.3884H65.3249C67.3037 53.3884 68.137 54.2216 68.137 56.3047V61.4081C68.137 63.4911 67.3037 64.3243 65.3249 64.3243H59.0758C56.9928 64.3243 56.1596 63.3869 56.1596 61.4081V56.3047C56.1596 54.2216 57.097 53.3884 59.0758 53.3884Z" fill="#1C1C1C"/>
<path d="M176.35 49.2224V48.2851C176.35 46.8269 177.391 45.7854 178.849 45.7854H194.055C195.513 45.7854 196.555 46.8269 196.555 48.2851V49.2224C196.555 50.6805 195.513 51.722 194.055 51.722H178.849C177.391 51.722 176.35 50.6805 176.35 49.2224Z" fill="#1C1C1C"/>
<path d="M176.35 35.8911V35.3703C176.35 33.9122 177.391 32.9749 178.849 32.9749H194.055C195.513 32.9749 196.555 33.9122 196.555 35.3703V35.8911C196.555 37.3492 195.513 38.3907 194.055 38.3907H178.849C177.391 38.3907 176.35 37.3492 176.35 35.8911Z" fill="#1C1C1C"/>
<path d="M196.555 22.5598V23.0805C196.555 24.5387 195.513 25.5802 194.055 25.5802H178.849C177.391 25.5802 176.35 24.5387 176.35 23.0805V22.5598C176.35 21.1017 177.391 20.0602 178.849 20.0602H194.055C195.513 20.0602 196.555 21.1017 196.555 22.5598Z" fill="#1C1C1C"/>
<path d="M466.306 35.162L466.41 34.8496C466.598 34.1923 466.955 33.9583 467.481 33.6133C467.539 33.5757 467.598 33.5367 467.66 33.4956C467.752 33.4341 467.846 33.3748 467.941 33.3158C468.484 32.9754 469.014 32.6435 469.014 31.9334C469.014 30.996 468.076 30.6836 467.243 30.5794C465.785 30.3711 458.911 29.9545 457.349 29.9545C456.203 29.9545 455.37 30.267 455.37 31.6209C455.37 31.9626 455.415 32.4643 455.464 32.9976C455.519 33.6022 455.578 34.2474 455.578 34.7454C455.682 36.8285 454.849 37.6617 452.766 37.6617H440.164C437.143 37.6617 434.227 37.6617 431.207 37.5575C429.332 37.4534 428.603 36.516 428.395 34.7454C428.291 34.2247 428.291 33.7039 428.291 33.1832V32.0375C428.291 30.0587 429.124 29.1213 431.207 29.1213H490.781C492.76 29.1213 493.697 30.0587 493.697 32.0375V33.7039C493.697 34.1205 493.697 34.433 493.593 34.8496C493.281 36.8285 492.656 37.4534 490.677 37.5575C488.408 37.714 486.081 37.6942 483.783 37.6746C483.022 37.6681 482.264 37.6617 481.512 37.6617H469.118C467.764 37.6617 466.514 37.3492 466.306 35.787V35.162Z" fill="#1C1C1C"/>
<path d="M571.29 52.1386H592.953C594.724 52.1386 595.765 53.1801 595.765 54.9507V56.8254C595.765 58.596 594.724 59.6375 592.953 59.6375H571.29C569.519 59.6375 568.582 58.596 568.373 56.8254V54.9507C568.582 53.1801 569.519 52.1386 571.29 52.1386Z" fill="#1C1C1C"/>
<path d="M571.29 36.4119H592.953C594.724 36.6202 595.765 37.4534 595.765 39.3281V40.7862C595.765 42.5568 594.724 43.4941 592.953 43.7024H571.29C569.519 43.4941 568.582 42.5568 568.373 40.7862V39.3281C568.582 37.4534 569.519 36.6202 571.29 36.4119Z" fill="#1C1C1C"/>
<path d="M592.953 28.0798H571.29C569.519 27.8715 568.582 26.9341 568.373 25.1636V23.7055C568.582 21.9349 569.519 20.9975 571.29 20.7892H592.953C594.724 20.9975 595.765 21.9349 595.765 23.7055V25.1636C595.765 26.9341 594.724 27.8715 592.953 28.0798Z" fill="#1C1C1C"/>
<path fill-rule="evenodd" clip-rule="evenodd" d="M821.075 0H2.03516V108.78H821.075V0ZM30.7468 42.036C30.7468 42.7651 30.3302 43.1817 29.8094 43.7024C26.06 46.9311 22.2064 49.9515 18.0404 52.5552C17.3113 52.9718 16.4781 53.4926 16.4781 54.4299C16.4781 56.3047 20.2276 61.3039 22.4147 61.3039C24.7444 61.3039 33.2436 53.8004 36.7232 50.7283C37.1327 50.3668 37.4727 50.0666 37.7249 49.8473C37.9332 49.639 38.1415 49.4307 38.5581 49.4307C39.183 49.4307 39.3913 49.9515 39.4955 50.5764C39.4955 52.3469 39.7038 53.5967 41.9951 53.5967H43.4532C45.4321 53.5967 46.1611 54.43 46.1611 56.4088V61.4081C46.1611 63.4911 45.2238 64.3243 43.2449 64.3243H38.9747C36.9959 64.3243 35.017 64.2462 33.0381 64.1681C31.0593 64.0899 29.0804 64.0118 27.1015 64.0118C24.4978 64.0118 24.4978 65.1575 24.4978 69.1152C24.4978 69.2575 24.4976 69.3963 24.4975 69.5317C24.4937 72.9654 24.4924 74.2186 26.9974 74.2186C28.9762 74.2186 30.9811 74.1405 32.986 74.0624C34.991 73.9843 36.9959 73.9062 38.9747 73.9062H41.3702C42.4117 74.0103 43.4532 74.3228 43.4532 75.5726C43.4532 75.9177 43.3817 76.1199 43.298 76.3567C43.2807 76.4058 43.2628 76.4563 43.2449 76.5099C39.5996 84.5295 31.9966 89.6329 23.6645 92.0284C22.7272 92.2367 21.894 92.5492 21.894 93.6948C21.894 95.3612 25.2268 101.194 27.6223 101.194C28.6638 101.194 30.226 100.673 31.1634 100.256C41.8909 95.6737 50.4313 87.9665 54.0766 76.6141C54.7015 74.5311 55.5347 73.9062 57.7219 73.9062H65.3249C67.3037 73.9062 68.137 74.8435 68.137 76.8224V90.2578C68.137 99.1107 72.1988 100.465 80.2185 100.465H92.9249C97.5075 100.465 101.049 99.7356 103.444 95.5695C104.798 93.2782 106.881 87.6541 106.881 85.0503C106.881 82.5507 100.944 81.405 99.3822 81.405C97.82 81.405 97.5075 82.2382 97.195 83.5922C95.7369 90.4661 93.9664 90.8827 90.4252 90.8827H83.0305C78.9686 90.8827 78.552 90.0495 78.552 86.196V76.8224C78.552 74.7394 79.3852 73.9062 81.4683 73.9062H85.9467C87.9256 73.9062 89.9045 73.9843 91.8833 74.0624C93.8622 74.1405 95.8411 74.2186 97.82 74.2186C100.325 74.2186 100.324 73.062 100.32 69.5433C100.32 69.4043 100.32 69.2616 100.32 69.1152C100.32 68.973 100.32 68.8341 100.32 68.6987C100.324 65.265 100.325 64.0118 97.82 64.0118C95.8411 64.0118 93.8622 64.0899 91.8833 64.1681C89.9045 64.2462 87.9256 64.3243 85.9467 64.3243H81.4683C79.3852 64.3243 78.552 63.4911 78.552 61.4081V56.4088C78.552 54.43 79.2811 53.5967 81.3641 53.5967H83.343C85.8918 53.5967 85.9456 52.3991 86.0444 50.1993C86.0465 50.1519 86.0487 50.104 86.0509 50.0556C86.1551 49.5349 86.3633 49.0141 86.9883 49.0141C87.3007 49.0141 87.509 49.1183 87.8215 49.3266C90.0086 51.3054 99.1739 59.1167 101.674 59.1167C103.965 59.1167 107.818 53.1801 107.818 51.6179C107.818 50.572 106.603 49.8734 105.441 49.2049C105.33 49.1411 105.219 49.0776 105.111 49.0141C101.882 47.1394 99.1739 45.2647 96.2577 42.9734C95.6328 42.4526 95.2162 41.9319 95.2162 41.0986C95.2162 40.3696 95.6328 39.8488 96.1535 39.3281C98.8615 36.8285 101.361 34.2247 103.861 31.5168C104.173 31.2043 104.381 30.996 104.902 30.996C105.008 30.996 105.121 30.9987 105.24 31.0014C106.172 31.0231 107.402 31.0518 107.402 29.8504C107.402 29.0929 106.541 28.4215 105.289 27.4449C105.164 27.3473 105.035 27.2466 104.902 27.1424C104.642 26.9341 104.355 26.7258 104.069 26.5175C103.783 26.3092 103.496 26.1009 103.236 25.8926C101.986 24.8511 99.903 23.1847 99.2781 23.1847C98.549 23.1847 98.0283 24.0179 97.7158 24.5387C96.0494 26.83 91.675 31.3085 89.4879 33.2873C88.9671 33.8081 88.4464 34.1205 87.8215 34.1205C87.0924 34.1205 86.6758 33.8081 86.2592 33.2873C85.6343 32.6624 85.102 32.0375 84.5697 31.4126C84.3035 31.1002 84.0373 30.7877 83.7596 30.4753C83.343 29.9545 83.1347 29.5379 83.1347 28.913C83.1347 28.1839 83.5513 27.6632 83.9679 27.1424C86.6756 24.4348 88.2382 22.8721 90.8418 20.0602C91.1543 19.7477 91.5709 19.5394 91.9875 19.4353C92.1523 19.4353 92.3323 19.4417 92.5195 19.4485C93.6338 19.4885 95.0079 19.5379 95.0079 18.2896C95.0079 17.7553 94.5045 17.3329 93.7436 16.6945C93.4662 16.4617 93.1546 16.2002 92.8207 15.8941C92.5603 15.6858 92.2739 15.4515 91.9875 15.2172C91.7011 14.9828 91.4147 14.7485 91.1543 14.5402C90.8198 14.3013 90.4415 14.0185 90.0483 13.7246C88.7272 12.7373 87.2376 11.624 86.6758 11.624C86.0092 11.624 85.6093 12.1572 85.2094 12.6905C85.1094 12.8238 85.0094 12.9571 84.9052 13.0821C83.5513 14.9568 80.8434 17.873 79.1769 19.4353C78.6562 19.956 78.1354 20.2685 77.5105 20.2685C76.6591 20.2685 76.2373 19.7529 75.7769 19.19C75.7304 19.1332 75.6836 19.076 75.6358 19.0187C74.6985 17.4564 73.9694 16.1024 73.4487 15.0609C71.7822 12.0406 71.2615 11.2074 69.9075 11.2074C68.2411 11.2074 63.1377 13.4987 63.1377 15.6858C63.1377 16.4737 63.6965 17.4479 64.1095 18.168C64.1333 18.2094 64.1566 18.25 64.1792 18.2896C68.6577 26.83 73.4487 33.9122 79.8018 41.2028C80.0102 41.5153 80.2185 41.8277 80.2185 42.2443C80.2185 43.0775 79.5936 43.2858 78.8645 43.39C76.8856 43.4941 74.9068 43.4941 72.9279 43.4941H52.5143C50.6396 43.4941 48.869 43.4941 46.9943 43.39C46.2653 43.2858 45.5362 43.0775 45.5362 42.2443C45.5362 41.8277 45.6404 41.5153 45.9528 41.2028C49.5981 36.8285 59.4924 24.1221 59.4924 18.6021C59.4924 17.0398 58.2426 15.3734 57.097 14.436C55.9513 13.6028 54.4932 13.3945 52.2019 13.3945C51.5121 13.3945 50.7411 13.4148 49.88 13.4375C48.7907 13.4662 47.5571 13.4987 46.1611 13.4987H38.0374C36.2668 13.4987 34.4962 13.4466 32.7257 13.3945C30.9551 13.3424 29.1845 13.2904 27.414 13.2904C25.0131 13.2904 25.0143 14.3473 25.0182 17.6609C25.0183 17.7972 25.0185 17.9373 25.0185 18.0813C25.0185 18.2212 25.0183 18.3573 25.0182 18.4898C25.0143 21.7111 25.0131 22.7681 27.414 22.7681C29.1845 22.7681 30.9551 22.716 32.7257 22.6639C34.4962 22.6119 36.2668 22.5598 38.0374 22.5598H42.62C44.2864 22.5598 45.4321 22.6639 45.4321 24.0179C45.4321 25.8926 41.266 31.5168 39.9121 33.1832C39.2872 33.8081 38.7664 34.3288 37.8291 34.3288C37.1 34.3288 36.5793 34.0164 36.0585 33.7039C35.9236 33.6112 35.7511 33.4918 35.5472 33.3507C33.2335 31.7491 26.8793 27.3507 25.5393 27.3507C23.5604 27.3507 20.6442 31.6209 20.6442 33.1832C20.6442 34.1205 22.2064 35.162 24.7061 36.7243C25.1719 37.0468 25.6871 37.394 26.2388 37.7658C27.2907 38.4747 28.4756 39.2732 29.7053 40.1613C30.226 40.682 30.7468 41.2028 30.7468 42.036ZM177.183 90.0495H160.206C157.707 90.0495 155.311 89.7371 155.311 86.7167V76.3016C155.311 76.1123 155.311 75.9291 155.311 75.7516C155.306 72.3155 155.304 71.0378 157.186 69.9484C157.254 69.8977 157.327 69.847 157.402 69.795C157.789 69.5263 158.227 69.2221 158.227 68.6986C158.227 67.9696 157.498 67.6571 156.978 67.553C156.04 67.3447 147.604 66.8239 146.458 66.8239C145.521 66.8239 144.792 67.1364 144.792 68.1779C144.792 68.6145 144.837 69.4597 144.894 70.5058C144.985 72.2043 145.104 74.4324 145.104 76.3016V86.5084C145.104 87.2895 145.078 88.0446 145.052 88.7997C145.026 89.5548 145 90.3099 145 91.091C145 99.4231 149.687 99.6314 158.123 99.6314H178.12C183.432 99.6314 186.869 99.6314 189.681 96.1944C191.764 93.6948 194.264 86.7167 194.264 83.5922C194.264 79.7386 187.181 78.9054 186.348 78.9054C184.608 78.9054 184.477 79.6098 183.979 82.3044L183.953 82.4465C182.703 88.7997 182.39 90.0495 177.183 90.0495ZM204.47 96.9235C206.033 96.9235 212.073 94.8405 212.073 92.8616C212.073 90.6105 207.751 82.3276 206.414 79.7661L206.345 79.6345C204.991 77.0307 201.45 70.4692 199.888 68.1779C199.263 67.3447 198.742 66.8239 197.596 66.8239C196.034 66.8239 190.618 68.9069 190.618 71.0941C190.618 71.9273 191.139 72.7605 191.66 73.3854C195.722 80.0511 199.367 86.925 202.283 94.2156C202.353 94.4005 202.417 94.5778 202.478 94.7468C202.969 96.1004 203.267 96.9235 204.47 96.9235ZM140.522 75.0518C141.147 74.8435 141.876 74.5311 141.876 73.6979C141.876 72.6309 140.25 72.1963 139.101 71.8892C139.016 71.8666 138.934 71.8446 138.855 71.8231C138.571 71.7456 138.049 71.5911 137.413 71.4025C135.485 70.8315 132.504 69.9484 131.877 69.9484C130.732 69.9484 130.419 70.8858 130.107 71.9273C128.649 77.1348 125.003 86.0918 121.879 90.4661C121.254 91.2993 120.317 92.5492 120.317 93.5907C120.317 95.882 125.628 97.5484 127.503 97.5484C128.961 97.5484 129.69 96.7152 130.419 95.5695C133.544 90.4661 137.293 82.5507 139.064 76.8224C139.376 75.6767 139.48 75.3643 140.522 75.0518ZM171.663 63.3869C174.892 63.3869 175.933 63.2828 176.35 62.2413L176.367 62.2005C176.88 60.9689 177.304 59.9499 178.849 59.9499H194.993C195.826 59.9499 196.242 60.3665 196.347 61.0956C196.451 63.3869 197.284 63.3869 201.658 63.3869C201.823 63.3869 201.983 63.3871 202.139 63.3872C205.921 63.3911 207.074 63.3923 207.074 60.9915C207.074 59.5854 207.022 58.1794 206.97 56.7733C206.918 55.3673 206.866 53.9613 206.866 52.5552V22.7681C206.866 21.5704 206.918 20.3987 206.97 19.227C207.022 18.0553 207.074 16.8836 207.074 15.6858C207.074 12.1447 205.095 11.5198 201.971 11.5198C200.773 11.5198 199.601 11.5458 198.43 11.5719C197.258 11.5979 196.086 11.624 194.889 11.624H177.912C176.714 11.624 175.516 11.5979 174.319 11.5719C173.121 11.5458 171.923 11.5198 170.726 11.5198C167.705 11.5198 165.83 12.2489 165.83 15.6858C165.83 16.8836 165.856 18.0553 165.883 19.227C165.909 20.3987 165.935 21.5704 165.935 22.7681V52.5552C165.935 54.9507 165.935 57.4503 165.83 59.9499C165.83 61.5122 165.206 62.2413 163.852 63.0745C163.815 63.095 163.775 63.1172 163.732 63.1409C162.689 63.718 159.998 65.2068 159.998 66.4073C159.998 67.3242 160.805 68.2411 161.425 68.9448C161.509 69.0404 161.59 69.1321 161.664 69.2194C164.789 72.8646 167.393 76.7182 169.996 80.676C170.073 80.7914 170.15 80.9115 170.228 81.0334C170.785 81.9021 171.4 82.8631 172.496 82.8631C174.163 82.8631 179.266 80.0511 179.266 78.0722C179.266 76.4058 172.079 67.1364 170.621 65.4699C170.413 65.1575 170.309 64.9492 170.309 64.5326C170.309 63.8035 170.934 63.3869 171.663 63.3869ZM149.295 42.4282C149.353 42.4698 149.414 42.5133 149.479 42.5568C150.624 44.3273 155.624 50.8888 157.603 50.8888C159.269 50.8888 163.018 46.6186 163.018 44.7439C163.018 43.7702 162.381 43.2517 161.362 42.4223C161.291 42.3646 161.218 42.3053 161.144 42.2443C156.978 38.9115 154.374 36.0994 150.937 31.9334C150.624 31.6209 150.52 31.3085 150.52 30.8919C150.52 30.0587 151.353 29.7462 152.083 29.7462H152.916C154.555 29.7462 156.194 29.812 157.63 29.8696C158.748 29.9146 159.743 29.9545 160.519 29.9545C162.706 29.9545 162.706 28.8088 162.706 25.3719C162.706 21.9349 162.706 20.7892 160.519 20.7892C159.484 20.7892 158.332 20.8359 157.118 20.8851C155.768 20.9398 154.342 20.9975 152.916 20.9975H150.729C148.646 20.9975 147.812 20.1643 147.812 18.0813C147.708 13.0821 147.812 12.2489 149.062 11.5198C149.687 11.2074 150.52 10.7908 150.52 10.1658C150.52 9.25709 149.489 9.14126 148.742 9.05731C148.633 9.04504 148.53 9.03346 148.437 9.02019C146.667 8.81189 140.834 8.29113 139.272 8.29113C138.439 8.29113 137.606 8.49943 137.606 9.54094C137.606 9.74924 137.606 10.0617 137.71 10.3741C138.022 13.2904 138.126 15.2692 138.022 18.0813C138.022 20.1643 137.189 20.9975 135.106 20.9975H131.357C129.827 20.9975 128.298 20.9359 126.903 20.8797C125.732 20.8326 124.656 20.7892 123.754 20.7892C121.56 20.7892 121.562 21.9344 121.566 24.9554C121.566 25.0904 121.566 25.2292 121.566 25.3719C121.566 25.5145 121.566 25.6533 121.566 25.7884C121.562 28.8094 121.56 29.9545 123.754 29.9545C124.464 29.9545 125.401 29.9167 126.477 29.8732C127.925 29.8148 129.623 29.7462 131.357 29.7462H132.502C133.44 29.8504 134.377 30.1628 134.377 31.3085C134.377 31.5557 134.312 31.7377 134.233 31.9577C134.212 32.0158 134.19 32.0765 134.169 32.1417C130.419 39.2239 126.67 44.4315 121.254 50.2639C121.188 50.3428 121.117 50.4249 121.044 50.5102C120.536 51.1008 119.9 51.8403 119.9 52.6594C119.9 54.5341 124.066 58.4918 125.837 58.4918C126.878 58.4918 127.503 57.8669 128.128 57.1379C131.357 53.4926 134.273 49.1183 136.668 44.9522C136.772 44.7439 136.981 44.5356 137.293 44.5356C137.814 44.5356 137.918 44.9522 138.022 45.3688V50.2639C138.022 52.1258 137.945 54.0133 137.868 55.9138C137.789 57.8405 137.71 59.7805 137.71 61.7205C137.71 64.2201 138.855 64.3243 143.021 64.3243C146.979 64.3243 148.125 64.2201 148.125 61.7205C148.125 59.7805 148.046 57.8405 147.967 55.9138C147.889 54.0133 147.812 52.1258 147.812 50.2639V43.1817C147.916 42.6609 148.021 42.1402 148.646 42.1402C148.893 42.1402 149.075 42.2706 149.295 42.4282ZM272.064 27.4549V19.5394C272.064 16.4149 272.168 15.0609 273.314 14.3319C273.44 14.2566 273.56 14.1859 273.676 14.1183C274.521 13.6242 275.085 13.2942 275.085 12.5613C275.085 11.624 274.251 11.2074 273.522 11.1032C272.168 10.8949 264.253 10.3741 262.899 10.3741C261.858 10.3741 260.504 10.3741 260.504 12.1447C260.504 12.353 260.53 12.5353 260.556 12.7175C260.582 12.8998 260.608 13.0821 260.608 13.2904C260.955 16.4134 260.94 19.3919 260.926 22.4065C260.923 23.0112 260.92 23.6172 260.92 24.2262V27.4549C260.92 29.4338 260.087 30.3711 258.004 30.3711H244.777C242.746 30.3711 240.715 30.293 238.684 30.2149C236.653 30.1368 234.622 30.0587 232.591 30.0587C230.086 30.0587 230.088 31.3118 230.091 34.9307C230.091 35.0736 230.092 35.2201 230.092 35.3703C230.092 35.5205 230.091 35.667 230.091 35.81C230.087 39.4366 230.086 40.7862 232.591 40.7862C234.622 40.7862 236.653 40.7081 238.684 40.63C240.715 40.5519 242.746 40.4737 244.777 40.4737H257.691C259.566 40.4737 260.504 41.3069 260.399 43.2858C259.983 49.5349 259.15 54.6383 256.858 60.5749C252.067 73.2812 242.173 83.2797 230.508 89.7371C230.331 89.8338 230.124 89.938 229.9 90.0505C228.678 90.6646 226.967 91.525 226.967 92.7575C226.967 95.4654 231.445 100.465 233.945 100.465C235.82 100.465 244.464 94.0073 246.443 92.445C263.836 78.6971 269.148 64.9492 271.439 43.2858C271.648 41.2028 272.585 40.4737 274.668 40.4737H293.207C293.361 40.4737 293.512 40.4737 293.659 40.4736C298.996 40.4709 300.081 40.4704 300.081 44.119C300.081 52.6594 299.143 75.5726 297.165 83.1756C295.707 88.6956 292.894 89.3205 287.791 89.3205C286.125 89.3205 284.518 89.1724 283.018 89.0342C281.705 88.9132 280.473 88.7997 279.355 88.7997C277.064 88.7997 276.959 90.362 276.959 92.5492C276.959 100.575 278.347 100.574 286.341 100.569C286.542 100.569 286.748 100.569 286.958 100.569C295.082 100.569 302.997 99.8397 306.226 91.091C310.288 80.1552 310.704 49.1183 310.704 36.3077C310.704 31.4126 308.725 30.0587 303.934 30.0587C302.008 30.0587 300.081 30.1368 298.154 30.2149C296.227 30.293 294.301 30.3711 292.374 30.3711H274.981C272.898 30.3711 272.064 29.4338 272.064 27.4549ZM348.39 15.5501C345.854 15.8602 343.72 16.1212 343.72 17.3522C343.72 17.63 343.813 17.9077 343.905 18.1854C343.952 18.3243 343.998 18.4632 344.033 18.6021C344.71 20.3817 345.182 22.2302 345.67 24.1477C345.782 24.5869 345.895 25.0296 346.011 25.476C347.053 29.7462 349.969 40.7862 351.219 44.5356C351.531 45.1605 351.636 45.5771 351.636 46.4103C351.636 47.6601 350.906 48.3892 349.865 49.1183C341.22 54.7424 331.847 62.1371 331.847 73.4896C331.847 80.3635 335.596 86.196 341.429 89.5288C348.303 93.5907 355.073 94.0073 362.78 94.0073C367.779 94.0073 387.463 93.3824 391.421 92.3409C393.504 91.8201 393.608 90.6744 393.608 87.9665V86.7167C393.608 84.5296 393.504 80.2594 392.046 80.2594C391.734 80.2594 391.421 80.2594 391.109 80.3635C382.673 81.9258 372.674 83.0714 363.925 83.0714C359.343 83.0714 354.448 82.759 350.073 81.1967C346.845 80.0511 343.199 77.4473 343.199 73.6979C343.199 69.7401 345.595 66.9281 348.303 64.3243C352.677 60.1582 361.53 55.0549 367.05 52.0345C374.132 48.1809 385.276 42.5568 392.775 40.0571C392.85 40.029 392.928 40.0008 393.007 39.9722C393.805 39.6825 394.754 39.3384 394.754 38.3907C394.754 36.9452 392.604 33.4525 391.756 32.0731L391.734 32.0375C391.696 31.9744 391.654 31.9037 391.608 31.8265C390.896 30.629 389.256 27.8715 387.984 27.8715C387.231 27.8715 386.477 28.2753 385.778 28.6501C385.607 28.7415 385.44 28.8313 385.276 28.913C382.568 30.6836 365.904 40.4737 364.029 40.4737C362.345 40.4737 361.98 38.8705 361.68 37.5486C361.664 37.4813 361.649 37.4148 361.634 37.3492C360.176 31.2043 359.03 24.9553 358.405 18.7062C358.385 18.4686 358.368 18.2392 358.352 18.0188C358.208 16.0162 358.116 14.7485 355.489 14.7485C354.156 14.7485 352.756 14.9484 351.45 15.1351C351.123 15.1817 350.802 15.2276 350.49 15.2692C349.783 15.3797 349.072 15.4667 348.39 15.5501ZM424.02 40.3696C425.687 40.3696 426.208 41.0986 426.312 42.5568C426.318 42.7159 426.323 42.8704 426.328 43.0202C426.412 45.5177 426.453 46.7228 428.811 46.7228C430.751 46.7228 432.665 46.6436 434.565 46.565C436.44 46.4874 438.302 46.4103 440.164 46.4103H453.287C454.953 46.4103 455.682 47.1394 455.682 48.91V49.9515C455.682 51.6179 454.953 52.3469 453.287 52.3469H443.601C441.674 52.3469 439.747 52.2949 437.82 52.2428C435.894 52.1907 433.967 52.1386 432.04 52.1386C429.639 52.1386 429.64 53.2919 429.644 56.3368C429.644 56.4618 429.645 56.5899 429.645 56.7213C429.645 56.852 429.644 56.9792 429.644 57.103C429.641 60.2359 429.639 61.1998 432.144 61.1998C434.071 61.1998 435.972 61.1477 437.872 61.0956C439.773 61.0435 441.674 60.9915 443.601 60.9915H452.245C453.599 60.9915 454.745 61.6164 454.745 63.0745V63.8035C454.693 63.9597 454.667 64.0899 454.641 64.2201C454.615 64.3503 454.589 64.4805 454.537 64.6367C454.12 66.4073 453.287 66.9281 451.516 66.9281H429.228C427.262 66.9281 425.27 66.8766 423.266 66.8249C421.235 66.7725 419.191 66.7197 417.146 66.7197C414.751 66.7197 414.751 67.8654 414.751 71.3024C414.751 74.6352 414.751 75.885 417.146 75.885C419.191 75.885 421.235 75.8323 423.266 75.7799C425.27 75.7281 427.262 75.6767 429.228 75.6767H447.454C448.183 75.6767 449.017 75.9892 449.017 76.9265C449.017 77.3431 448.912 77.6556 448.704 77.8639C442.351 85.5711 430.269 90.362 420.583 91.5077C420.262 91.5462 419.945 91.5784 419.637 91.6098C417.449 91.8325 415.688 92.0116 415.688 94.1114C415.688 95.882 417.251 101.714 420.375 101.714C421.417 101.714 424.02 101.298 425.166 101.09C437.248 98.5899 452.349 91.5076 459.328 80.8843C459.744 80.3635 460.161 79.9469 460.89 79.9469C461.515 79.9469 461.931 80.2594 462.348 80.676C467.972 88.3831 475.575 93.6948 484.22 97.3401C487.448 98.6941 497.447 102.235 500.571 102.235C503.696 102.235 505.779 96.8193 505.779 94.4239C505.779 92.5894 504.582 92.3506 502.579 91.9508L502.446 91.9243C492.239 90.0495 479.949 85.3627 472.555 77.7597C472.519 77.7061 472.483 77.6556 472.449 77.6065C472.281 77.3697 472.138 77.1675 472.138 76.8224C472.138 75.9892 472.971 75.6767 473.596 75.6767H492.343C494.387 75.6767 496.432 75.7295 498.462 75.7819C500.467 75.8336 502.459 75.885 504.425 75.885C506.826 75.885 506.824 74.828 506.821 71.6988C506.82 71.5702 506.82 71.4381 506.82 71.3024C506.82 71.1667 506.82 71.0346 506.821 70.906C506.824 67.7767 506.826 66.7197 504.425 66.7197C502.459 66.7197 500.467 66.7711 498.462 66.8229C496.432 66.8753 494.387 66.9281 492.343 66.9281H467.764C466.41 66.9281 465.368 66.3031 465.368 64.7409V64.116C465.368 64.0223 465.389 63.9077 465.412 63.7814C465.441 63.6268 465.472 63.4548 465.472 63.2828C465.785 61.6164 466.618 60.9915 468.284 60.9915H478.283C480.21 60.9915 482.111 61.0435 484.011 61.0956C485.912 61.1477 487.813 61.1998 489.74 61.1998C492.244 61.1998 492.243 60.2359 492.24 57.103C492.239 56.9792 492.239 56.852 492.239 56.7213C492.239 56.5899 492.239 56.4618 492.24 56.3368C492.243 53.2919 492.245 52.1386 489.844 52.1386C487.917 52.1386 485.99 52.1907 484.063 52.2428C482.137 52.2949 480.21 52.3469 478.283 52.3469H468.597C466.931 52.3469 466.201 51.6179 466.201 49.9515V48.91C466.201 47.1394 466.931 46.4103 468.597 46.4103H481.512C483.386 46.4103 485.287 46.4884 487.188 46.5666C489.089 46.6447 490.989 46.7228 492.864 46.7228C495.233 46.7228 495.274 45.516 495.341 43.5728C495.347 43.3801 495.354 43.1801 495.364 42.9734C495.468 41.5153 496.093 40.8903 497.655 40.8903H499.53C503.175 40.8903 504.529 40.682 504.529 38.3907C504.529 37.7263 504.454 36.9364 504.377 36.132C504.298 35.2971 504.217 34.4465 504.217 33.7039V29.9545C504.217 28.5384 504.289 27.1223 504.349 25.9643C504.39 25.1636 504.425 24.4863 504.425 24.0179C504.425 20.3726 501.405 19.6436 498.384 19.6436C496.522 19.6436 494.635 19.6949 492.734 19.7467C490.807 19.7991 488.867 19.8519 486.928 19.8519H469.43C467.555 19.8519 466.514 19.0187 466.514 17.0398C466.41 14.8526 466.514 13.3945 467.764 12.4572C467.937 12.3087 468.098 12.1838 468.244 12.0712C468.711 11.7098 469.014 11.4755 469.014 10.9991C469.014 9.89941 467.482 9.76729 466.475 9.68047C466.338 9.66861 466.21 9.6576 466.097 9.64509C463.806 9.43679 459.119 9.02019 456.932 9.02019C455.891 9.02019 454.953 9.12434 454.953 10.3741C454.953 10.6866 454.953 10.9991 455.057 11.3115C455.37 13.0821 455.474 15.2692 455.474 17.0398C455.266 19.0187 454.537 19.8519 452.558 19.8519H434.956C432.929 19.8519 431.024 19.791 429.274 19.7351C427.786 19.6875 426.41 19.6436 425.166 19.6436C420.375 19.6436 417.563 20.2685 417.563 24.0179C417.563 24.5488 417.582 25.2865 417.603 26.1351C417.633 27.2842 417.667 28.6366 417.667 29.9545V33.1832C417.667 33.9643 417.615 34.7715 417.563 35.5787C417.511 36.3858 417.459 37.193 417.459 37.9741C417.459 40.3754 418.997 40.3737 422.626 40.3699C422.775 40.3697 422.927 40.3696 423.083 40.3696H424.02ZM573.828 77.2521C574.112 76.5872 574.241 76.2839 575.039 75.885C575.079 75.869 575.123 75.8518 575.171 75.8332C575.745 75.6102 576.81 75.196 576.81 74.4269C576.81 73.9062 576.393 73.4896 575.976 73.2813C574.353 72.5509 572.667 71.8837 571.016 71.2306C570.548 71.0454 570.083 70.8615 569.623 70.6775L569.4 70.5878C568.408 70.1898 567.288 69.7401 566.707 69.7401C565.732 69.7401 565.487 70.7436 565.289 71.5553C565.276 71.6109 565.262 71.6656 565.249 71.719C562.853 81.6133 553.063 89.1122 543.481 91.6118C542.809 91.7798 542.213 91.9232 541.686 92.0502C538.616 92.7888 537.857 92.9713 537.857 94.2156C537.857 96.5069 540.253 101.923 542.961 101.923C546.293 101.923 554.209 98.5899 557.333 96.8193C565.041 92.3409 570.769 85.7794 573.789 77.3431L573.828 77.2521ZM581.08 71.719V86.6126C581.08 87.4458 581.054 88.279 581.028 89.1122C581.002 89.9454 580.976 90.7786 580.976 91.6118C580.976 98.6941 583.579 100.152 590.349 100.152H600.244C603.993 100.152 606.597 99.6314 608.68 96.2986C610.346 93.6948 612.117 86.7167 612.117 83.6963C612.117 80.4677 607.222 79.5303 604.618 79.5303C603.056 79.5303 602.535 80.1552 602.222 82.1341C601.285 88.7997 600.764 89.8412 597.952 89.8412H594.724C592.432 89.8412 591.495 89.5288 591.495 87.0292V71.719C591.495 69.7401 592.328 68.8028 594.307 68.8028H594.828C595.973 68.8028 597.145 68.8548 598.317 68.9069C599.489 68.959 600.66 69.0111 601.806 69.0111C605.243 69.0111 606.493 67.7613 606.493 64.3243C606.493 63.0745 606.441 61.8247 606.389 60.5749C606.336 59.325 606.284 58.0752 606.284 56.8254V23.7055C606.284 22.4556 606.336 21.2058 606.389 19.956C606.441 18.7062 606.493 17.4564 606.493 16.2066C606.493 12.7696 605.243 11.5198 601.806 11.5198C600.595 11.5198 599.41 11.573 598.239 11.6257C597.094 11.6772 595.961 11.7281 594.828 11.7281H569.311C568.165 11.7281 566.993 11.676 565.822 11.624C564.65 11.5719 563.478 11.5198 562.333 11.5198C558.896 11.5198 557.646 12.7696 557.646 16.2066C557.646 17.4564 557.698 18.7062 557.75 19.956C557.802 21.2058 557.854 22.4556 557.854 23.7055V56.8254C557.854 58.0752 557.802 59.325 557.75 60.5749C557.698 61.8247 557.646 63.0745 557.646 64.3243C557.646 67.8654 559.104 69.0111 562.437 69.0111C563.583 69.0111 564.728 68.959 565.874 68.9069C567.019 68.8548 568.165 68.8028 569.311 68.8028H578.164C580.143 68.8028 581.08 69.7401 581.08 71.719ZM542.127 38.1824V27.559C542.127 25.5802 542.857 24.8511 544.94 24.747C545.92 24.747 547.469 24.8039 548.948 24.8582C550.298 24.9078 551.589 24.9553 552.334 24.9553C554.527 24.9553 554.526 23.9059 554.522 20.3463C554.522 20.1866 554.521 20.0218 554.521 19.8519C554.521 19.6912 554.522 19.535 554.522 19.3834C554.526 15.9976 554.527 14.8526 552.334 14.8526C551.235 14.8526 549.939 14.9184 548.536 14.9896C546.88 15.0736 545.077 15.1651 543.273 15.1651H530.879C529.093 15.1651 527.307 15.0754 525.649 14.9921C524.214 14.9199 522.874 14.8526 521.714 14.8526C519.52 14.8526 519.522 16.2844 519.526 19.5135C519.526 19.6574 519.527 19.8049 519.527 19.956C519.527 20.1026 519.526 20.2458 519.526 20.3856C519.522 23.5234 519.52 24.9553 521.714 24.9553C522.471 24.9553 523.789 24.9064 525.149 24.856C526.597 24.8023 528.091 24.747 529.004 24.747C531.087 24.8511 531.817 25.6843 531.817 27.559V38.1824C531.817 40.1613 530.983 40.9945 529.004 41.0986C528.067 41.0986 527.13 41.0466 526.192 40.9945C525.255 40.9424 524.318 40.8903 523.38 40.8903C521.187 40.8903 521.189 42.1309 521.193 45.4341C521.193 45.5818 521.193 45.7336 521.193 45.8896C521.193 46.0411 521.193 46.1885 521.193 46.3321C521.189 49.5441 521.187 50.7847 523.38 50.7847C523.461 50.7847 524.245 50.7534 525.206 50.7151C526.725 50.6545 528.685 50.5764 529.004 50.5764C531.087 50.6805 531.817 51.5137 531.817 53.4926V67.553C531.817 69.636 531.192 70.5733 529.213 71.0941C526.962 71.6944 525.197 71.9703 523.763 72.1945C523.207 72.2815 522.7 72.3607 522.235 72.448L521.966 72.4984C518.862 73.0795 518.173 73.2086 518.173 74.3228C518.173 75.4684 520.36 81.7175 520.881 83.1756L520.934 83.337C521.417 84.7881 521.643 85.4669 522.547 85.4669C523.276 85.4669 523.693 84.842 524.005 84.2171C524.422 82.8631 524.526 82.6548 527.13 81.9258C533.9 80.0511 546.085 76.5099 552.334 73.9062C554.417 73.073 554.73 72.6563 554.73 69.636C554.73 68.0737 554.73 64.4284 552.543 64.4284C551.814 64.4284 545.981 66.5114 544.835 66.9281C544.679 66.9281 544.523 66.9541 544.367 66.9801C544.21 67.0062 544.054 67.0322 543.898 67.0322C542.544 67.0322 542.127 65.9907 542.127 64.7409V53.4926C542.127 51.5137 542.857 50.6805 544.835 50.5764C545.079 50.5764 546.753 50.6479 548.139 50.7071C549.12 50.7489 549.957 50.7847 550.043 50.7847C552.132 50.7847 552.131 49.549 552.126 46.3513C552.126 46.2017 552.126 46.0478 552.126 45.8896C552.126 45.7289 552.126 45.5727 552.126 45.4211C552.13 42.0353 552.132 40.8903 549.939 40.8903C549.858 40.8903 549.152 40.9216 548.287 40.9599C546.919 41.0205 545.154 41.0986 544.835 41.0986C542.857 40.9945 542.127 40.1613 542.127 38.1824ZM670.962 27.4549V19.5394C670.962 16.4149 671.066 15.0609 672.212 14.3319C672.337 14.2566 672.458 14.1859 672.574 14.1183C673.418 13.6242 673.982 13.2942 673.982 12.5613C673.982 11.624 673.149 11.2074 672.42 11.1032C671.066 10.8949 663.151 10.3741 661.797 10.3741C660.755 10.3741 659.401 10.3741 659.401 12.1447C659.401 12.353 659.427 12.5353 659.453 12.7175C659.479 12.8998 659.505 13.0821 659.505 13.2904C659.852 16.4135 659.838 19.3922 659.824 22.4069C659.821 23.0114 659.818 23.6173 659.818 24.2262V27.4549C659.818 29.4338 658.985 30.3711 656.902 30.3711H643.675C641.644 30.3711 639.613 30.293 637.582 30.2149C635.551 30.1368 633.52 30.0587 631.489 30.0587C628.984 30.0587 628.985 31.3117 628.989 34.9306C628.989 35.0735 628.989 35.22 628.989 35.3703C628.989 35.5205 628.989 35.6671 628.989 35.8101C628.985 39.4366 628.984 40.7862 631.489 40.7862C633.52 40.7862 635.551 40.7081 637.582 40.63C639.613 40.5519 641.644 40.4737 643.675 40.4737H656.589C658.464 40.4737 659.401 41.3069 659.297 43.2858C658.88 49.5349 658.047 54.6383 655.756 60.5749C650.965 73.2812 641.071 83.2797 629.406 89.7371C629.229 89.8338 629.021 89.938 628.798 90.0505C627.576 90.6646 625.865 91.525 625.865 92.7575C625.865 95.4654 630.343 100.465 632.843 100.465C634.718 100.465 643.362 94.0073 645.341 92.445C662.734 78.6971 668.046 64.9492 670.337 43.2858C670.545 41.2028 671.483 40.4737 673.566 40.4737L692.557 40.4736C697.894 40.4709 698.979 40.4704 698.979 44.119C698.979 52.6594 698.041 75.5726 696.062 83.1756C694.604 88.6956 691.792 89.3205 686.689 89.3205C685.023 89.3205 683.416 89.1724 681.916 89.0342C680.603 88.9132 679.371 88.7997 678.253 88.7997C675.961 88.7997 675.857 90.362 675.857 92.5492C675.857 100.575 677.245 100.574 685.239 100.569C685.44 100.569 685.646 100.569 685.856 100.569C693.979 100.569 701.895 99.8397 705.124 91.091C709.185 80.1552 709.602 49.1183 709.602 36.3077C709.602 31.4126 707.623 30.0587 702.832 30.0587C700.905 30.0587 698.979 30.1368 697.052 30.2149C695.125 30.293 693.198 30.3711 691.272 30.3711H673.878C671.795 30.3711 670.962 29.4338 670.962 27.4549ZM730.605 27.6553C727.273 27.8408 726.162 27.9027 726.162 30.267C726.162 32.0375 726.891 35.9953 727.308 37.7658C727.326 37.8342 727.346 37.9066 727.366 37.9824C727.686 39.1767 728.228 41.2028 729.599 41.2028C730.12 41.2028 730.641 41.0986 731.161 40.9945C737.827 39.2239 747.2 37.7658 754.179 36.7243C754.614 36.6807 755.706 36.5096 756.882 36.3252C758.518 36.0688 760.316 35.787 760.74 35.787C761.469 35.787 762.302 36.0994 762.302 37.0368C762.302 37.5575 761.677 38.2866 760.532 39.5364C753.45 47.3477 749.075 58.8043 749.075 69.4277C749.075 89.7371 764.281 95.3612 781.987 95.3612C783.757 95.3612 784.591 95.1529 785.32 93.5907C786.153 91.716 786.882 87.1333 786.882 85.0503C786.882 83.3839 786.049 83.2797 784.486 83.2797C783.976 83.2797 783.237 83.3004 782.419 83.3234C781.401 83.3519 780.26 83.3839 779.279 83.3839C768.656 83.3839 760.948 80.4677 760.948 68.3862C760.948 62.033 762.927 55.5756 765.948 50.0556C770.01 42.5568 775.634 37.4534 783.653 34.5371C789.337 32.5427 794.449 32.4579 800.176 32.3629C800.43 32.3586 800.685 32.3544 800.942 32.35C801.207 32.3389 801.468 32.3314 801.723 32.3241C803.88 32.2619 805.629 32.2115 805.629 30.1628C805.629 28.3922 805.108 24.3304 804.692 22.5598L804.685 22.519C804.479 21.2807 804.258 19.956 802.713 19.956C802.296 19.956 801.775 19.956 801.359 20.0602C793.548 21.31 785.632 22.3515 777.717 23.2889C762.615 25.0594 747.409 26.6217 732.203 27.559C731.621 27.5987 731.09 27.6283 730.605 27.6553ZM813.961 47.2435C813.961 45.9937 805.942 36.3077 804.9 36.3077C803.65 36.3077 799.588 39.0156 799.588 40.2654C799.588 40.682 800.005 41.3069 800.317 41.6194C802.4 43.9107 805.421 47.7643 807.087 50.2639C807.169 50.3667 807.252 50.4817 807.336 50.6001C807.68 51.0812 808.064 51.6179 808.649 51.6179C809.899 51.6179 813.961 48.7017 813.961 47.2435ZM801.359 52.9718C801.359 51.722 793.443 42.036 792.298 42.036C791.152 42.036 786.986 44.6398 786.986 45.8896C786.986 46.4103 787.611 47.0352 787.923 47.3477C790.215 50.1598 792.506 53.076 794.589 56.0964C794.678 56.207 794.761 56.3269 794.845 56.4473C795.157 56.8939 795.473 57.3462 796.047 57.3462C797.193 57.3462 801.359 54.5341 801.359 52.9718Z" fill="#1C1C1C"/>
<path d="M87.6254 337.871C87.6254 334.225 93.9786 333.705 96.5824 333.705C96.646 333.705 96.713 333.704 96.7831 333.704C98.5454 333.7 102.206 333.692 102.206 335.996C102.206 340.683 98.9778 341.62 94.3952 341.62C92.1039 341.62 87.6254 340.891 87.6254 337.871Z" fill="#1C1C1C"/>
<path d="M165.426 301.73C165.426 298.293 176.154 294.856 178.653 294.856C179.591 294.856 180.111 295.377 180.111 296.314C180.111 299.231 174.8 316.416 172.092 316.416C171.17 316.416 170.738 315.437 170.001 313.767C169.905 313.551 169.804 313.322 169.696 313.083C168.967 311.416 165.426 303.084 165.426 301.73Z" fill="#1C1C1C"/>
<path d="M164.359 325.358C164.538 325.794 164.697 326.181 164.697 326.727C164.697 329.122 158.969 332.871 155.948 332.871C152.407 332.871 151.991 327.976 151.991 325.268C151.991 318.603 155.219 310.896 156.886 310.896C157.615 310.896 158.135 311.833 158.344 312.354C160.219 316.728 162.197 320.894 164.28 325.164C164.307 325.23 164.333 325.295 164.359 325.358Z" fill="#1C1C1C"/>
<path d="M444.213 332.455C447.859 332.455 450.671 335.371 450.671 338.6C450.671 340.266 449.838 342.141 447.859 342.141C444.734 342.141 439.735 340.37 439.735 336.621C439.735 334.121 441.922 332.455 444.213 332.455Z" fill="#1C1C1C"/>
<path d="M651.89 295.481V294.856C651.89 293.398 652.932 292.357 654.39 292.357H664.909C666.367 292.357 667.409 293.398 667.409 294.856V295.481C667.409 296.939 666.367 297.981 664.909 297.981H654.39C652.932 297.981 651.89 296.939 651.89 295.481Z" fill="#1C1C1C"/>
<path d="M628.04 292.357H638.559C640.017 292.357 641.059 293.398 641.059 294.856V295.481C641.059 296.939 640.017 297.981 638.559 297.981H628.04C626.582 297.981 625.54 296.939 625.54 295.481V294.856C625.54 293.398 626.582 292.357 628.04 292.357Z" fill="#1C1C1C"/>
<path d="M653.869 327.456H668.034C669.179 327.56 669.908 328.289 670.012 329.434V329.955C670.012 331.205 669.179 331.934 668.034 331.934H653.869C652.723 331.934 651.89 331.205 651.89 329.955V329.434C651.994 328.289 652.723 327.56 653.869 327.456Z" fill="#1C1C1C"/>
<path d="M651.89 318.811V318.394C651.994 317.249 652.723 316.52 653.869 316.416H668.034C669.179 316.52 669.908 317.249 670.012 318.394V318.811C670.012 320.061 669.179 320.79 668.034 320.79H653.869C652.723 320.79 651.89 320.061 651.89 318.811Z" fill="#1C1C1C"/>
<path fill-rule="evenodd" clip-rule="evenodd" d="M789.992 256.03H32.521V364.809H789.992V256.03ZM122.933 281.317C122.933 279.859 122.203 272.672 120.329 272.672C120.12 272.672 119.391 272.776 119.183 272.881C109.914 275.693 101.79 276.526 92.208 276.526C90.125 276.526 85.5424 276.422 83.6676 276.213C83.251 276.109 82.6261 276.109 82.3137 276.109C80.8556 276.109 80.3348 276.942 80.3348 278.192C80.3348 279.13 80.7514 284.441 80.9597 285.274C81.3763 287.045 82.522 287.149 84.3967 287.149C87.0884 287.149 91.6063 286.801 94.8039 286.555C96.5553 286.42 97.9106 286.316 98.3529 286.316C100.228 286.316 100.54 286.837 100.54 296.106C100.54 299.335 99.1861 299.647 83.8759 299.647C82.6364 299.647 81.3968 299.592 80.2005 299.538C79.085 299.487 78.0071 299.439 77.002 299.439C75.2314 299.439 74.919 300.168 74.919 301.834C74.919 302.668 75.4397 308.917 75.7522 309.542C76.2049 310.447 77.917 310.408 79.041 310.382C79.2099 310.378 79.3655 310.375 79.5016 310.375C84.3967 310.375 93.3537 309.958 98.2488 309.438C98.4208 309.438 98.5928 309.406 98.7474 309.378C98.8737 309.354 98.9883 309.333 99.082 309.333C100.748 309.333 101.165 310.583 101.269 311.937C101.308 312.751 101.404 314.201 101.51 315.792C101.689 318.473 101.894 321.553 101.894 322.665C101.894 323.914 100.957 324.956 99.6027 324.956C99.3606 324.956 98.9622 324.925 98.474 324.886C97.7022 324.826 96.7061 324.748 95.7491 324.748C87.6254 324.748 77.9393 328.393 77.9393 337.975C77.9393 347.14 87.1046 350.473 94.8118 350.473C100.54 350.473 108.351 348.911 110.539 342.87C110.645 342.595 110.741 342.336 110.831 342.094C111.351 340.684 111.659 339.85 112.726 339.85C114.6 339.85 118.871 344.12 120.225 345.474C120.329 345.578 120.433 345.708 120.537 345.838C120.641 345.968 120.745 346.099 120.849 346.203C121.891 347.348 122.62 348.077 123.557 348.077C125.953 348.077 129.911 342.453 129.911 340.474C129.911 337.35 117.621 330.372 114.809 329.018C112.205 327.872 111.788 327.456 111.684 324.539C111.637 322.973 111.481 320.456 111.326 317.942C111.14 314.94 110.955 311.944 110.955 310.583C110.955 307.718 113.416 307.395 117.028 306.922C117.486 306.862 117.962 306.8 118.454 306.73C127.203 305.376 129.286 304.855 129.286 302.772C129.286 301.626 128.661 298.293 128.348 297.148C127.932 295.481 127.515 294.023 126.369 294.023C125.464 294.023 124.169 294.509 123.331 294.824L123.245 294.856C121.37 295.481 113.767 297.564 112.205 297.564C110.434 297.564 110.226 295.898 110.226 292.044V288.503C110.226 285.899 111.163 284.962 113.767 284.65C120.85 283.816 122.933 283.4 122.933 281.317ZM69.5765 273.776C69.1842 273.6 68.8285 273.44 68.5658 273.297C66.1703 272.047 61.9001 270.068 60.9628 270.068C59.9213 270.068 59.713 271.318 59.6088 272.047C59.1401 274.547 58.4957 277.047 57.8513 279.546C57.6364 280.379 57.4216 281.213 57.2133 282.046C54.0888 294.023 52.1099 304.022 52.1099 316.52C52.1099 327.247 53.6722 339.433 57.9424 349.327C57.9901 349.439 58.0384 349.554 58.0878 349.671C58.6847 351.091 59.4315 352.868 61.0669 352.868C62.4008 352.868 64.3411 352.06 65.5934 351.538L65.6495 351.514C65.7331 351.475 65.816 351.437 65.8982 351.399C67.3527 350.726 68.5658 350.164 68.5658 348.39C68.5658 347.841 68.518 347.268 68.4681 346.671C68.414 346.023 68.3575 345.346 68.3575 344.64C68.3575 339.433 70.6488 333.08 72.5235 328.289C72.9401 327.351 74.0858 324.539 74.0858 323.81C74.0858 322.456 70.6488 320.373 69.6073 320.373C68.7375 320.373 68.2264 321.539 67.8244 322.456C67.7932 322.527 67.7626 322.597 67.7326 322.665C67.4201 323.498 67.1077 324.227 66.7952 324.852C65.962 326.831 65.4412 327.976 64.608 327.976C63.9831 327.976 63.6707 327.56 63.5665 327.039C62.8375 324.331 62.525 319.436 62.525 316.52C62.525 305.896 65.0246 291.107 68.7741 281.108C69.7114 278.713 70.128 278.296 71.1695 277.671C71.2334 277.633 71.3036 277.593 71.3775 277.551C71.9062 277.251 72.6277 276.84 72.6277 276.109C72.6277 275.146 70.8954 274.368 69.5765 273.776ZM193.963 271.422C192.401 270.798 185.111 269.027 183.652 269.027C182.403 269.027 182.194 269.86 182.194 270.902C182.194 271.618 182.219 272.36 182.245 273.114C182.272 273.895 182.298 274.69 182.298 275.484C182.298 283.4 182.09 284.025 178.549 284.545C173.342 285.379 169.384 286.733 164.697 289.128C164.072 289.441 163.655 289.649 162.926 289.649C161.781 289.649 161.364 288.92 161.052 287.982C160.427 285.587 159.594 281.629 159.177 279.13C159.161 279.026 159.146 278.92 159.13 278.814C158.944 277.53 158.737 276.109 157.198 276.109C155.844 276.109 150.532 277.671 148.97 278.192C148.137 278.401 147.304 278.921 147.304 279.859C147.304 280.271 147.435 280.749 147.541 281.137C147.568 281.239 147.595 281.334 147.616 281.421C148.311 283.556 148.936 285.691 149.556 287.815C150.238 290.146 150.915 292.463 151.678 294.752C151.991 295.585 152.303 296.419 152.303 297.252C152.303 298.293 151.886 298.918 151.157 299.647C144.7 307.042 141.471 315.478 141.471 325.373C141.471 333.392 144.7 343.495 154.386 343.495C163.655 343.495 172.092 336.308 177.403 329.226C184.069 320.373 188.756 308.5 190.735 297.564C190.943 296.419 191.568 295.065 193.026 295.065C195.942 295.065 209.586 299.96 209.586 314.124C209.586 328.185 197.192 337.037 185.111 340.995C184.924 341.053 184.74 341.109 184.558 341.164C183.115 341.597 181.882 341.968 181.882 343.078C181.882 345.161 186.048 351.514 188.443 351.514C189.86 351.514 191.876 350.573 193.249 349.931C193.39 349.865 193.525 349.802 193.651 349.744C208.545 342.662 220.522 331.934 220.522 314.333C220.522 299.231 210.836 289.024 196.567 285.379C196.384 285.326 196.193 285.277 195.999 285.228C194.644 284.88 193.13 284.492 193.13 282.671C193.13 282.567 193.156 282.384 193.182 282.202C193.208 282.02 193.234 281.837 193.234 281.733C193.279 281.363 193.317 281.008 193.354 280.664C193.576 278.588 193.754 276.929 195.005 274.964C195.091 274.792 195.185 274.635 195.276 274.484C195.515 274.086 195.734 273.721 195.734 273.193C195.734 272.179 194.747 271.758 194.023 271.448L193.963 271.422ZM255.204 288.607C253.433 287.982 246.143 285.691 244.581 285.691C242.914 285.691 242.81 287.253 242.81 290.274C242.81 290.626 242.786 290.978 242.761 291.343C242.734 291.732 242.706 292.135 242.706 292.565C242.394 300.168 241.56 307.771 240.206 315.27C239.581 318.707 238.748 322.144 237.811 325.477C237.718 325.785 237.589 326.139 237.454 326.512C237.131 327.398 236.769 328.389 236.769 329.122C236.769 332.142 243.747 333.184 244.685 333.184C246.068 333.184 246.889 332.153 247.681 331.157C247.724 331.104 247.767 331.05 247.809 330.997C254.371 322.769 265.411 313.604 276.347 313.604C283.012 313.604 288.845 317.457 288.845 324.643C288.845 333.496 281.138 336.725 273.743 338.6C269.369 339.745 264.369 340.474 259.891 340.683C258.537 340.787 257.287 340.891 257.287 342.557C257.287 344.328 258.329 347.765 259.058 349.327C259.995 351.306 260.62 352.243 262.911 352.243C266.14 352.243 273.222 350.369 276.451 349.431C289.053 345.682 300.093 339.433 300.093 324.643C300.093 311.521 290.199 302.98 277.388 302.98C267.494 302.98 261.245 307.146 253.538 312.562C253.121 312.874 252.704 313.187 252.184 313.187C251.455 313.187 251.142 312.562 251.142 311.937C251.142 311.46 251.264 310.8 251.368 310.236C251.4 310.062 251.43 309.897 251.455 309.75C252.14 306.596 252.645 303.397 253.148 300.212C253.409 298.559 253.67 296.91 253.954 295.273C253.976 295.163 253.997 295.056 254.018 294.953C254.386 293.091 254.563 292.198 256.141 291.211C256.558 291.003 257.079 290.69 257.079 290.065C257.079 289.353 256.241 289.021 255.542 288.745C255.424 288.698 255.31 288.653 255.204 288.607ZM257.079 266.111C254.579 266.111 251.246 272.36 251.246 273.714C251.246 274.667 252.184 275.188 253.099 275.696C253.283 275.798 253.467 275.9 253.642 276.005C258.12 278.505 262.807 281.525 266.765 284.858C266.958 285.003 267.18 285.193 267.42 285.399C268.215 286.081 269.218 286.941 270.098 286.941C272.285 286.941 276.555 280.588 276.555 278.713C276.555 277.124 271.689 274.277 269.562 273.032C269.319 272.89 269.112 272.768 268.952 272.672C268.698 272.517 268.324 272.284 267.863 271.996C264.918 270.159 258.429 266.111 257.079 266.111ZM350.374 267.465C349.332 267.152 340.688 266.007 339.542 266.007C338.396 266.007 337.875 266.319 337.875 267.465C337.875 267.78 337.895 268.194 337.917 268.662C337.946 269.276 337.98 269.985 337.98 270.693C337.98 273.263 337.849 276.357 337.734 279.075C337.643 281.204 337.563 283.102 337.563 284.337C337.563 285.587 337.459 286.733 337.042 287.462C335.792 289.961 322.565 292.253 319.441 292.669C319.26 292.699 319.06 292.725 318.85 292.752C317.605 292.912 316.004 293.118 316.004 294.544C316.004 295.898 317.566 300.272 318.191 301.626C318.712 302.98 319.545 304.542 321.211 304.542C323.19 304.542 331.626 301.21 333.814 300.272C334.334 300.064 335.168 299.751 335.688 299.751C336.626 299.751 337.042 300.48 337.042 301.314C337.042 301.718 336.993 302.147 336.943 302.588C336.889 303.057 336.834 303.539 336.834 304.022C336.73 305.896 336.626 306.938 335.584 308.917C330.793 317.561 325.898 326.102 320.274 334.33C320.232 334.388 320.183 334.456 320.129 334.531C319.511 335.388 318.191 337.217 318.191 338.079C318.191 339.85 324.232 344.953 326.002 344.953C326.627 344.953 327.044 344.328 327.356 343.703C328.398 341.724 331.626 336.1 332.772 334.225C333.027 333.843 333.263 333.461 333.485 333.102C334.17 331.992 334.721 331.101 335.272 331.101C336.001 331.101 336.209 331.934 336.209 332.455C336.209 335.693 335.911 342.214 335.726 346.244C335.644 348.046 335.584 349.35 335.584 349.64C335.584 351.723 337.459 351.723 339.958 351.723C347.565 351.723 347.563 350.708 347.562 349.981L347.561 349.952C347.561 349.145 347.406 346.112 347.242 342.897C347.173 341.551 347.102 340.173 347.041 338.912C347.012 338.425 346.976 337.836 346.938 337.224C346.838 335.612 346.728 333.845 346.728 333.392C346.728 332.789 346.702 331.534 346.669 329.97C346.571 325.32 346.416 317.95 346.728 316.936C347.276 315.476 350.302 312.497 351.954 310.871C352.187 310.641 352.393 310.438 352.561 310.271C355.789 306.834 360.164 303.084 363.913 300.168C364.075 300.045 364.241 299.917 364.411 299.786C366.546 298.146 369.336 296.002 372.037 296.002C375.161 296.002 375.161 299.647 375.161 301.939C375.161 306.625 374.823 311.338 374.484 316.051C374.146 320.764 373.807 325.477 373.807 330.164C373.807 336.725 374.641 346.828 383.389 346.828C388.597 346.828 393.909 343.807 398.075 340.787C398.134 340.744 398.201 340.695 398.274 340.642C399.611 339.675 403.074 337.17 403.074 335.788C403.074 334.121 400.053 326.31 398.283 326.31C397.45 326.31 396.825 326.935 396.304 327.456C394.429 329.539 389.951 334.017 387.139 334.017C384.838 334.017 384.843 330.653 384.847 328.173C384.847 328.071 384.847 327.971 384.847 327.872C384.847 324.546 385.028 321.04 385.206 317.582C385.262 316.492 385.318 315.406 385.368 314.333C385.681 309.021 385.889 303.605 385.889 298.189C385.889 295.065 385.785 291.003 384.014 288.295C382.244 285.483 378.286 283.712 375.057 283.712C369.329 283.712 364.121 287.462 359.955 291.107C357.456 293.19 353.29 296.939 351.103 299.231C350.894 299.439 350.582 299.751 350.269 299.751C349.644 299.751 349.436 299.231 349.436 298.71C349.436 298.189 349.54 297.46 349.645 297.044C349.957 296.314 351.936 292.669 352.457 291.94C352.506 291.866 352.567 291.787 352.631 291.703C352.838 291.431 353.081 291.113 353.081 290.794C353.081 289.961 351.415 286.628 349.54 286.004C348.603 285.691 347.874 285.379 347.874 284.233C347.874 283.146 348.279 280.033 348.572 277.785C348.672 277.018 348.758 276.352 348.811 275.901C348.881 275.428 348.941 275.003 348.995 274.62C349.431 271.551 349.482 271.191 350.686 270.173C351.103 269.756 351.519 269.235 351.519 268.61C351.519 267.985 350.894 267.673 350.374 267.465ZM470.564 280.796C470.564 279.025 464.523 271.11 460.357 271.11C459.414 271.11 458.118 271.604 457.05 272.011C456.82 272.099 456.602 272.182 456.399 272.256C450.358 274.651 436.715 276.109 430.049 276.109H427.549C424.425 276.109 424.321 276.318 424.321 278.713C424.321 280.484 424.633 288.295 426.924 288.295C428.591 288.295 443.276 285.275 445.776 284.65C445.965 284.618 446.221 284.567 446.501 284.512C447.144 284.385 447.912 284.233 448.275 284.233C449.109 284.233 450.046 284.545 450.046 285.483C450.046 286.524 448.171 288.399 447.338 289.232C437.756 299.751 425.675 312.666 414.947 321.936C414.901 321.971 414.854 322.008 414.806 322.045C413.861 322.776 412.447 323.871 412.447 325.06C412.447 326.727 417.759 332.559 419.946 332.559C420.467 332.559 420.78 332.247 421.092 331.83C424.841 327.56 428.591 323.29 432.653 319.332C439.318 312.77 446.505 309.125 455.982 309.125C465.044 309.125 473.584 313.291 473.584 323.394C473.584 333.913 463.69 339.433 460.982 339.433C460.149 339.433 459.836 338.808 459.732 338.079C459.732 335.371 459.419 333.809 457.857 331.413C454.941 326.935 449.421 324.019 444.005 324.019C437.027 324.019 430.674 329.434 430.674 336.621C430.674 347.244 442.964 350.785 451.608 350.785C468.376 350.785 484.728 341.203 484.728 322.769C484.728 313.708 480.458 306.73 472.334 302.564C468.585 300.689 463.69 299.439 459.524 299.439C458.17 299.439 456.607 299.543 455.253 299.856C454.837 299.96 454.316 300.064 453.9 300.064C452.962 300.064 452.129 299.543 452.129 298.71C452.129 298.085 452.754 297.356 453.17 296.939C453.628 296.462 454.082 295.987 454.532 295.516C458.897 290.946 462.985 286.665 468.272 282.983C468.488 282.826 468.704 282.677 468.912 282.533C469.809 281.911 470.564 281.388 470.564 280.796ZM538.991 304.23H548.052C550.135 304.23 550.968 305.167 550.968 307.146V339.016C550.968 341.099 550.135 341.933 548.052 341.933H542.115C540.201 341.933 538.287 341.855 536.361 341.778C534.408 341.699 532.442 341.62 530.45 341.62C527.847 341.62 527.847 342.662 527.847 347.036C527.847 351.098 527.847 352.348 530.346 352.348C532.338 352.348 534.33 352.268 536.309 352.19C538.262 352.112 540.201 352.035 542.115 352.035H571.173C573.152 352.035 575.105 352.113 577.058 352.191C579.011 352.27 580.964 352.348 582.942 352.348C585.447 352.348 585.446 351.288 585.442 347.499C585.442 347.349 585.442 347.195 585.442 347.036C585.442 346.878 585.442 346.723 585.442 346.573C585.446 342.777 585.447 341.62 582.942 341.62C580.964 341.62 579.011 341.698 577.058 341.776C575.105 341.854 573.152 341.933 571.173 341.933H564.716C562.633 341.933 561.8 341.099 561.8 339.016V307.146C561.8 305.167 562.633 304.23 564.716 304.23H576.277C578.256 304.23 580.234 304.308 582.213 304.386C584.192 304.464 586.171 304.542 588.15 304.542C590.655 304.542 590.654 303.386 590.65 299.682C590.65 299.536 590.649 299.385 590.649 299.231C590.649 299.08 590.65 298.934 590.65 298.791C590.654 295.172 590.655 293.919 588.15 293.919C586.171 293.919 584.192 293.971 582.213 294.023C580.234 294.075 578.256 294.127 576.277 294.127H564.716C562.633 294.127 561.8 293.294 561.8 291.315V273.818C561.8 269.548 561.904 268.506 563.258 267.673C563.401 267.566 563.544 267.465 563.682 267.367C564.352 266.893 564.924 266.489 564.924 265.798C564.924 264.757 563.883 264.444 563.05 264.444C561.383 264.236 553.78 263.611 552.426 263.611C551.281 263.611 550.656 263.924 550.656 265.173C550.656 265.382 550.656 265.798 550.76 266.111C550.968 268.09 550.968 271.214 550.968 274.234V291.315C550.968 293.294 550.135 294.127 548.052 294.127H538.991C537.012 294.127 535.033 294.075 533.054 294.023C531.075 293.971 529.096 293.919 527.117 293.919C524.613 293.919 524.614 295.076 524.618 298.78C524.618 298.926 524.618 299.076 524.618 299.231C524.618 299.385 524.618 299.535 524.618 299.682C524.614 303.386 524.613 304.542 527.117 304.542C529.096 304.542 531.075 304.464 533.054 304.386C535.033 304.308 537.012 304.23 538.991 304.23ZM510.245 307.875V339.12C510.245 341.464 510.193 343.833 510.141 346.203C510.089 348.572 510.037 350.942 510.037 353.285C510.037 356.305 511.182 356.305 515.453 356.305C519.827 356.305 520.973 356.305 520.973 353.285C520.973 350.942 520.895 348.572 520.816 346.203C520.738 343.833 520.66 341.464 520.66 339.12V300.481C520.66 297.044 520.764 295.169 521.91 294.336L521.992 294.281C522.58 293.891 523.056 293.575 523.056 292.878C523.056 291.883 521.915 291.743 521.087 291.642C521.048 291.637 521.01 291.632 520.973 291.628C520.452 291.524 520.035 291.315 520.035 290.69C520.035 290.586 520.035 290.378 520.139 290.17C523.681 284.441 526.805 278.505 529.513 272.36C530.032 271.205 530.264 270.691 530.651 270.355C530.962 270.085 531.374 269.93 532.117 269.652C532.742 269.444 533.575 268.923 533.575 268.194C533.575 267.008 531.418 266.221 529.972 265.695C529.767 265.62 529.577 265.55 529.409 265.486C529.213 265.41 528.956 265.309 528.655 265.19C526.882 264.49 523.604 263.195 522.535 263.195C521.181 263.195 520.868 264.236 520.556 265.278C515.661 280.067 507.225 291.315 498.372 302.355C497.643 303.188 496.705 304.334 496.705 305.48C496.705 307.25 500.455 313.187 502.434 313.187C503.892 313.187 505.871 310.687 507.433 308.708L508.579 307.25C508.787 306.938 508.995 306.73 509.412 306.73C510.037 306.73 510.245 307.354 510.245 307.875ZM683.552 320.79C681.782 320.686 680.948 319.853 680.844 317.978C680.844 317.261 680.894 316.52 680.946 315.765C680.999 314.984 681.052 314.19 681.052 313.395C681.052 310.167 679.386 309.229 676.366 309.229C674.96 309.229 673.554 309.281 672.148 309.333C670.742 309.385 669.336 309.438 667.929 309.438H653.869C652.411 309.438 651.89 308.813 651.89 307.459V306.938C651.89 305.48 652.515 304.959 653.869 304.959H662.514C664.141 304.959 665.742 304.985 667.33 305.012C668.892 305.038 670.442 305.063 671.991 305.063C674.387 305.063 677.824 304.855 677.824 301.73C677.824 301.278 677.784 300.846 677.74 300.356C677.682 299.718 677.616 298.983 677.616 297.981V292.357C677.616 291.355 677.682 290.62 677.74 289.981C677.784 289.492 677.824 289.059 677.824 288.607C677.824 285.379 674.283 285.17 671.887 285.17C670.325 285.17 668.763 285.222 667.2 285.274C665.638 285.327 664.076 285.379 662.514 285.379H653.869C652.411 285.379 651.89 284.754 651.89 283.4V282.775C651.89 281.317 652.515 280.796 653.869 280.796H675.012C677.147 280.796 679.308 280.848 681.469 280.9C683.63 280.952 685.791 281.004 687.926 281.004C690.224 281.004 690.222 279.855 690.218 277.28C690.218 277.17 690.218 277.057 690.218 276.942C690.218 276.827 690.218 276.715 690.218 276.605C690.222 274.038 690.224 272.985 687.926 272.985C685.804 272.985 683.682 273.036 681.547 273.088C679.386 273.14 677.212 273.193 675.012 273.193H654.806C652.828 273.193 651.994 272.36 651.994 270.277C651.994 269.027 651.994 268.09 653.036 267.256C653.096 267.214 653.154 267.172 653.211 267.132C653.847 266.682 654.286 266.372 654.286 265.798C654.286 264.68 652.869 264.562 651.825 264.475C651.702 264.465 651.584 264.455 651.474 264.444C649.807 264.236 643.766 263.611 642.413 263.611C641.371 263.611 640.538 263.819 640.538 265.069C640.538 265.163 640.559 265.299 640.582 265.448C640.61 265.631 640.642 265.835 640.642 266.007C640.85 267.465 640.954 268.923 641.059 270.381C640.85 272.464 640.121 273.193 638.142 273.193H617.833C615.698 273.193 613.537 273.141 611.376 273.089C609.214 273.037 607.053 272.985 604.918 272.985C602.627 272.985 602.627 274.026 602.627 276.942C602.627 279.859 602.627 281.004 604.918 281.004C607.119 281.004 609.293 280.952 611.453 280.899C613.589 280.847 615.711 280.796 617.833 280.796H639.08C640.434 280.796 641.059 281.317 641.059 282.775V283.4C641.059 284.754 640.434 285.379 639.08 285.379H630.435C628.873 285.379 627.311 285.327 625.748 285.274C624.186 285.222 622.624 285.17 621.062 285.17C618.666 285.17 615.125 285.379 615.125 288.607C615.125 289.059 615.164 289.492 615.209 289.981C615.267 290.62 615.333 291.355 615.333 292.357V297.981C615.333 298.983 615.267 299.718 615.209 300.356C615.164 300.846 615.125 301.278 615.125 301.73C615.125 304.855 618.666 305.063 621.062 305.063C622.624 305.063 624.186 305.037 625.748 305.011C627.311 304.985 628.873 304.959 630.435 304.959H639.08C640.434 304.959 641.059 305.584 641.059 306.938V307.459C641.059 308.813 640.434 309.438 639.08 309.438H617.625C616.323 309.438 614.995 309.385 613.667 309.333C612.339 309.281 611.011 309.229 609.709 309.229C607.939 309.229 607.939 310.167 607.939 312.874C607.939 315.687 607.939 316.624 609.813 316.624C611.115 316.624 612.417 316.572 613.719 316.52C615.021 316.468 616.323 316.416 617.625 316.416H639.08C640.434 316.416 641.059 317.04 641.059 318.394V318.915C641.059 320.269 640.434 320.79 639.08 320.79H615.646C613.459 320.79 611.245 320.764 609.032 320.738C606.819 320.712 604.606 320.686 602.419 320.686C600.328 320.686 600.331 321.827 600.335 323.837C600.335 323.931 600.336 324.026 600.336 324.123C600.336 324.224 600.335 324.323 600.335 324.421C600.331 326.432 600.328 327.664 602.314 327.664C604.567 327.664 606.819 327.611 609.058 327.559C611.271 327.507 613.471 327.456 615.646 327.456H639.08C640.434 327.456 641.059 328.081 641.059 329.434V330.059C641.059 331.413 640.434 331.934 639.08 331.934H622.832C620.762 331.934 618.666 331.908 616.557 331.883C614.422 331.856 612.274 331.83 610.126 331.83C607.73 331.83 607.626 332.559 607.626 335.475C607.626 338.391 607.73 339.225 610.126 339.225C612.274 339.225 614.422 339.172 616.557 339.12C618.666 339.068 620.762 339.016 622.832 339.016H638.142C640.121 339.016 640.85 339.745 641.059 341.724C640.85 345.786 640.434 347.14 635.226 347.14C633.786 347.14 632.519 347.002 631.445 346.885C630.654 346.798 629.968 346.723 629.394 346.723C627.831 346.723 627.415 347.661 627.415 349.119C627.415 356.887 630.479 356.857 633.275 356.829C633.441 356.828 633.605 356.826 633.768 356.826C641.371 356.826 652.099 356.618 652.099 346.515C652.099 345.474 652.099 342.766 651.994 341.724C652.099 339.745 652.828 339.016 654.806 339.016H668.346C669.283 339.016 669.596 339.537 670.012 340.266C670.533 341.516 671.991 341.516 675.116 341.516C675.288 341.516 675.457 341.516 675.621 341.516C679.619 341.52 681.157 341.522 681.157 339.12C681.157 338.208 681.09 337.142 681.019 335.991C680.935 334.646 680.844 333.186 680.844 331.726V330.372C680.844 328.497 681.677 327.56 683.656 327.56C684.75 327.56 685.843 327.586 686.937 327.612C688.031 327.638 689.124 327.664 690.218 327.664C692.301 327.664 692.301 326.518 692.301 324.123C692.301 324.026 692.301 323.931 692.301 323.837C692.306 321.827 692.308 320.686 690.218 320.686C688.031 320.686 685.843 320.686 683.552 320.79ZM747.501 270.068C747.501 268.506 736.773 263.715 735.836 263.715C734.794 263.715 734.586 264.757 734.378 265.902C733.649 268.923 730.524 277.047 728.753 279.338C727.816 280.588 725.004 280.692 722.296 280.692H719.276C717.565 280.692 715.955 280.625 714.558 280.567C713.489 280.523 712.545 280.484 711.777 280.484C709.173 280.484 708.757 281.108 708.757 285.274C708.757 290.586 709.173 291.107 711.464 291.107C713.343 291.107 714.94 291.001 716.275 290.913C717.234 290.849 718.058 290.794 718.755 290.794C720.213 290.794 721.046 291.107 721.046 292.044C721.046 294.023 705.945 314.957 703.549 317.561C703.478 317.647 703.4 317.737 703.32 317.83C702.815 318.415 702.195 319.134 702.195 319.853C702.195 321.727 709.173 325.893 711.048 325.893C711.777 325.893 712.193 325.373 712.506 324.852C714.693 321.102 718.234 315.687 721.255 312.666C725.317 308.5 734.898 303.501 740.731 303.501C743.126 303.501 744.793 304.751 745.313 307.042C745.522 307.771 745.834 309.229 745.834 309.958C745.834 311.208 745.001 311.833 743.96 312.354C741.772 313.395 739.585 314.541 737.502 315.791C730.316 320.061 722.713 325.164 722.713 334.538C722.713 341.62 726.775 346.619 733.128 349.431C738.648 351.827 743.647 352.139 749.584 352.139C754.062 352.139 765.623 351.723 769.581 350.785C771.872 350.265 771.976 349.431 771.976 346.307C771.976 340.37 771.247 339.225 769.893 339.225C769.164 339.225 768.435 339.329 767.81 339.433C761.04 341.099 755.416 342.037 748.438 342.037C743.439 342.037 733.336 341.412 733.336 334.434C733.336 327.976 744.064 323.394 744.584 323.394C745.626 323.394 745.938 324.227 745.938 325.164C745.938 326.245 745.888 327.351 745.836 328.471C745.784 329.616 745.73 330.775 745.73 331.934C745.73 334.642 747.605 334.85 752.083 334.85C756.041 334.85 756.562 334.434 756.562 330.684C756.562 329.07 756.536 327.482 756.51 325.893C756.484 324.305 756.458 322.717 756.458 321.102V319.748C756.458 317.665 757.291 317.04 759.166 316.311C763.227 314.541 767.289 312.77 771.455 311.208C771.68 311.118 771.906 311.047 772.122 310.979C772.407 310.89 772.677 310.806 772.913 310.687C774.892 310.062 776.038 309.646 776.038 308.396C776.038 306.625 773.538 298.606 771.56 298.606C770.948 298.606 770.167 298.999 769.507 299.332C769.268 299.452 769.045 299.564 768.852 299.647C767.185 300.585 757.916 305.584 756.666 305.584C755.624 305.584 755.312 304.751 755.104 303.813C753.75 297.252 749.896 294.44 743.23 294.44C739.377 294.44 735.419 295.585 731.878 297.148C731.357 297.46 730.628 297.773 730.003 297.773C729.587 297.773 729.17 297.46 729.17 297.044C729.17 296.314 732.086 291.836 732.711 291.003C733.753 289.753 734.169 289.545 735.836 289.336C742.397 288.607 748.959 287.462 755.52 286.108C755.73 286.068 755.95 286.028 756.177 285.987C758.316 285.599 761.04 285.105 761.04 283.504C761.04 282.046 760.519 279.234 760.207 277.88C759.895 276.422 759.374 274.755 757.603 274.755C756.874 274.755 755.729 275.068 755 275.38C752.812 276.109 745.001 278.296 742.918 278.296C742.293 278.296 741.772 277.984 741.772 277.255C741.772 276.63 742.501 275.38 742.814 274.859C744.168 272.464 744.584 271.943 746.251 271.318C746.772 271.11 747.501 270.693 747.501 270.068Z" fill="#1C1C1C"/>
<path d="M393.817 160.062C393.817 160.479 393.712 160.687 393.504 160.999C390.484 167.144 388.193 171.727 384.131 177.351C383.402 178.393 382.777 178.809 381.319 178.809C379.34 178.705 378.611 177.872 378.611 175.893V161.52C378.611 159.437 379.444 158.604 381.423 158.604H392.046C392.983 158.708 393.817 159.021 393.817 160.062Z" fill="#1C1C1C"/>
<path fill-rule="evenodd" clip-rule="evenodd" d="M211.508 128.734H611.002V237.514H211.508V128.734ZM263.42 195.994V210.054C263.42 212.775 263.341 215.47 263.262 218.152C263.185 220.808 263.107 223.451 263.107 226.094C263.107 229.635 264.253 229.739 268.836 229.739C273.314 229.739 274.46 229.635 274.46 226.198C274.46 223.555 274.408 220.886 274.356 218.204C274.304 215.497 274.251 212.775 274.251 210.054V196.098C274.251 195.577 274.46 194.953 275.189 194.953C275.501 194.953 275.814 195.161 276.022 195.369C281.959 202.451 288.312 208.284 295.811 213.804C297.79 215.262 307.892 222.344 309.767 222.344C311.642 222.344 315.808 216.824 315.808 214.95C315.808 214.062 314.501 213.362 313.213 212.671C313.141 212.632 313.068 212.593 312.996 212.554C301.331 205.784 290.707 197.66 281.646 187.766C281.61 187.713 281.575 187.662 281.54 187.613C281.372 187.376 281.23 187.174 281.23 186.829C281.23 185.996 281.959 185.787 282.688 185.683H299.352C301.552 185.683 303.726 185.736 305.887 185.788C308.022 185.84 310.144 185.891 312.267 185.891C314.772 185.891 314.77 184.542 314.766 181.193C314.766 181.061 314.766 180.926 314.766 180.788C314.766 180.646 314.766 180.507 314.766 180.372C314.77 176.938 314.772 175.685 312.267 175.685C310.144 175.685 308.022 175.736 305.887 175.788C303.726 175.84 301.552 175.893 299.352 175.893H277.168C275.085 175.893 274.251 175.06 274.251 172.977V164.436C274.251 162.458 275.085 161.624 277.168 161.624H292.374C294.405 161.624 296.436 161.676 298.467 161.728C300.497 161.781 302.528 161.833 304.559 161.833C307.064 161.833 307.063 160.579 307.059 157.146C307.059 157.01 307.059 156.871 307.059 156.729C307.059 156.591 307.059 156.456 307.059 156.324C307.063 152.983 307.064 151.73 304.559 151.73C302.528 151.73 300.497 151.782 298.467 151.834C296.436 151.886 294.405 151.938 292.374 151.938H277.168C275.189 151.938 274.251 151.209 274.251 149.23V145.585C274.251 142.044 274.356 140.898 275.501 139.961C275.651 139.848 275.791 139.749 275.92 139.658C276.505 139.244 276.855 138.996 276.855 138.399C276.855 137.204 275.395 137.063 274.48 136.975C274.358 136.964 274.245 136.953 274.147 136.941C273.47 136.91 272.557 136.861 271.555 136.807C269.165 136.679 266.272 136.524 264.878 136.524C263.836 136.524 262.899 136.628 262.899 137.982C262.899 138.138 262.925 138.321 262.951 138.503C262.977 138.685 263.003 138.867 263.003 139.024C263.211 141.315 263.42 143.815 263.42 146.21V149.022C263.42 151.105 262.587 151.938 260.504 151.938H245.714C243.683 151.938 241.652 151.886 239.621 151.834C237.59 151.782 235.559 151.73 233.528 151.73C231.029 151.73 231.029 152.98 231.029 156.729C231.029 160.583 231.029 161.833 233.528 161.833C235.559 161.833 237.59 161.781 239.621 161.728C241.652 161.676 243.683 161.624 245.714 161.624H260.504C262.587 161.624 263.42 162.458 263.42 164.436V172.977C263.42 175.06 262.587 175.893 260.504 175.893H238.528C236.327 175.893 234.153 175.84 231.993 175.788C229.857 175.736 227.735 175.685 225.613 175.685C223.108 175.685 223.109 176.841 223.113 180.36C223.113 180.499 223.113 180.642 223.113 180.788C223.113 180.93 223.113 181.069 223.113 181.205C223.109 184.638 223.108 185.891 225.613 185.891C227.735 185.891 229.857 185.84 231.993 185.788C234.153 185.736 236.327 185.683 238.528 185.683H254.671C255.4 185.787 256.129 185.996 256.129 186.933C256.129 187.278 255.986 187.48 255.819 187.717C255.784 187.766 255.748 187.817 255.713 187.87C246.339 198.39 237.07 205.993 224.676 212.762C224.619 212.794 224.561 212.826 224.501 212.859C223.567 213.373 222.28 214.081 222.28 215.158C222.28 216.928 226.446 222.448 228.321 222.448C229.362 222.448 231.445 221.199 232.591 220.47C244.048 213.596 253.317 205.472 261.753 195.369C261.962 195.057 262.17 194.953 262.482 194.953C263.211 194.953 263.42 195.473 263.42 195.994ZM351.948 177.976C353.302 177.976 358.926 175.789 358.926 173.81C358.926 172.56 356.114 167.457 355.281 166.207C355.206 166.076 355.115 165.914 355.011 165.728C353.952 163.839 351.486 159.437 349.969 159.437C348.823 159.437 342.991 162.041 342.991 163.811C342.991 164.32 343.405 164.967 343.727 165.47C343.801 165.586 343.87 165.693 343.928 165.79C345.595 168.602 346.845 170.894 347.782 172.664L347.946 172.96C349.91 176.496 350.732 177.976 351.948 177.976ZM380.228 196.304C380.277 196.339 380.328 196.375 380.381 196.411C386.422 203.597 391.942 209.117 399.441 214.845C401.628 216.616 412.147 224.219 414.334 224.219C416.417 224.219 420.063 219.116 420.063 217.033C420.063 215.991 419.229 215.47 417.771 214.637C406.419 208.284 396.108 200.16 387.359 190.474C387.151 190.162 387.047 189.953 387.047 189.537C387.047 188.704 387.776 188.391 388.505 188.391H403.919C406.041 188.391 408.164 188.443 410.299 188.494C412.46 188.547 414.634 188.599 416.834 188.599C419.235 188.599 419.234 187.35 419.23 184.021C419.23 183.884 419.229 183.744 419.229 183.6C419.229 183.452 419.23 183.308 419.23 183.168C419.234 179.754 419.235 178.601 416.834 178.601C414.634 178.601 412.46 178.654 410.299 178.706C408.164 178.758 406.041 178.809 403.919 178.809H397.254C396.42 178.705 395.691 178.393 395.691 177.455C395.691 177.039 395.796 176.83 396.004 176.518C398.293 173.133 399.536 170.986 401.642 167.347L401.94 166.832C402.461 165.999 403.19 165.686 404.232 165.582C404.301 165.568 404.379 165.556 404.463 165.543C405.011 165.46 405.794 165.34 405.794 164.436C405.794 163.395 404.023 162.458 399.545 160.479C399.487 160.45 399.41 160.413 399.319 160.37C398.754 160.102 397.67 159.588 397.67 159.229C397.67 158.812 398.087 158.604 398.399 158.604C400.274 158.604 402.123 158.656 403.971 158.708C405.82 158.76 407.669 158.812 409.543 158.812C412.049 158.812 412.047 157.463 412.043 154.114C412.043 153.982 412.043 153.847 412.043 153.709C412.043 153.567 412.043 153.428 412.043 153.292C412.047 149.859 412.048 148.605 409.543 148.605C407.499 148.605 405.455 148.658 403.424 148.711C401.42 148.762 399.428 148.814 397.462 148.814H381.527C379.548 148.814 378.611 148.085 378.611 146.106V143.71C378.611 141.523 378.715 140.169 379.756 139.336C379.816 139.293 379.875 139.252 379.932 139.212C380.567 138.762 381.006 138.451 381.006 137.878C381.006 136.697 379.519 136.539 378.565 136.437C378.508 136.431 378.454 136.426 378.402 136.42C377.693 136.388 376.743 136.335 375.712 136.279C373.413 136.152 370.707 136.003 369.341 136.003C368.3 136.003 367.362 136.107 367.362 137.357C367.362 137.565 367.388 137.748 367.414 137.93C367.44 138.112 367.466 138.295 367.466 138.503C367.675 140.898 367.883 143.606 367.883 145.898C367.883 147.981 366.946 148.814 364.967 148.814H349.136C347.17 148.814 345.178 148.762 343.174 148.711C341.143 148.658 339.099 148.605 337.054 148.605C334.555 148.605 334.555 149.855 334.555 153.709C334.555 153.851 334.555 153.99 334.555 154.125C334.551 157.559 334.549 158.812 337.054 158.812C339.099 158.812 341.143 158.759 343.174 158.707C345.178 158.655 347.17 158.604 349.136 158.604H364.967C366.946 158.604 367.883 159.437 367.883 161.52V175.893C367.883 177.976 366.946 178.809 364.967 178.809H342.574C340.374 178.809 338.2 178.757 336.039 178.704C333.904 178.652 331.782 178.601 329.66 178.601C327.16 178.601 327.16 179.642 327.16 183.6C327.16 187.454 327.16 188.599 329.66 188.599C331.782 188.599 333.904 188.548 336.039 188.496C338.2 188.444 340.374 188.391 342.574 188.391H357.364C358.093 188.391 358.926 188.704 358.926 189.537C358.926 189.981 358.774 190.198 358.6 190.447C358.57 190.489 358.54 190.533 358.509 190.578C350.594 200.056 340.7 207.867 330.076 214.116L330.026 214.144C328.853 214.783 326.223 216.217 326.223 217.449C326.223 219.428 329.764 224.636 331.743 224.636C332.472 224.636 334.659 223.49 336.638 222.344C347.261 215.783 358.509 206.513 366.112 196.619C366.178 196.576 366.238 196.532 366.296 196.491C366.516 196.333 366.698 196.202 366.946 196.202C367.571 196.202 367.779 196.827 367.883 197.348V209.534C367.883 212.242 367.805 214.95 367.727 217.657C367.649 220.365 367.571 223.073 367.571 225.781C367.571 229.114 368.82 229.218 373.195 229.218C377.673 229.218 378.819 229.114 378.819 225.781C378.819 223.073 378.767 220.365 378.715 217.657C378.663 214.95 378.611 212.242 378.611 209.534V197.14C378.611 196.307 379.131 195.994 379.444 195.994C379.789 195.994 379.991 196.137 380.228 196.304ZM517.34 177.768C517.34 175.164 503.175 151.938 499.321 151.938C497.447 151.938 491.406 155.584 491.406 157.458C491.406 158.187 491.927 158.812 492.343 159.229C499.321 166.624 502.134 172.56 506.3 181.517C506.348 181.613 506.396 181.712 506.445 181.813C506.924 182.797 507.466 183.913 508.695 183.913C510.778 183.913 517.34 180.059 517.34 177.768ZM472.034 144.023C470.472 143.606 462.556 141.627 461.515 141.627C460.369 141.627 460.369 142.877 460.369 143.71C460.369 144.349 460.396 144.96 460.423 145.558C460.448 146.131 460.473 146.691 460.473 147.251C460.473 151.001 460.057 157.042 459.432 160.687C459.119 162.874 458.078 163.395 455.995 163.811C455.185 163.986 454.347 164.17 453.489 164.359C448.71 165.409 443.296 166.599 438.706 167.04C438.606 167.048 438.505 167.055 438.402 167.062C437.102 167.153 435.581 167.259 435.581 168.707C435.581 169.227 437.352 179.434 439.955 179.434C440.433 179.434 441.093 179.191 441.656 178.983C441.83 178.919 441.995 178.858 442.143 178.809C443.913 178.08 452.558 175.164 454.016 175.164C454.849 175.164 455.37 175.685 455.37 176.518C455.37 177.455 453.287 183.079 452.766 184.329C448.496 195.473 442.455 204.743 434.227 213.387C433.602 214.012 432.769 214.845 432.769 215.783C432.769 218.178 439.435 222.136 441.205 222.136C441.934 222.136 442.559 221.615 443.08 221.094C446.204 217.762 450.995 210.159 453.495 206.097C459.015 196.827 464.014 185.683 466.722 175.164C467.451 172.248 468.493 171.414 474.429 171.414C480.678 171.414 480.991 175.685 480.991 180.892C480.991 187.558 479.429 198.39 476.408 204.43C473.804 209.534 471.201 210.783 465.577 210.783C464.356 210.783 463.243 210.676 462.321 210.587C461.669 210.525 461.113 210.471 460.681 210.471C459.64 210.471 459.327 211.2 459.327 212.242C459.327 214.22 460.265 217.866 461.098 219.636C462.244 221.824 463.598 222.136 465.889 222.136C474.325 222.136 481.408 218.491 485.574 210.888C490.156 202.556 491.823 188.495 491.823 178.913C491.823 173.185 490.677 167.144 485.469 163.811C481.72 161.416 477.866 161.416 473.596 161.416C473.388 161.416 473.18 161.442 472.971 161.468C472.763 161.494 472.555 161.52 472.346 161.52C471.097 161.52 470.055 160.791 470.055 159.333C470.055 159.021 470.159 158.5 470.263 158.187C470.459 157.076 470.614 156.088 470.754 155.198C470.837 154.669 470.915 154.174 470.992 153.709C471.019 153.556 471.044 153.406 471.069 153.26C471.638 149.924 471.909 148.336 473.805 146.939C474.221 146.627 474.638 146.314 474.638 145.689C474.638 144.643 473.16 144.291 472.269 144.08C472.185 144.06 472.106 144.041 472.034 144.023ZM549.418 161.312C547.647 160.687 540.357 158.396 538.795 158.396C537.128 158.396 537.024 159.958 537.024 162.978C537.024 163.331 537 163.683 536.975 164.047C536.948 164.436 536.92 164.839 536.92 165.27C536.607 172.873 535.774 180.476 534.42 187.974C533.795 191.411 532.962 194.848 532.025 198.181C531.932 198.49 531.803 198.844 531.667 199.216C531.345 200.102 530.983 201.093 530.983 201.827C530.983 204.847 537.961 205.888 538.899 205.888C540.282 205.888 541.103 204.857 541.895 203.862C541.938 203.808 541.981 203.755 542.023 203.701C548.585 195.473 559.625 186.308 570.561 186.308C577.226 186.308 583.059 190.162 583.059 197.348C583.059 206.201 575.352 209.43 567.957 211.304C563.583 212.45 558.583 213.179 554.105 213.387C552.751 213.491 551.501 213.596 551.501 215.262C551.501 217.033 552.543 220.47 553.272 222.032C554.209 224.011 554.834 224.948 557.125 224.948C560.354 224.948 567.436 223.073 570.665 222.136C583.267 218.387 594.307 212.137 594.307 197.348C594.307 184.225 584.413 175.685 571.602 175.685C561.708 175.685 555.459 179.851 547.752 185.267C547.335 185.579 546.918 185.891 546.398 185.891C545.669 185.891 545.356 185.267 545.356 184.642C545.356 184.164 545.478 183.505 545.581 182.941C545.614 182.767 545.644 182.602 545.669 182.454C546.354 179.3 546.859 176.101 547.362 172.916C547.623 171.263 547.884 169.614 548.168 167.978C548.19 167.868 548.211 167.761 548.232 167.657C548.6 165.795 548.777 164.902 550.355 163.916C550.772 163.707 551.293 163.395 551.293 162.77C551.293 162.057 550.455 161.726 549.756 161.449C549.638 161.402 549.523 161.357 549.418 161.312ZM551.293 138.815C548.793 138.815 545.46 145.064 545.46 146.418C545.46 147.372 546.398 147.892 547.313 148.4C547.497 148.503 547.681 148.605 547.856 148.71C552.334 151.209 557.021 154.23 560.979 157.562C561.172 157.707 561.393 157.897 561.634 158.103C562.429 158.786 563.432 159.645 564.312 159.645C566.499 159.645 570.769 153.292 570.769 151.418C570.769 149.828 565.903 146.981 563.776 145.736C563.533 145.594 563.326 145.473 563.166 145.377C562.912 145.222 562.538 144.988 562.076 144.7C559.132 142.863 552.643 138.815 551.293 138.815Z" fill="#1C1C1C"/>
</svg>
