<svg width="331" height="147" viewBox="0 0 331 147" fill="none" xmlns="http://www.w3.org/2000/svg">
<path d="M23.052 21.5129H25.5774C26.3771 21.5129 26.7138 21.8486 26.7138 22.688V24.7444C26.7138 25.5837 26.3771 25.9195 25.5774 25.9195H23.052C22.2101 25.9195 21.8734 25.5418 21.8734 24.7444V22.688C21.8734 21.8486 22.2522 21.5129 23.052 21.5129Z" fill="#1C1C1C"/>
<path d="M70.446 19.8342V19.4565C70.446 18.8689 70.867 18.4493 71.4562 18.4493H77.6015C78.1907 18.4493 78.6116 18.8689 78.6116 19.4565V19.8342C78.6116 20.4217 78.1907 20.8414 77.6015 20.8414H71.4562C70.867 20.8414 70.446 20.4217 70.446 19.8342Z" fill="#1C1C1C"/>
<path d="M70.446 14.4623V14.2525C70.446 13.6649 70.867 13.2872 71.4562 13.2872H77.6015C78.1907 13.2872 78.6116 13.6649 78.6116 14.2525V14.4623C78.6116 15.0499 78.1907 15.4696 77.6015 15.4696H71.4562C70.867 15.4696 70.446 15.0499 70.446 14.4623Z" fill="#1C1C1C"/>
<path d="M78.6116 9.09048V9.30031C78.6116 9.88786 78.1907 10.3075 77.6015 10.3075H71.4562C70.867 10.3075 70.446 9.88786 70.446 9.30031V9.09048C70.446 8.50293 70.867 8.08325 71.4562 8.08325H77.6015C78.1907 8.08325 78.6116 8.50293 78.6116 9.09048Z" fill="#1C1C1C"/>
<path d="M187.626 14.1686L187.669 14.0427C187.744 13.7778 187.889 13.6835 188.102 13.5445C188.125 13.5293 188.149 13.5136 188.174 13.4971C188.211 13.4723 188.249 13.4484 188.287 13.4246C188.507 13.2874 188.721 13.1537 188.721 12.8676C188.721 12.4899 188.342 12.3639 188.005 12.322C187.416 12.238 184.638 12.0702 184.007 12.0702C183.544 12.0702 183.207 12.1961 183.207 12.7417C183.207 12.8793 183.225 13.0815 183.245 13.2964C183.267 13.54 183.291 13.8 183.291 14.0007C183.333 14.84 182.997 15.1758 182.155 15.1758H177.062C175.841 15.1758 174.663 15.1758 173.442 15.1338C172.684 15.0918 172.39 14.7141 172.305 14.0007C172.263 13.7908 172.263 13.581 172.263 13.3712V12.9095C172.263 12.1121 172.6 11.7344 173.442 11.7344H197.518C198.318 11.7344 198.696 12.1121 198.696 12.9095V13.581C198.696 13.7489 198.696 13.8748 198.654 14.0427C198.528 14.84 198.275 15.0918 197.476 15.1338C196.559 15.1969 195.618 15.1889 194.69 15.181C194.382 15.1784 194.076 15.1758 193.772 15.1758H188.763C188.216 15.1758 187.711 15.0499 187.626 14.4204V14.1686Z" fill="#1C1C1C"/>
<path d="M230.054 21.0093H238.809C239.524 21.0093 239.945 21.429 239.945 22.1424V22.8978C239.945 23.6113 239.524 24.0309 238.809 24.0309H230.054C229.338 24.0309 228.96 23.6113 228.875 22.8978V22.1424C228.96 21.429 229.338 21.0093 230.054 21.0093Z" fill="#1C1C1C"/>
<path d="M230.054 14.6722H238.809C239.524 14.7561 239.945 15.0918 239.945 15.8473V16.4348C239.945 17.1483 239.524 17.526 238.809 17.6099H230.054C229.338 17.526 228.96 17.1483 228.875 16.4348V15.8473C228.96 15.0918 229.338 14.7561 230.054 14.6722Z" fill="#1C1C1C"/>
<path d="M238.809 11.3148H230.054C229.338 11.2308 228.96 10.8531 228.875 10.1397V9.55212C228.96 8.83867 229.338 8.46096 230.054 8.37703H238.809C239.524 8.46096 239.945 8.83867 239.945 9.55212V10.1397C239.945 10.8531 239.524 11.2308 238.809 11.3148Z" fill="#1C1C1C"/>
<path fill-rule="evenodd" clip-rule="evenodd" d="M331 0H0V43.8328H331V0ZM11.6033 16.9384C11.6033 17.2322 11.4349 17.4001 11.2245 17.6099C9.70921 18.9109 8.15186 20.128 6.46823 21.1771C6.17359 21.345 5.83687 21.5549 5.83687 21.9326C5.83687 22.688 7.35213 24.7024 8.23604 24.7024C9.17751 24.7024 12.6123 21.6789 14.0185 20.441C14.184 20.2953 14.3214 20.1744 14.4234 20.086C14.5075 20.0021 14.5917 19.9181 14.7601 19.9181C15.0126 19.9181 15.0968 20.128 15.1389 20.3798C15.1389 21.0932 15.2231 21.5968 16.1491 21.5968H16.7384C17.5381 21.5968 17.8327 21.9326 17.8327 22.7299V24.7444C17.8327 25.5837 17.4539 25.9195 16.6542 25.9195H14.9285C14.1287 25.9195 13.329 25.888 12.5293 25.8565C11.7296 25.8251 10.9298 25.7936 10.1301 25.7936C9.07785 25.7936 9.07785 26.2552 9.07785 27.85C9.07785 27.9073 9.07779 27.9633 9.07773 28.0178C9.07623 29.4014 9.07569 29.9064 10.088 29.9064C10.8877 29.9064 11.698 29.8749 12.5082 29.8435C13.3185 29.812 14.1287 29.7805 14.9285 29.7805H15.8965C16.3174 29.8225 16.7384 29.9484 16.7384 30.452C16.7384 30.5911 16.7095 30.6725 16.6756 30.768C16.6686 30.7877 16.6614 30.8081 16.6542 30.8297C15.181 34.0612 12.1084 36.1176 8.74112 37.0829C8.36231 37.1668 8.02558 37.2927 8.02558 37.7544C8.02558 38.4258 9.37249 40.776 10.3406 40.776C10.7615 40.776 11.3928 40.5662 11.7717 40.3983C16.107 38.5517 19.5584 35.4461 21.0316 30.8717C21.2841 30.0323 21.6209 29.7805 22.5048 29.7805H25.5774C26.3771 29.7805 26.7138 30.1582 26.7138 30.9556V36.3694C26.7138 39.9367 28.3554 40.4822 31.5964 40.4822H36.7314C38.5834 40.4822 40.0145 40.1885 40.9826 38.5098C41.5298 37.5865 42.3716 35.3202 42.3716 34.271C42.3716 33.2638 39.9724 32.8022 39.341 32.8022C38.7097 32.8022 38.5834 33.1379 38.4571 33.6835C37.8679 36.4534 37.1523 36.6212 35.7212 36.6212H32.7328C31.0913 36.6212 30.9229 36.2855 30.9229 34.7327V30.9556C30.9229 30.1162 31.2596 29.7805 32.1015 29.7805H33.9113C34.7111 29.7805 35.5108 29.812 36.3105 29.8435C37.1102 29.8749 37.91 29.9064 38.7097 29.9064C39.722 29.9064 39.7215 29.4403 39.72 28.0225C39.7199 27.9665 39.7199 27.909 39.7199 27.85C39.7199 27.7927 39.7199 27.7367 39.72 27.6822C39.7215 26.2985 39.722 25.7936 38.7097 25.7936C37.91 25.7936 37.1102 25.8251 36.3105 25.8565C35.5108 25.888 34.7111 25.9195 33.9113 25.9195H32.1015C31.2596 25.9195 30.9229 25.5837 30.9229 24.7444V22.7299C30.9229 21.9326 31.2175 21.5968 32.0594 21.5968H32.8591C33.8891 21.5968 33.9109 21.1142 33.9508 20.2278C33.9517 20.2087 33.9525 20.1894 33.9534 20.1699C33.9955 19.9601 34.0797 19.7502 34.3323 19.7502C34.4585 19.7502 34.5427 19.7922 34.669 19.8762C35.5529 20.6735 39.2569 23.8211 40.267 23.8211C41.193 23.8211 42.7504 21.429 42.7504 20.7994C42.7504 20.378 42.2593 20.0965 41.7895 19.8271C41.7447 19.8014 41.7 19.7758 41.656 19.7502C40.3512 18.9948 39.2569 18.2394 38.0783 17.3161C37.8258 17.1063 37.6574 16.8965 37.6574 16.5607C37.6574 16.2669 37.8258 16.0571 38.0362 15.8473C39.1306 14.84 40.1408 13.7908 41.1509 12.6997C41.2772 12.5738 41.3614 12.4899 41.5718 12.4899C41.6145 12.4899 41.6604 12.4909 41.7082 12.492C42.0849 12.5008 42.582 12.5123 42.582 12.0282C42.582 11.723 42.2342 11.4524 41.7282 11.0589C41.6776 11.0196 41.6254 10.979 41.5718 10.9371C41.4666 10.8531 41.3509 10.7692 41.2351 10.6852C41.1194 10.6013 41.0036 10.5174 40.8984 10.4334C40.3933 10.0138 39.5515 9.34228 39.299 9.34228C39.0043 9.34228 38.7939 9.67802 38.6676 9.88786C37.9941 10.8111 36.2263 12.6158 35.3424 13.4131C35.132 13.623 34.9215 13.7489 34.669 13.7489C34.3743 13.7489 34.206 13.623 34.0376 13.4131C33.7851 13.1613 33.57 12.9095 33.3548 12.6577C33.2473 12.5318 33.1397 12.4059 33.0274 12.28C32.8591 12.0702 32.7749 11.9023 32.7749 11.6505C32.7749 11.3567 32.9433 11.1469 33.1116 10.9371C34.2059 9.84599 34.8374 9.21632 35.8896 8.08325C36.0159 7.95735 36.1842 7.87341 36.3526 7.83145C36.4192 7.83145 36.4919 7.83405 36.5676 7.83677C37.0179 7.85291 37.5732 7.87281 37.5732 7.3698C37.5732 7.15452 37.3698 6.98431 37.0623 6.72705C36.9502 6.63325 36.8243 6.52789 36.6893 6.40455C36.5841 6.32061 36.4684 6.22619 36.3526 6.13176C36.2369 6.03733 36.1211 5.9429 36.0159 5.85897C35.8807 5.7627 35.7278 5.64877 35.5689 5.53035C35.035 5.13248 34.433 4.68388 34.206 4.68388C33.9366 4.68388 33.775 4.89875 33.6133 5.11362C33.5729 5.16734 33.5325 5.22106 33.4904 5.27142C32.9433 6.02684 31.8489 7.20193 31.1755 7.83145C30.965 8.04129 30.7545 8.16719 30.502 8.16719C30.1579 8.16719 29.9875 7.95943 29.8014 7.73263C29.7826 7.70974 29.7637 7.68666 29.7444 7.66358C29.3656 7.03406 29.0709 6.48848 28.8605 6.06881C28.187 4.85175 27.9766 4.51601 27.4294 4.51601C26.7559 4.51601 24.6935 5.43929 24.6935 6.32061C24.6935 6.63809 24.9193 7.03063 25.0862 7.32078C25.0958 7.33747 25.1052 7.35382 25.1144 7.3698C26.9243 10.8111 28.8605 13.6649 31.428 16.6027C31.5122 16.7286 31.5964 16.8545 31.5964 17.0224C31.5964 17.3581 31.3438 17.442 31.0492 17.484C30.2495 17.526 29.4497 17.526 28.65 17.526H20.4002C19.6426 17.526 18.9271 17.526 18.1694 17.484C17.8748 17.442 17.5802 17.3581 17.5802 17.0224C17.5802 16.8545 17.6223 16.7286 17.7485 16.6027C19.2217 14.84 23.2203 9.71999 23.2203 7.49571C23.2203 6.86619 22.7152 6.19471 22.2522 5.817C21.7892 5.48126 21.2 5.39733 20.274 5.39733C19.9952 5.39733 19.6836 5.40551 19.3356 5.41464C18.8954 5.4262 18.3969 5.43929 17.8327 5.43929H14.5496C13.8341 5.43929 13.1186 5.41831 12.403 5.39733C11.6875 5.37634 10.9719 5.35536 10.2564 5.35536C9.28612 5.35536 9.28662 5.78124 9.28817 7.11645C9.28824 7.17137 9.2883 7.22783 9.2883 7.28587C9.2883 7.34222 9.28824 7.39707 9.28817 7.45045C9.28662 8.74851 9.28611 9.17441 10.2564 9.17441C10.9719 9.17441 11.6875 9.15343 12.403 9.13244C13.1186 9.11146 13.8341 9.09048 14.5496 9.09048H16.4016C17.0751 9.09048 17.5381 9.13244 17.5381 9.67802C17.5381 10.4334 15.8544 12.6997 15.3073 13.3712C15.0547 13.623 14.8443 13.8328 14.4655 13.8328C14.1708 13.8328 13.9604 13.7069 13.7499 13.581C13.6954 13.5436 13.6257 13.4955 13.5433 13.4387C12.6082 12.7933 10.0403 11.021 9.49876 11.021C8.69903 11.021 7.52049 12.7417 7.52049 13.3712C7.52049 13.7489 8.15186 14.1686 9.16203 14.7981C9.35029 14.928 9.55849 15.0679 9.78147 15.2177C10.2066 15.5034 10.6854 15.8251 11.1824 16.183C11.3928 16.3928 11.6033 16.6027 11.6033 16.9384ZM70.7828 36.2855H63.922C62.9118 36.2855 61.9437 36.1596 61.9437 34.9425V30.7458C61.9437 30.6695 61.9436 30.5956 61.9435 30.5241C61.9416 29.1396 61.9409 28.6247 62.7014 28.1857C62.7287 28.1653 62.7582 28.1449 62.7885 28.1239C62.945 28.0157 63.1223 27.8931 63.1223 27.6821C63.1223 27.3884 62.8276 27.2624 62.6172 27.2205C62.2384 27.1365 58.829 26.9267 58.366 26.9267C57.9872 26.9267 57.6926 27.0526 57.6926 27.4723C57.6926 27.6482 57.7109 27.9888 57.7336 28.4103C57.7705 29.0947 57.8188 29.9926 57.8188 30.7458V34.8586C57.8188 35.1733 57.8083 35.4776 57.7978 35.7819C57.7873 36.0861 57.7768 36.3904 57.7768 36.7052C57.7768 40.0626 59.6708 40.1465 63.0802 40.1465H71.1616C73.3082 40.1465 74.6972 40.1465 75.8337 38.7616C76.6755 37.7543 77.6856 34.9425 77.6856 33.6835C77.6856 32.1307 74.8235 31.795 74.4867 31.795C73.7834 31.795 73.7308 32.0788 73.5293 33.1646L73.5187 33.2218C73.0136 35.7819 72.8873 36.2855 70.7828 36.2855ZM81.8105 39.0553C82.4419 39.0553 84.8831 38.216 84.8831 37.4186C84.8831 36.5115 83.1362 33.1739 82.5959 32.1418L82.5682 32.0887C82.021 31.0395 80.5899 28.3956 79.9585 27.4723C79.706 27.1365 79.4955 26.9267 79.0325 26.9267C78.4012 26.9267 76.2125 27.7661 76.2125 28.6474C76.2125 28.9831 76.4229 29.3189 76.6334 29.5707C78.2749 32.2566 79.7481 35.0265 80.9266 37.9642C80.9547 38.0387 80.9806 38.1102 81.0054 38.1783C81.2036 38.7237 81.3241 39.0553 81.8105 39.0553ZM55.9669 30.2421C56.2194 30.1582 56.514 30.0323 56.514 29.6966C56.514 29.2666 55.8569 29.0915 55.3926 28.9678C55.3584 28.9586 55.3252 28.9498 55.2934 28.9412C55.1785 28.9099 54.9677 28.8476 54.7105 28.7717C53.9313 28.5416 52.7265 28.1857 52.4733 28.1857C52.0103 28.1857 51.8841 28.5634 51.7578 28.9831C51.1685 31.0815 49.6953 34.6907 48.4326 36.4534C48.1801 36.7891 47.8013 37.2927 47.8013 37.7124C47.8013 38.6357 49.9479 39.3072 50.7055 39.3072C51.2948 39.3072 51.5894 38.9714 51.8841 38.5098C53.1468 36.4534 54.662 33.2638 55.3776 30.9556C55.5039 30.494 55.5459 30.3681 55.9669 30.2421ZM68.552 25.5418C69.8568 25.5418 70.2777 25.4998 70.446 25.0801L70.4529 25.0637C70.6602 24.5674 70.8317 24.1568 71.4562 24.1568H77.9803C78.317 24.1568 78.4854 24.3247 78.5275 24.6185C78.5695 25.5418 78.9063 25.5418 80.6741 25.5418C80.7406 25.5418 80.8054 25.5418 80.8683 25.5419C82.3968 25.5435 82.8628 25.5439 82.8628 24.5765C82.8628 24.01 82.8418 23.4434 82.8207 22.8768C82.7997 22.3103 82.7786 21.7437 82.7786 21.1771V9.17441C82.7786 8.69178 82.7997 8.21965 82.8207 7.74751C82.8418 7.27538 82.8628 6.80324 82.8628 6.32061C82.8628 4.89372 82.0631 4.64191 80.8003 4.64191C80.3163 4.64191 79.8428 4.6524 79.3693 4.66289C78.8958 4.67338 78.4222 4.68388 77.9382 4.68388H71.0774C70.5934 4.68388 70.1093 4.67338 69.6253 4.66289C69.1412 4.6524 68.6572 4.64191 68.1731 4.64191C66.9525 4.64191 66.1949 4.93568 66.1949 6.32061C66.1949 6.80324 66.2054 7.27538 66.2159 7.74751C66.2265 8.21965 66.237 8.69178 66.237 9.17441V21.1771C66.237 22.1424 66.237 23.1496 66.1949 24.1568C66.1949 24.7864 65.9423 25.0801 65.3952 25.4159C65.3802 25.4242 65.364 25.4331 65.3467 25.4426C64.9252 25.6752 63.8378 26.2751 63.8378 26.7588C63.8378 27.1283 64.164 27.4978 64.4144 27.7813C64.4484 27.8199 64.481 27.8568 64.5113 27.892C65.774 29.3608 66.8262 30.9136 67.8785 32.5084C67.9096 32.5549 67.9407 32.6033 67.9722 32.6524C68.1971 33.0025 68.4458 33.3897 68.8887 33.3897C69.5621 33.3897 71.6246 32.2566 71.6246 31.4592C71.6246 30.7877 68.7203 27.0526 68.1311 26.3811C68.0469 26.2552 68.0048 26.1713 68.0048 26.0034C68.0048 25.7096 68.2573 25.5418 68.552 25.5418ZM59.5123 17.0965C59.5358 17.1132 59.5603 17.1307 59.5867 17.1483C60.0497 17.8617 62.07 20.5057 62.8697 20.5057C63.5432 20.5057 65.0584 18.785 65.0584 18.0296C65.0584 17.6372 64.8009 17.4283 64.389 17.0941C64.3604 17.0708 64.3309 17.0469 64.3008 17.0224C62.6172 15.6794 61.5649 14.5463 60.1759 12.8676C60.0497 12.7417 60.0076 12.6158 60.0076 12.4479C60.0076 12.1121 60.3443 11.9862 60.6389 11.9862H60.9756C61.6381 11.9862 62.3005 12.0128 62.8806 12.036C63.3327 12.0541 63.7349 12.0702 64.0483 12.0702C64.9322 12.0702 64.9322 11.6085 64.9322 10.2236C64.9322 8.83867 64.9322 8.37703 64.0483 8.37703C63.6299 8.37703 63.1644 8.39583 62.674 8.41564C62.1284 8.43768 61.552 8.46096 60.9756 8.46096H60.0917C59.2499 8.46096 58.9132 8.12522 58.9132 7.28587C58.8711 5.27142 58.9132 4.93568 59.4183 4.64191C59.6708 4.51601 60.0076 4.34814 60.0076 4.09633C60.0076 3.73015 59.591 3.68347 59.2891 3.64964C59.245 3.6447 59.2033 3.64004 59.1657 3.63469C58.4502 3.55075 56.0931 3.34091 55.4618 3.34091C55.125 3.34091 54.7883 3.42485 54.7883 3.84452C54.7883 3.92846 54.7883 4.05436 54.8304 4.18027C54.9567 5.35536 54.9988 6.15274 54.9567 7.28587C54.9567 8.12522 54.62 8.46096 53.7781 8.46096H52.2629C51.6449 8.46096 51.0268 8.43614 50.463 8.41349C49.99 8.39449 49.5551 8.37703 49.1903 8.37703C48.3039 8.37703 48.3045 8.83846 48.3062 10.0558C48.3063 10.1102 48.3064 10.1661 48.3064 10.2236C48.3064 10.2811 48.3063 10.337 48.3062 10.3914C48.3045 11.6087 48.3039 12.0702 49.1903 12.0702C49.4773 12.0702 49.8561 12.0549 50.2907 12.0374C50.8759 12.0139 51.5625 11.9862 52.2629 11.9862H52.7259C53.1047 12.0282 53.4835 12.1541 53.4835 12.6158C53.4835 12.7154 53.4572 12.7887 53.4253 12.8774C53.4169 12.9008 53.4081 12.9252 53.3993 12.9515C51.8841 15.8053 50.3688 17.9037 48.1801 20.2539C48.1535 20.2856 48.125 20.3187 48.0953 20.3531C47.89 20.5911 47.6329 20.8891 47.6329 21.2191C47.6329 21.9745 49.3165 23.5693 50.0321 23.5693C50.453 23.5693 50.7055 23.3175 50.9581 23.0237C52.2629 21.5549 53.4414 19.7922 54.4095 18.1135C54.4516 18.0296 54.5358 17.9456 54.662 17.9456C54.8725 17.9456 54.9146 18.1135 54.9567 18.2814V20.2539C54.9567 21.0041 54.9255 21.7647 54.8942 22.5305C54.8624 23.3069 54.8304 24.0886 54.8304 24.8703C54.8304 25.8775 55.2934 25.9195 56.977 25.9195C58.5765 25.9195 59.0395 25.8775 59.0395 24.8703C59.0395 24.0886 59.0075 23.3069 58.9757 22.5305C58.9443 21.7647 58.9132 21.0041 58.9132 20.2539V17.4001C58.9553 17.1902 58.9974 16.9804 59.2499 16.9804C59.3498 16.9804 59.4234 17.0329 59.5123 17.0965ZM109.127 11.063V7.87341C109.127 6.61439 109.169 6.06881 109.632 5.77503C109.683 5.74471 109.732 5.71622 109.779 5.68897C110.12 5.48987 110.348 5.3569 110.348 5.06158C110.348 4.68388 110.011 4.51601 109.717 4.47404C109.169 4.3901 105.971 4.18027 105.423 4.18027C105.002 4.18027 104.455 4.18027 104.455 4.89372C104.455 4.97765 104.466 5.05109 104.476 5.12453C104.487 5.19798 104.497 5.27142 104.497 5.35536C104.638 6.61379 104.632 7.81399 104.626 9.02872C104.625 9.27235 104.624 9.51657 104.624 9.76196V11.063C104.624 11.8603 104.287 12.238 103.445 12.238H98.0996C97.2788 12.238 96.4581 12.2066 95.6373 12.1751C94.8165 12.1436 93.9958 12.1121 93.175 12.1121C92.1627 12.1121 92.1632 12.6171 92.1647 14.0754C92.1648 14.1329 92.1648 14.1919 92.1648 14.2525C92.1648 14.313 92.1648 14.372 92.1647 14.4296C92.1632 15.891 92.1627 16.4348 93.175 16.4348C93.9958 16.4348 94.8165 16.4033 95.6373 16.3719C96.4581 16.3404 97.2788 16.3089 98.0996 16.3089H103.319C104.076 16.3089 104.455 16.6446 104.413 17.442C104.245 19.9601 103.908 22.0165 102.982 24.4087C101.046 29.5287 97.0474 33.5576 92.3332 36.1596C92.2615 36.1986 92.1778 36.2405 92.0874 36.2859C91.5937 36.5333 90.9021 36.88 90.9021 37.3766C90.9021 38.4678 92.712 40.4822 93.7222 40.4822C94.4798 40.4822 97.9733 37.8803 98.7731 37.2507C105.802 31.711 107.949 26.1713 108.875 17.442C108.959 16.6027 109.338 16.3089 110.18 16.3089H117.672C117.734 16.3089 117.795 16.3089 117.854 16.3088C120.011 16.3078 120.45 16.3076 120.45 17.7778C120.45 21.2191 120.071 30.452 119.271 33.5156C118.682 35.7399 117.546 35.9917 115.483 35.9917C114.81 35.9917 114.161 35.9321 113.554 35.8764C113.023 35.8276 112.526 35.7819 112.074 35.7819C111.148 35.7819 111.106 36.4114 111.106 37.2927C111.106 40.5266 111.666 40.5263 114.897 40.5243C114.978 40.5243 115.061 40.5242 115.146 40.5242C118.429 40.5242 121.628 40.2304 122.933 36.7052C124.575 32.2986 124.743 19.7922 124.743 14.6302C124.743 12.6577 123.943 12.1121 122.007 12.1121C121.228 12.1121 120.45 12.1436 119.671 12.1751C118.892 12.2066 118.114 12.238 117.335 12.238H110.306C109.464 12.238 109.127 11.8603 109.127 11.063ZM139.973 6.26592C138.948 6.39088 138.086 6.49606 138.086 6.99209C138.086 7.104 138.123 7.21591 138.161 7.32782C138.179 7.38378 138.198 7.43974 138.212 7.49571C138.486 8.2128 138.676 8.95768 138.874 9.73034C138.919 9.90729 138.965 10.0857 139.012 10.2656C139.433 11.9862 140.611 16.4348 141.116 17.9456C141.243 18.1974 141.285 18.3653 141.285 18.7011C141.285 19.2047 140.99 19.4984 140.569 19.7922C137.076 22.0585 133.287 25.0382 133.287 29.6126C133.287 32.3825 134.803 34.7327 137.16 36.0756C139.938 37.7124 142.674 37.8803 145.788 37.8803C147.809 37.8803 155.764 37.6284 157.363 37.2088C158.205 36.9989 158.247 36.5373 158.247 35.4461V34.9425C158.247 34.0612 158.205 32.3405 157.616 32.3405C157.49 32.3405 157.363 32.3405 157.237 32.3825C153.828 33.012 149.787 33.4737 146.251 33.4737C144.399 33.4737 142.421 33.3477 140.653 32.7182C139.348 32.2566 137.875 31.2074 137.875 29.6966C137.875 28.1018 138.843 26.9687 139.938 25.9195C141.706 24.2408 145.283 22.1844 147.514 20.9673C150.376 19.4145 154.88 17.1483 157.91 16.141C157.941 16.1297 157.972 16.1183 158.004 16.1068C158.327 15.9901 158.71 15.8514 158.71 15.4696C158.71 14.8871 157.841 13.4797 157.498 12.9239L157.49 12.9095C157.474 12.8841 157.457 12.8556 157.439 12.8245C157.151 12.3419 156.488 11.2308 155.974 11.2308C155.67 11.2308 155.365 11.3935 155.083 11.5446C155.014 11.5814 154.946 11.6176 154.88 11.6505C153.786 12.3639 147.051 16.3089 146.293 16.3089C145.613 16.3089 145.465 15.6629 145.344 15.1302C145.338 15.1031 145.331 15.0763 145.325 15.0499C144.736 12.5738 144.273 10.0557 144.021 7.53767C144.012 7.44194 144.005 7.3495 143.999 7.26066C143.941 6.45374 143.904 5.9429 142.842 5.9429C142.303 5.9429 141.738 6.02348 141.21 6.09869C141.078 6.11749 140.948 6.13595 140.822 6.15274C140.536 6.19723 140.249 6.23229 139.973 6.26592ZM170.538 16.2669C171.211 16.2669 171.422 16.5607 171.464 17.1483C171.466 17.2124 171.468 17.2746 171.47 17.335C171.504 18.3414 171.521 18.827 172.474 18.827C173.258 18.827 174.031 18.7951 174.799 18.7634C175.557 18.7321 176.309 18.7011 177.062 18.7011H182.365C183.039 18.7011 183.333 18.9948 183.333 19.7083V20.128C183.333 20.7994 183.039 21.0932 182.365 21.0932H178.451C177.672 21.0932 176.893 21.0722 176.115 21.0512C175.336 21.0303 174.557 21.0093 173.779 21.0093C172.808 21.0093 172.809 21.474 172.81 22.7009C172.811 22.7513 172.811 22.8029 172.811 22.8559C172.811 22.9085 172.811 22.9598 172.81 23.0097C172.809 24.2721 172.808 24.6605 173.821 24.6605C174.599 24.6605 175.368 24.6395 176.136 24.6185C176.904 24.5975 177.672 24.5765 178.451 24.5765H181.944C182.491 24.5765 182.954 24.8283 182.954 25.4159V25.7096C182.933 25.7726 182.923 25.825 182.912 25.8775C182.902 25.93 182.891 25.9824 182.87 26.0454C182.702 26.7588 182.365 26.9687 181.65 26.9687H172.642C171.848 26.9687 171.043 26.948 170.233 26.9271C169.412 26.906 168.586 26.8847 167.76 26.8847C166.792 26.8847 166.792 27.3464 166.792 28.7313C166.792 30.0743 166.792 30.5779 167.76 30.5779C168.586 30.5779 169.412 30.5566 170.233 30.5355C171.043 30.5147 171.848 30.494 172.642 30.494H180.008C180.303 30.494 180.639 30.6199 180.639 30.9976C180.639 31.1654 180.597 31.2913 180.513 31.3753C177.946 34.4809 173.063 36.4114 169.149 36.873C169.019 36.8886 168.891 36.9016 168.766 36.9142C167.882 37.0039 167.17 37.0761 167.17 37.9222C167.17 38.6357 167.802 40.9859 169.064 40.9859C169.485 40.9859 170.538 40.818 171.001 40.7341C175.883 39.7268 181.986 36.873 184.806 32.5923C184.975 32.3825 185.143 32.2146 185.438 32.2146C185.69 32.2146 185.859 32.3405 186.027 32.5084C188.3 35.614 191.373 37.7543 194.866 39.2232C196.171 39.7688 200.212 41.1957 201.474 41.1957C202.737 41.1957 203.579 39.0134 203.579 38.0481C203.579 37.3089 203.095 37.2127 202.286 37.0516L202.232 37.0409C198.107 36.2855 193.14 34.3969 190.152 31.3333C190.137 31.3117 190.123 31.2913 190.109 31.2716C190.041 31.1761 189.984 31.0947 189.984 30.9556C189.984 30.6199 190.32 30.494 190.573 30.494H198.149C198.975 30.494 199.801 30.5152 200.622 30.5363C201.432 30.5572 202.237 30.5779 203.032 30.5779C204.002 30.5779 204.001 30.152 204 28.8911C204 28.8392 204 28.786 204 28.7313C204 28.6766 204 28.6234 204 28.5716C204.001 27.3107 204.002 26.8847 203.032 26.8847C202.237 26.8847 201.432 26.9055 200.622 26.9263C199.801 26.9474 198.975 26.9687 198.149 26.9687H188.216C187.669 26.9687 187.248 26.7169 187.248 26.0874V25.8355C187.248 25.7978 187.256 25.7516 187.266 25.7007C187.277 25.6384 187.29 25.5691 187.29 25.4998C187.416 24.8283 187.753 24.5765 188.426 24.5765H192.467C193.246 24.5765 194.014 24.5975 194.782 24.6185C195.55 24.6395 196.318 24.6605 197.097 24.6605C198.109 24.6605 198.109 24.2721 198.107 23.0097C198.107 22.9598 198.107 22.9085 198.107 22.8559C198.107 22.8029 198.107 22.7513 198.107 22.7009C198.109 21.474 198.109 21.0093 197.139 21.0093C196.36 21.0093 195.582 21.0303 194.803 21.0512C194.024 21.0722 193.246 21.0932 192.467 21.0932H188.552C187.879 21.0932 187.584 20.7994 187.584 20.128V19.7083C187.584 18.9948 187.879 18.7011 188.552 18.7011H193.772C194.529 18.7011 195.298 18.7325 196.066 18.764C196.834 18.7955 197.602 18.827 198.36 18.827C199.317 18.827 199.334 18.3407 199.361 17.5577C199.363 17.48 199.366 17.3994 199.37 17.3161C199.412 16.7286 199.664 16.4768 200.296 16.4768H201.053C202.527 16.4768 203.074 16.3928 203.074 15.4696C203.074 15.2018 203.043 14.8835 203.012 14.5594C202.98 14.223 202.947 13.8802 202.947 13.581V12.0702C202.947 11.4995 202.977 10.9289 203.001 10.4623C203.018 10.1397 203.032 9.86676 203.032 9.67802C203.032 8.20916 201.811 7.91538 200.59 7.91538C199.838 7.91538 199.075 7.93608 198.307 7.95692C197.528 7.97805 196.744 7.99932 195.96 7.99932H188.889C188.132 7.99932 187.711 7.66358 187.711 6.86619C187.669 5.98487 187.711 5.39733 188.216 5.01962C188.286 4.9598 188.351 4.90945 188.41 4.86408C188.598 4.71846 188.721 4.62406 188.721 4.43207C188.721 3.98897 188.102 3.93573 187.695 3.90075C187.639 3.89597 187.588 3.89153 187.542 3.88649C186.616 3.80256 184.722 3.63469 183.838 3.63469C183.417 3.63469 183.039 3.67665 183.039 4.18027C183.039 4.30617 183.039 4.43207 183.081 4.55797C183.207 5.27142 183.249 6.15274 183.249 6.86619C183.165 7.66358 182.87 7.99932 182.071 7.99932H174.957C174.138 7.99932 173.368 7.97479 172.661 7.95225C172.059 7.9331 171.503 7.91538 171.001 7.91538C169.064 7.91538 167.928 8.16719 167.928 9.67802C167.928 9.89196 167.936 10.1892 167.944 10.5312C167.956 10.9942 167.97 11.5391 167.97 12.0702V13.3712C167.97 13.6859 167.949 14.0112 167.928 14.3364C167.907 14.6617 167.886 14.9869 167.886 15.3017C167.886 16.2693 168.507 16.2686 169.974 16.2671C170.034 16.267 170.096 16.2669 170.159 16.2669H170.538ZM231.08 31.1287C231.194 30.8608 231.247 30.7386 231.569 30.5779C231.585 30.5714 231.603 30.5645 231.623 30.557C231.854 30.4671 232.285 30.3003 232.285 29.9903C232.285 29.7805 232.116 29.6126 231.948 29.5287C231.292 29.2344 230.611 28.9656 229.943 28.7024C229.754 28.6278 229.566 28.5536 229.38 28.4795L229.29 28.4434C228.889 28.283 228.437 28.1018 228.202 28.1018C227.808 28.1018 227.709 28.5061 227.629 28.8332C227.623 28.8556 227.618 28.8777 227.613 28.8992C226.645 32.8861 222.688 35.9078 218.816 36.915C218.544 36.9827 218.303 37.0405 218.09 37.0916C216.849 37.3893 216.543 37.4628 216.543 37.9642C216.543 38.8875 217.511 41.0698 218.605 41.0698C219.952 41.0698 223.151 39.7268 224.414 39.0134C227.528 37.2088 229.843 34.5648 231.064 31.1654L231.08 31.1287ZM234.01 28.8992V34.9006C234.01 35.2363 234 35.572 233.989 35.9078C233.979 36.2435 233.968 36.5793 233.968 36.915C233.968 39.7688 235.021 40.3563 237.756 40.3563H241.755C243.27 40.3563 244.323 40.1465 245.164 38.8035C245.838 37.7543 246.553 34.9425 246.553 33.7255C246.553 32.4245 244.575 32.0468 243.523 32.0468C242.892 32.0468 242.681 32.2986 242.555 33.0959C242.176 35.7819 241.966 36.2015 240.829 36.2015H239.524C238.598 36.2015 238.219 36.0756 238.219 35.0684V28.8992C238.219 28.1018 238.556 27.7241 239.356 27.7241H239.566C240.029 27.7241 240.503 27.7451 240.976 27.7661C241.45 27.787 241.923 27.808 242.386 27.808C243.775 27.808 244.281 27.3044 244.281 25.9195C244.281 25.4159 244.259 24.9123 244.238 24.4087C244.217 23.905 244.196 23.4014 244.196 22.8978V9.55212C244.196 9.04851 244.217 8.5449 244.238 8.04128C244.259 7.53767 244.281 7.03406 244.281 6.53045C244.281 5.14552 243.775 4.64191 242.386 4.64191C241.897 4.64191 241.418 4.66336 240.945 4.68458C240.482 4.70532 240.024 4.72584 239.566 4.72584H229.254C228.791 4.72584 228.318 4.70486 227.844 4.68388C227.371 4.66289 226.897 4.64191 226.434 4.64191C225.045 4.64191 224.54 5.14552 224.54 6.53045C224.54 7.03406 224.561 7.53767 224.582 8.04128C224.603 8.5449 224.624 9.04851 224.624 9.55212V22.8978C224.624 23.4014 224.603 23.905 224.582 24.4087C224.561 24.9123 224.54 25.4159 224.54 25.9195C224.54 27.3464 225.129 27.808 226.476 27.808C226.939 27.808 227.402 27.787 227.865 27.7661C228.328 27.7451 228.791 27.7241 229.254 27.7241H232.832C233.632 27.7241 234.01 28.1018 234.01 28.8992ZM218.268 15.3856V11.1049C218.268 10.3075 218.563 10.0138 219.405 9.9718C219.801 9.9718 220.427 9.99473 221.025 10.0166C221.57 10.0366 222.092 10.0557 222.393 10.0557C223.28 10.0557 223.279 9.63288 223.277 8.19855C223.277 8.1342 223.277 8.0678 223.277 7.99932C223.277 7.93456 223.277 7.87165 223.277 7.81055C223.279 6.44624 223.28 5.98487 222.393 5.98487C221.949 5.98487 221.425 6.01138 220.858 6.04006C220.189 6.0739 219.46 6.11078 218.731 6.11078H213.723C213.001 6.11078 212.279 6.07462 211.609 6.04106C211.029 6.01199 210.488 5.98487 210.019 5.98487C209.132 5.98487 209.133 6.5618 209.135 7.86296C209.135 7.92096 209.135 7.98039 209.135 8.04129C209.135 8.10035 209.135 8.15805 209.135 8.21438C209.133 9.47877 209.132 10.0557 210.019 10.0557C210.325 10.0557 210.857 10.036 211.407 10.0157C211.992 9.99411 212.596 9.9718 212.965 9.9718C213.807 10.0138 214.102 10.3495 214.102 11.1049V15.3856C214.102 16.183 213.765 16.5187 212.965 16.5607C212.586 16.5607 212.207 16.5397 211.829 16.5187C211.45 16.4978 211.071 16.4768 210.692 16.4768C209.806 16.4768 209.806 16.9767 209.808 18.3077C209.808 18.3672 209.808 18.4284 209.808 18.4912C209.808 18.5523 209.808 18.6117 209.808 18.6695C209.806 19.9638 209.806 20.4637 210.692 20.4637C210.725 20.4637 211.042 20.4511 211.43 20.4357C212.044 20.4113 212.836 20.3798 212.965 20.3798C213.807 20.4217 214.102 20.7575 214.102 21.5549V27.2205C214.102 28.0598 213.849 28.4375 213.049 28.6474C212.139 28.8893 211.426 29.0005 210.847 29.0908C210.622 29.1259 210.417 29.1578 210.229 29.193L210.121 29.2132C208.866 29.4474 208.588 29.4994 208.588 29.9484C208.588 30.41 209.472 32.9281 209.682 33.5156L209.704 33.5807C209.899 34.1654 209.99 34.4389 210.355 34.4389C210.65 34.4389 210.818 34.1871 210.945 33.9353C211.113 33.3897 211.155 33.3058 212.207 33.012C214.943 32.2566 219.868 30.8297 222.393 29.7805C223.235 29.4448 223.361 29.2769 223.361 28.0598C223.361 27.4303 223.361 25.9615 222.478 25.9615C222.183 25.9615 219.826 26.8008 219.363 26.9687C219.3 26.9687 219.237 26.9792 219.173 26.9897C219.11 27.0002 219.047 27.0106 218.984 27.0106C218.437 27.0106 218.268 26.591 218.268 26.0874V21.5549C218.268 20.7575 218.563 20.4217 219.363 20.3798C219.461 20.3798 220.138 20.4086 220.698 20.4324C221.094 20.4493 221.432 20.4637 221.467 20.4637C222.312 20.4637 222.311 19.9658 222.309 18.6773C222.309 18.617 222.309 18.555 222.309 18.4912C222.309 18.4265 222.309 18.3635 222.309 18.3025C222.311 16.9381 222.312 16.4768 221.425 16.4768C221.393 16.4768 221.107 16.4894 220.758 16.5048C220.205 16.5292 219.492 16.5607 219.363 16.5607C218.563 16.5187 218.268 16.183 218.268 15.3856ZM270.335 11.063V7.87341C270.335 6.61439 270.377 6.06881 270.84 5.77503C270.89 5.74472 270.939 5.71623 270.986 5.68898C271.327 5.48987 271.555 5.3569 271.555 5.06158C271.555 4.68388 271.219 4.51601 270.924 4.47404C270.377 4.3901 267.178 4.18027 266.631 4.18027C266.21 4.18027 265.663 4.18027 265.663 4.89372C265.663 4.97765 265.673 5.05109 265.684 5.12453C265.694 5.19798 265.705 5.27142 265.705 5.35536C265.845 6.61384 265.839 7.81409 265.833 9.02886C265.832 9.27245 265.831 9.51662 265.831 9.76196V11.063C265.831 11.8603 265.494 12.238 264.652 12.238H259.307C258.486 12.238 257.665 12.2066 256.845 12.1751C256.024 12.1436 255.203 12.1121 254.382 12.1121C253.37 12.1121 253.37 12.6171 253.372 14.0753C253.372 14.1329 253.372 14.1919 253.372 14.2525C253.372 14.313 253.372 14.3721 253.372 14.4297C253.37 15.891 253.37 16.4348 254.382 16.4348C255.203 16.4348 256.024 16.4033 256.845 16.3719C257.665 16.3404 258.486 16.3089 259.307 16.3089H264.526C265.284 16.3089 265.663 16.6446 265.621 17.442C265.452 19.9601 265.115 22.0165 264.189 24.4087C262.253 29.5287 258.255 33.5576 253.54 36.1596C253.469 36.1986 253.385 36.2405 253.295 36.2859C252.801 36.5333 252.109 36.88 252.109 37.3766C252.109 38.4678 253.919 40.4822 254.929 40.4822C255.687 40.4822 259.181 37.8803 259.98 37.2507C267.009 31.711 269.156 26.1713 270.082 17.442C270.166 16.6027 270.545 16.3089 271.387 16.3089L279.062 16.3088C281.219 16.3078 281.657 16.3076 281.657 17.7778C281.657 21.2191 281.278 30.452 280.478 33.5156C279.889 35.7399 278.753 35.9917 276.69 35.9917C276.017 35.9917 275.368 35.9321 274.762 35.8764C274.231 35.8276 273.733 35.7819 273.281 35.7819C272.355 35.7819 272.313 36.4114 272.313 37.2927C272.313 40.5266 272.874 40.5263 276.104 40.5243C276.186 40.5243 276.269 40.5242 276.354 40.5242C279.637 40.5242 282.836 40.2304 284.14 36.7052C285.782 32.2986 285.95 19.7922 285.95 14.6302C285.95 12.6577 285.151 12.1121 283.214 12.1121C282.436 12.1121 281.657 12.1436 280.878 12.1751C280.1 12.2066 279.321 12.238 278.542 12.238H271.513C270.671 12.238 270.335 11.8603 270.335 11.063ZM294.438 11.1437C293.092 11.2185 292.643 11.2434 292.643 12.1961C292.643 12.9095 292.937 14.5043 293.106 15.2177C293.113 15.2453 293.121 15.2745 293.129 15.305C293.258 15.7863 293.478 16.6027 294.032 16.6027C294.242 16.6027 294.453 16.5607 294.663 16.5187C297.357 15.8053 301.145 15.2177 303.965 14.7981C304.141 14.7805 304.582 14.7115 305.058 14.6372C305.719 14.534 306.445 14.4204 306.617 14.4204C306.911 14.4204 307.248 14.5463 307.248 14.924C307.248 15.1338 306.996 15.4276 306.533 15.9312C303.67 19.0788 301.903 23.6952 301.903 27.9759C301.903 36.1596 308.048 38.4258 315.203 38.4258C315.919 38.4258 316.256 38.3419 316.55 37.7124C316.887 36.957 317.182 35.1104 317.182 34.271C317.182 33.5996 316.845 33.5576 316.213 33.5576C316.007 33.5576 315.709 33.5659 315.378 33.5752C314.967 33.5867 314.505 33.5996 314.109 33.5996C309.816 33.5996 306.701 32.4245 306.701 27.5562C306.701 24.9962 307.501 22.3942 308.721 20.1699C310.363 17.1483 312.636 15.0918 315.877 13.9167C318.174 13.1131 320.24 13.0789 322.554 13.0406C322.657 13.0389 322.76 13.0372 322.864 13.0354C322.971 13.031 323.076 13.028 323.18 13.025C324.051 12.9999 324.758 12.9796 324.758 12.1541C324.758 11.4407 324.547 9.80392 324.379 9.09048L324.376 9.07405C324.293 8.57508 324.204 8.04129 323.579 8.04129C323.411 8.04129 323.201 8.04129 323.032 8.08325C319.875 8.58686 316.676 9.00654 313.478 9.38425C307.374 10.0977 301.229 10.7272 295.084 11.1049C294.849 11.1209 294.634 11.1328 294.438 11.1437ZM328.125 19.0368C328.125 18.5332 324.884 14.6302 324.463 14.6302C323.958 14.6302 322.317 15.7214 322.317 16.225C322.317 16.3928 322.485 16.6446 322.611 16.7705C323.453 17.6938 324.674 19.2466 325.347 20.2539C325.38 20.2953 325.414 20.3416 325.448 20.3893C325.587 20.5832 325.742 20.7994 325.978 20.7994C326.484 20.7994 328.125 19.6243 328.125 19.0368ZM323.032 21.345C323.032 20.8414 319.833 16.9384 319.37 16.9384C318.907 16.9384 317.224 17.9876 317.224 18.4912C317.224 18.7011 317.476 18.9529 317.602 19.0788C318.528 20.2119 319.454 21.387 320.296 22.604C320.332 22.6486 320.366 22.6969 320.4 22.7455C320.526 22.9254 320.654 23.1077 320.886 23.1077C321.349 23.1077 323.032 21.9745 323.032 21.345Z" fill="#1C1C1C"/>
<path d="M34.5897 136.145C34.5897 134.676 37.1573 134.466 38.2095 134.466C38.2353 134.466 38.2623 134.466 38.2906 134.466C39.0029 134.465 40.4824 134.461 40.4824 135.39C40.4824 137.278 39.1776 137.656 37.3256 137.656C36.3996 137.656 34.5897 137.362 34.5897 136.145Z" fill="#1C1C1C"/>
<path d="M66.0315 121.582C66.0315 120.197 70.3668 118.812 71.377 118.812C71.7558 118.812 71.9662 119.022 71.9662 119.4C71.9662 120.575 69.8196 127.5 68.7253 127.5C68.3527 127.5 68.178 127.105 67.8802 126.433C67.8415 126.345 67.8007 126.253 67.7572 126.157C67.4625 125.485 66.0315 122.128 66.0315 121.582Z" fill="#1C1C1C"/>
<path d="M65.6004 131.103C65.6727 131.279 65.7368 131.435 65.7368 131.655C65.7368 132.62 63.4218 134.131 62.2012 134.131C60.7701 134.131 60.6018 132.158 60.6018 131.067C60.6018 128.381 61.9066 125.275 62.58 125.275C62.8747 125.275 63.0851 125.653 63.1693 125.863C63.9269 127.626 64.7267 129.304 65.5685 131.025C65.5792 131.052 65.5899 131.078 65.6004 131.103Z" fill="#1C1C1C"/>
<path d="M178.698 133.963C180.171 133.963 181.308 135.138 181.308 136.439C181.308 137.11 180.971 137.866 180.171 137.866C178.909 137.866 176.888 137.152 176.888 135.641C176.888 134.634 177.772 133.963 178.698 133.963Z" fill="#1C1C1C"/>
<path d="M262.627 119.064V118.812C262.627 118.225 263.048 117.805 263.637 117.805H267.888C268.478 117.805 268.899 118.225 268.899 118.812V119.064C268.899 119.652 268.478 120.071 267.888 120.071H263.637C263.048 120.071 262.627 119.652 262.627 119.064Z" fill="#1C1C1C"/>
<path d="M252.988 117.805H257.24C257.829 117.805 258.25 118.225 258.25 118.812V119.064C258.25 119.652 257.829 120.071 257.24 120.071H252.988C252.399 120.071 251.978 119.652 251.978 119.064V118.812C251.978 118.225 252.399 117.805 252.988 117.805Z" fill="#1C1C1C"/>
<path d="M263.427 131.948H269.151C269.614 131.99 269.909 132.284 269.951 132.746V132.956C269.951 133.459 269.614 133.753 269.151 133.753H263.427C262.964 133.753 262.627 133.459 262.627 132.956V132.746C262.669 132.284 262.964 131.99 263.427 131.948Z" fill="#1C1C1C"/>
<path d="M262.627 128.465V128.297C262.669 127.835 262.964 127.542 263.427 127.5H269.151C269.614 127.542 269.909 127.835 269.951 128.297V128.465C269.951 128.969 269.614 129.262 269.151 129.262H263.427C262.964 129.262 262.627 128.969 262.627 128.465Z" fill="#1C1C1C"/>
<path fill-rule="evenodd" clip-rule="evenodd" d="M318.439 103.167H12.3203V147H318.439V103.167ZM48.8585 113.357C48.8585 112.769 48.5638 109.873 47.8062 109.873C47.722 109.873 47.4274 109.915 47.3432 109.957C43.5971 111.09 40.3141 111.426 36.4417 111.426C35.5999 111.426 33.7479 111.384 32.9903 111.3C32.8219 111.258 32.5694 111.258 32.4431 111.258C31.8538 111.258 31.6434 111.594 31.6434 112.098C31.6434 112.475 31.8117 114.616 31.8959 114.951C32.0643 115.665 32.5273 115.707 33.2849 115.707C34.3727 115.707 36.1985 115.567 37.4908 115.467C38.1986 115.413 38.7463 115.371 38.9251 115.371C39.6827 115.371 39.809 115.581 39.809 119.316C39.809 120.617 39.2618 120.743 33.0745 120.743C32.5735 120.743 32.0726 120.72 31.5891 120.699C31.1383 120.679 30.7027 120.659 30.2965 120.659C29.5809 120.659 29.4547 120.953 29.4547 121.624C29.4547 121.96 29.6651 124.478 29.7914 124.73C29.9743 125.095 30.6663 125.079 31.1205 125.069C31.1888 125.067 31.2517 125.066 31.3067 125.066C33.2849 125.066 36.9047 124.898 38.883 124.688C38.9525 124.688 39.022 124.675 39.0845 124.664C39.1355 124.654 39.1819 124.646 39.2197 124.646C39.8932 124.646 40.0615 125.15 40.1036 125.695C40.1193 126.023 40.1583 126.607 40.2011 127.248C40.2733 128.329 40.3562 129.57 40.3562 130.018C40.3562 130.521 39.9773 130.941 39.4302 130.941C39.3323 130.941 39.1713 130.928 38.974 130.913C38.6621 130.889 38.2596 130.857 37.8728 130.857C34.5897 130.857 30.6753 132.326 30.6753 136.187C30.6753 139.88 34.3793 141.223 37.494 141.223C39.809 141.223 42.9658 140.594 43.8497 138.16C43.8929 138.049 43.9315 137.944 43.9677 137.847C44.178 137.279 44.3025 136.942 44.7336 136.942C45.4912 136.942 47.2169 138.663 47.7641 139.209C47.8062 139.251 47.8483 139.303 47.8904 139.356C47.9325 139.408 47.9746 139.461 48.0167 139.502C48.4376 139.964 48.7322 140.258 49.111 140.258C50.0791 140.258 51.6785 137.992 51.6785 137.194C51.6785 135.935 46.7118 133.123 45.5754 132.578C44.5231 132.116 44.3548 131.948 44.3127 130.773C44.2935 130.142 44.2306 129.128 44.1679 128.115C44.0929 126.905 44.018 125.698 44.018 125.15C44.018 123.995 45.0126 123.865 46.4721 123.674C46.6572 123.65 46.8497 123.625 47.0486 123.597C50.5842 123.051 51.426 122.841 51.426 122.002C51.426 121.54 51.1735 120.197 51.0472 119.736C50.8788 119.064 50.7105 118.477 50.2475 118.477C49.8814 118.477 49.3583 118.673 49.0196 118.799L48.9847 118.812C48.2271 119.064 45.1545 119.904 44.5231 119.904C43.8076 119.904 43.7234 119.232 43.7234 117.679V116.252C43.7234 115.203 44.1022 114.826 45.1545 114.7C48.0167 114.364 48.8585 114.196 48.8585 113.357ZM27.2956 110.318C27.1371 110.247 26.9933 110.183 26.8871 110.125C25.9191 109.622 24.1933 108.824 23.8145 108.824C23.3936 108.824 23.3094 109.328 23.2673 109.622C23.0779 110.629 22.8175 111.636 22.5571 112.643C22.4703 112.979 22.3834 113.315 22.2993 113.65C21.0365 118.477 20.2368 122.506 20.2368 127.542C20.2368 131.864 20.8682 136.775 22.5939 140.762C22.6132 140.806 22.6327 140.853 22.6526 140.9C22.8939 141.472 23.1957 142.188 23.8566 142.188C24.3957 142.188 25.1798 141.863 25.6859 141.652L25.7086 141.643C25.7424 141.627 25.7759 141.612 25.8091 141.596C26.3969 141.325 26.8871 141.099 26.8871 140.384C26.8871 140.163 26.8678 139.932 26.8477 139.691C26.8258 139.43 26.803 139.157 26.803 138.873C26.803 136.775 27.729 134.215 28.4866 132.284C28.6549 131.906 29.1179 130.773 29.1179 130.479C29.1179 129.934 27.729 129.095 27.308 129.095C26.9565 129.095 26.75 129.564 26.5875 129.934C26.5749 129.962 26.5626 129.991 26.5504 130.018C26.4241 130.354 26.2979 130.647 26.1716 130.899C25.8349 131.697 25.6244 132.158 25.2877 132.158C25.0351 132.158 24.9089 131.99 24.8668 131.78C24.5722 130.689 24.4459 128.717 24.4459 127.542C24.4459 123.261 25.4561 117.302 26.9713 113.273C27.3501 112.307 27.5185 112.14 27.9394 111.888C27.9652 111.872 27.9936 111.856 28.0234 111.839C28.2371 111.718 28.5287 111.553 28.5287 111.258C28.5287 110.87 27.8286 110.557 27.2956 110.318ZM77.5643 109.37C76.9329 109.118 73.9866 108.404 73.3973 108.404C72.8922 108.404 72.8081 108.74 72.8081 109.16C72.8081 109.449 72.8182 109.747 72.8286 110.051C72.8393 110.366 72.8501 110.686 72.8501 111.006C72.8501 114.196 72.766 114.448 71.3349 114.658C69.2304 114.993 67.6309 115.539 65.7368 116.504C65.4843 116.63 65.3159 116.714 65.0213 116.714C64.5583 116.714 64.3899 116.42 64.2636 116.043C64.0111 115.077 63.6744 113.483 63.506 112.475C63.4996 112.434 63.4934 112.391 63.4871 112.348C63.4117 111.831 63.3282 111.258 62.7063 111.258C62.1591 111.258 60.0125 111.888 59.3811 112.098C59.0444 112.182 58.7077 112.391 58.7077 112.769C58.7077 112.935 58.7605 113.128 58.8034 113.284C58.8146 113.325 58.8252 113.364 58.834 113.399C59.1149 114.259 59.3671 115.119 59.618 115.975C59.8934 116.914 60.1672 117.848 60.4755 118.77C60.6018 119.106 60.728 119.442 60.728 119.778C60.728 120.197 60.5597 120.449 60.265 120.743C57.6554 123.723 56.3506 127.122 56.3506 131.109C56.3506 134.34 57.6554 138.411 61.5699 138.411C65.3159 138.411 68.7253 135.516 70.8719 132.662C73.5657 129.095 75.4598 124.31 76.2595 119.904C76.3437 119.442 76.5962 118.896 77.1855 118.896C78.364 118.896 83.8779 120.869 83.8779 126.576C83.8779 132.242 78.8691 135.809 73.9866 137.404C73.9114 137.428 73.8367 137.45 73.7633 137.472C73.18 137.647 72.6818 137.796 72.6818 138.243C72.6818 139.083 74.3654 141.643 75.3335 141.643C75.9059 141.643 76.7206 141.263 77.2755 141.005C77.3326 140.978 77.387 140.953 77.438 140.929C83.457 138.076 88.2974 133.753 88.2974 126.66C88.2974 120.575 84.383 116.462 78.6166 114.993C78.5426 114.972 78.4654 114.953 78.3868 114.933C77.8392 114.793 77.2276 114.636 77.2276 113.902C77.2276 113.86 77.2381 113.787 77.2486 113.713C77.2591 113.64 77.2697 113.566 77.2697 113.525C77.2876 113.375 77.303 113.232 77.3179 113.093C77.4078 112.257 77.4797 111.589 77.9852 110.797C78.02 110.727 78.0579 110.664 78.0946 110.604C78.1914 110.443 78.2798 110.296 78.2798 110.083C78.2798 109.675 77.8812 109.505 77.5882 109.38L77.5643 109.37ZM102.314 116.294C101.598 116.043 98.6517 115.119 98.0204 115.119C97.3469 115.119 97.3048 115.749 97.3048 116.966C97.3048 117.108 97.295 117.25 97.2848 117.397C97.274 117.553 97.2627 117.716 97.2627 117.889C97.1365 120.953 96.7997 124.016 96.2526 127.038C96 128.423 95.6633 129.808 95.2845 131.151C95.2471 131.275 95.1949 131.418 95.1401 131.568C95.0096 131.925 94.8636 132.324 94.8636 132.62C94.8636 133.837 97.6836 134.257 98.0625 134.257C98.6216 134.257 98.9533 133.841 99.2734 133.44C99.2907 133.418 99.3079 133.397 99.3252 133.375C101.977 130.06 106.439 126.367 110.858 126.367C113.552 126.367 115.909 127.919 115.909 130.815C115.909 134.382 112.794 135.683 109.806 136.439C108.038 136.9 106.018 137.194 104.208 137.278C103.661 137.32 103.155 137.362 103.155 138.034C103.155 138.747 103.576 140.132 103.871 140.762C104.25 141.559 104.502 141.937 105.428 141.937C106.733 141.937 109.595 141.181 110.9 140.803C115.993 139.293 120.455 136.775 120.455 130.815C120.455 125.527 116.456 122.086 111.279 122.086C107.28 122.086 104.755 123.765 101.64 125.947C101.472 126.073 101.303 126.199 101.093 126.199C100.798 126.199 100.672 125.947 100.672 125.695C100.672 125.503 100.721 125.237 100.763 125.01C100.776 124.94 100.788 124.873 100.798 124.814C101.075 123.543 101.28 122.254 101.483 120.97C101.588 120.304 101.693 119.64 101.809 118.98C101.817 118.936 101.826 118.893 101.834 118.851C101.983 118.101 102.054 117.741 102.692 117.344C102.861 117.26 103.071 117.134 103.071 116.882C103.071 116.595 102.733 116.461 102.45 116.35C102.402 116.331 102.356 116.313 102.314 116.294ZM103.071 107.229C102.061 107.229 100.714 109.747 100.714 110.293C100.714 110.677 101.093 110.887 101.463 111.092C101.537 111.133 101.612 111.174 101.682 111.216C103.492 112.224 105.386 113.441 106.986 114.784C107.064 114.842 107.153 114.918 107.25 115.002C107.572 115.276 107.977 115.623 108.333 115.623C109.216 115.623 110.942 113.063 110.942 112.307C110.942 111.667 108.976 110.52 108.116 110.018C108.018 109.961 107.934 109.912 107.87 109.873C107.767 109.811 107.616 109.717 107.429 109.601C106.239 108.861 103.617 107.229 103.071 107.229ZM140.775 107.775C140.354 107.649 136.86 107.187 136.397 107.187C135.934 107.187 135.724 107.313 135.724 107.775C135.724 107.902 135.732 108.069 135.741 108.258C135.752 108.505 135.766 108.79 135.766 109.076C135.766 110.111 135.713 111.358 135.666 112.453C135.63 113.311 135.597 114.076 135.597 114.574C135.597 115.077 135.555 115.539 135.387 115.833C134.882 116.84 129.536 117.763 128.274 117.931C128.201 117.943 128.12 117.954 128.035 117.965C127.532 118.029 126.885 118.112 126.885 118.687C126.885 119.232 127.516 120.995 127.769 121.54C127.979 122.086 128.316 122.715 128.989 122.715C129.789 122.715 133.198 121.372 134.082 120.995C134.293 120.911 134.629 120.785 134.84 120.785C135.219 120.785 135.387 121.079 135.387 121.414C135.387 121.577 135.367 121.75 135.347 121.928C135.325 122.117 135.303 122.311 135.303 122.506C135.261 123.261 135.219 123.681 134.798 124.478C132.862 127.961 130.883 131.403 128.61 134.718C128.593 134.742 128.574 134.769 128.552 134.8C128.302 135.145 127.769 135.882 127.769 136.229C127.769 136.942 130.21 138.999 130.925 138.999C131.178 138.999 131.346 138.747 131.473 138.495C131.893 137.698 133.198 135.432 133.661 134.676C133.764 134.522 133.86 134.368 133.949 134.224C134.226 133.776 134.449 133.417 134.671 133.417C134.966 133.417 135.05 133.753 135.05 133.963C135.05 135.268 134.93 137.895 134.855 139.519C134.822 140.245 134.798 140.771 134.798 140.887C134.798 141.727 135.555 141.727 136.566 141.727C139.639 141.727 139.639 141.318 139.638 141.025L139.638 141.013C139.638 140.688 139.575 139.466 139.509 138.171C139.481 137.628 139.453 137.073 139.428 136.565C139.416 136.368 139.401 136.131 139.386 135.884C139.346 135.235 139.301 134.523 139.301 134.34C139.301 134.098 139.291 133.592 139.278 132.962C139.238 131.088 139.175 128.118 139.301 127.71C139.523 127.121 140.746 125.921 141.413 125.266C141.508 125.173 141.591 125.091 141.659 125.024C142.963 123.639 144.731 122.128 146.246 120.953C146.312 120.903 146.379 120.852 146.448 120.799C147.31 120.138 148.438 119.274 149.529 119.274C150.792 119.274 150.792 120.743 150.792 121.666C150.792 123.555 150.655 125.454 150.519 127.353C150.382 129.252 150.245 131.151 150.245 133.039C150.245 135.683 150.582 139.754 154.117 139.754C156.222 139.754 158.369 138.537 160.052 137.32C160.076 137.303 160.103 137.283 160.133 137.262C160.673 136.872 162.072 135.863 162.072 135.306C162.072 134.634 160.852 131.487 160.136 131.487C159.8 131.487 159.547 131.738 159.337 131.948C158.579 132.788 156.769 134.592 155.633 134.592C154.703 134.592 154.705 133.237 154.706 132.237C154.707 132.196 154.707 132.156 154.707 132.116C154.707 130.776 154.78 129.363 154.852 127.97C154.874 127.53 154.897 127.093 154.917 126.66C155.043 124.52 155.128 122.338 155.128 120.155C155.128 118.896 155.085 117.26 154.37 116.168C153.654 115.035 152.055 114.322 150.75 114.322C148.435 114.322 146.331 115.833 144.647 117.302C143.637 118.141 141.953 119.652 141.069 120.575C140.985 120.659 140.859 120.785 140.733 120.785C140.48 120.785 140.396 120.575 140.396 120.365C140.396 120.155 140.438 119.862 140.48 119.694C140.606 119.4 141.406 117.931 141.616 117.637C141.636 117.608 141.661 117.576 141.687 117.542C141.771 117.432 141.869 117.304 141.869 117.176C141.869 116.84 141.196 115.497 140.438 115.245C140.059 115.119 139.764 114.993 139.764 114.532C139.764 114.094 139.928 112.839 140.046 111.934C140.087 111.624 140.122 111.356 140.143 111.174C140.171 110.984 140.196 110.812 140.218 110.658C140.394 109.422 140.414 109.277 140.901 108.866C141.069 108.698 141.238 108.488 141.238 108.237C141.238 107.985 140.985 107.859 140.775 107.775ZM189.347 113.147C189.347 112.433 186.906 109.244 185.222 109.244C184.841 109.244 184.317 109.443 183.886 109.607C183.793 109.642 183.705 109.676 183.623 109.705C181.182 110.671 175.668 111.258 172.974 111.258H171.964C170.701 111.258 170.659 111.342 170.659 112.307C170.659 113.021 170.785 116.168 171.711 116.168C172.385 116.168 178.32 114.951 179.33 114.7C179.406 114.687 179.51 114.667 179.623 114.644C179.883 114.593 180.193 114.532 180.34 114.532C180.677 114.532 181.055 114.658 181.055 115.035C181.055 115.455 180.298 116.21 179.961 116.546C176.089 120.785 171.206 125.989 166.871 129.724C166.852 129.738 166.833 129.753 166.814 129.768C166.432 130.063 165.861 130.504 165.861 130.983C165.861 131.655 168.007 134.005 168.891 134.005C169.102 134.005 169.228 133.879 169.354 133.711C170.869 131.99 172.385 130.27 174.026 128.675C176.72 126.031 179.624 124.562 183.455 124.562C187.116 124.562 190.568 126.241 190.568 130.312C190.568 134.55 186.569 136.775 185.475 136.775C185.138 136.775 185.012 136.523 184.97 136.229C184.97 135.138 184.844 134.508 184.212 133.543C183.034 131.738 180.803 130.563 178.614 130.563C175.794 130.563 173.227 132.746 173.227 135.641C173.227 139.922 178.193 141.349 181.687 141.349C188.463 141.349 195.072 137.488 195.072 130.06C195.072 126.409 193.346 123.597 190.063 121.918C188.548 121.163 186.569 120.659 184.886 120.659C184.338 120.659 183.707 120.701 183.16 120.827C182.992 120.869 182.781 120.911 182.613 120.911C182.234 120.911 181.897 120.701 181.897 120.365C181.897 120.113 182.15 119.82 182.318 119.652C182.503 119.459 182.686 119.268 182.868 119.078C184.632 117.237 186.285 115.512 188.421 114.028C188.508 113.965 188.596 113.905 188.68 113.847C189.042 113.596 189.347 113.385 189.347 113.147ZM217.001 122.59H220.663C221.505 122.59 221.841 122.967 221.841 123.765V136.607C221.841 137.446 221.505 137.782 220.663 137.782H218.264C217.49 137.782 216.717 137.751 215.938 137.719C215.149 137.688 214.354 137.656 213.549 137.656C212.497 137.656 212.497 138.076 212.497 139.838C212.497 141.475 212.497 141.979 213.507 141.979C214.312 141.979 215.117 141.947 215.917 141.915C216.706 141.884 217.49 141.853 218.264 141.853H230.007C230.807 141.853 231.596 141.884 232.385 141.916C233.174 141.947 233.963 141.979 234.763 141.979C235.775 141.979 235.775 141.551 235.773 140.025C235.773 139.964 235.773 139.902 235.773 139.838C235.773 139.774 235.773 139.712 235.773 139.652C235.775 138.122 235.775 137.656 234.763 137.656C233.963 137.656 233.174 137.687 232.385 137.719C231.596 137.75 230.807 137.782 230.007 137.782H227.397C226.555 137.782 226.219 137.446 226.219 136.607V123.765C226.219 122.967 226.555 122.59 227.397 122.59H232.069C232.869 122.59 233.669 122.621 234.468 122.652C235.268 122.684 236.068 122.715 236.868 122.715C237.88 122.715 237.879 122.249 237.878 120.757C237.878 120.698 237.878 120.637 237.878 120.575C237.878 120.515 237.878 120.455 237.878 120.398C237.879 118.94 237.88 118.435 236.868 118.435C236.068 118.435 235.268 118.456 234.468 118.477C233.669 118.498 232.869 118.519 232.069 118.519H227.397C226.555 118.519 226.219 118.183 226.219 117.386V110.335C226.219 108.614 226.261 108.195 226.808 107.859C226.866 107.816 226.924 107.775 226.98 107.735C227.25 107.545 227.481 107.382 227.481 107.103C227.481 106.684 227.061 106.558 226.724 106.558C226.05 106.474 222.978 106.222 222.431 106.222C221.968 106.222 221.715 106.348 221.715 106.852C221.715 106.936 221.715 107.103 221.757 107.229C221.841 108.027 221.841 109.286 221.841 110.503V117.386C221.841 118.183 221.505 118.519 220.663 118.519H217.001C216.201 118.519 215.401 118.498 214.602 118.477C213.802 118.456 213.002 118.435 212.202 118.435C211.19 118.435 211.191 118.901 211.192 120.393C211.192 120.452 211.192 120.513 211.192 120.575C211.192 120.637 211.192 120.698 211.192 120.757C211.191 122.249 211.19 122.715 212.202 122.715C213.002 122.715 213.802 122.684 214.602 122.652C215.401 122.621 216.201 122.59 217.001 122.59ZM205.384 124.058V136.649C205.384 137.593 205.363 138.548 205.342 139.502C205.321 140.457 205.3 141.412 205.3 142.356C205.3 143.573 205.763 143.573 207.488 143.573C209.256 143.573 209.719 143.573 209.719 142.356C209.719 141.412 209.688 140.457 209.656 139.502C209.624 138.548 209.593 137.593 209.593 136.649V121.079C209.593 119.694 209.635 118.938 210.098 118.603L210.131 118.581C210.369 118.423 210.561 118.296 210.561 118.015C210.561 117.614 210.1 117.558 209.765 117.517C209.75 117.515 209.734 117.513 209.719 117.511C209.509 117.469 209.34 117.386 209.34 117.134C209.34 117.092 209.34 117.008 209.382 116.924C210.813 114.616 212.076 112.224 213.171 109.747C213.381 109.282 213.474 109.075 213.63 108.94C213.756 108.831 213.923 108.769 214.223 108.656C214.475 108.572 214.812 108.363 214.812 108.069C214.812 107.591 213.94 107.274 213.356 107.062C213.273 107.032 213.196 107.004 213.128 106.978C213.049 106.947 212.945 106.906 212.824 106.858C212.107 106.576 210.782 106.054 210.35 106.054C209.803 106.054 209.677 106.474 209.551 106.894C207.573 112.853 204.163 117.386 200.585 121.834C200.291 122.17 199.912 122.631 199.912 123.093C199.912 123.807 201.427 126.199 202.227 126.199C202.816 126.199 203.616 125.192 204.247 124.394L204.71 123.807C204.795 123.681 204.879 123.597 205.047 123.597C205.3 123.597 205.384 123.849 205.384 124.058ZM275.423 129.262C274.707 129.22 274.37 128.885 274.328 128.129C274.328 127.841 274.349 127.542 274.369 127.238C274.391 126.923 274.413 126.603 274.413 126.283C274.413 124.982 273.739 124.604 272.518 124.604C271.95 124.604 271.382 124.625 270.814 124.646C270.246 124.667 269.677 124.688 269.109 124.688H263.427C262.838 124.688 262.627 124.436 262.627 123.891V123.681C262.627 123.093 262.88 122.883 263.427 122.883H266.92C267.578 122.883 268.225 122.894 268.867 122.905C269.498 122.915 270.124 122.925 270.751 122.925C271.719 122.925 273.108 122.841 273.108 121.582C273.108 121.4 273.092 121.226 273.074 121.029C273.05 120.771 273.023 120.475 273.023 120.071V117.805C273.023 117.401 273.05 117.105 273.074 116.848C273.092 116.651 273.108 116.477 273.108 116.294C273.108 114.993 271.677 114.909 270.709 114.909C270.077 114.909 269.446 114.93 268.814 114.951C268.183 114.972 267.552 114.993 266.92 114.993H263.427C262.838 114.993 262.627 114.742 262.627 114.196V113.944C262.627 113.357 262.88 113.147 263.427 113.147H271.971C272.834 113.147 273.707 113.168 274.581 113.189C275.454 113.21 276.328 113.231 277.19 113.231C278.119 113.231 278.118 112.768 278.117 111.73C278.117 111.686 278.116 111.64 278.116 111.594C278.116 111.548 278.117 111.502 278.117 111.458C278.118 110.424 278.119 109.999 277.19 109.999C276.333 109.999 275.475 110.02 274.612 110.041C273.739 110.062 272.861 110.083 271.971 110.083H263.806C263.006 110.083 262.669 109.747 262.669 108.908C262.669 108.404 262.669 108.027 263.09 107.691C263.114 107.674 263.138 107.657 263.161 107.641C263.418 107.46 263.595 107.335 263.595 107.103C263.595 106.653 263.023 106.605 262.601 106.57C262.551 106.566 262.503 106.562 262.459 106.558C261.785 106.474 259.344 106.222 258.797 106.222C258.376 106.222 258.039 106.306 258.039 106.81C258.039 106.847 258.048 106.902 258.057 106.962C258.069 107.036 258.081 107.118 258.081 107.187C258.165 107.775 258.208 108.363 258.25 108.95C258.165 109.789 257.871 110.083 257.071 110.083H248.863C248.001 110.083 247.127 110.062 246.254 110.041C245.38 110.02 244.507 109.999 243.644 109.999C242.718 109.999 242.718 110.419 242.718 111.594C242.718 112.769 242.718 113.231 243.644 113.231C244.533 113.231 245.412 113.21 246.285 113.188C247.148 113.168 248.006 113.147 248.863 113.147H257.45C257.997 113.147 258.25 113.357 258.25 113.944V114.196C258.25 114.742 257.997 114.993 257.45 114.993H253.956C253.325 114.993 252.694 114.972 252.062 114.951C251.431 114.93 250.8 114.909 250.168 114.909C249.2 114.909 247.769 114.993 247.769 116.294C247.769 116.477 247.785 116.651 247.803 116.848C247.826 117.105 247.853 117.401 247.853 117.805V120.071C247.853 120.475 247.826 120.771 247.803 121.029C247.785 121.226 247.769 121.4 247.769 121.582C247.769 122.841 249.2 122.925 250.168 122.925C250.8 122.925 251.431 122.915 252.062 122.904C252.694 122.894 253.325 122.883 253.956 122.883H257.45C257.997 122.883 258.25 123.135 258.25 123.681V123.891C258.25 124.436 257.997 124.688 257.45 124.688H248.779C248.253 124.688 247.717 124.667 247.18 124.646C246.643 124.625 246.107 124.604 245.58 124.604C244.865 124.604 244.865 124.982 244.865 126.073C244.865 127.206 244.865 127.584 245.622 127.584C246.149 127.584 246.675 127.563 247.201 127.542C247.727 127.521 248.253 127.5 248.779 127.5H257.45C257.997 127.5 258.25 127.752 258.25 128.297V128.507C258.25 129.053 257.997 129.262 257.45 129.262H247.98C247.096 129.262 246.201 129.252 245.307 129.241C244.412 129.231 243.518 129.22 242.634 129.22C241.789 129.22 241.79 129.68 241.792 130.49C241.792 130.528 241.792 130.566 241.792 130.605C241.792 130.646 241.792 130.686 241.792 130.726C241.79 131.536 241.789 132.032 242.592 132.032C243.502 132.032 244.412 132.011 245.317 131.99C246.212 131.969 247.101 131.948 247.98 131.948H257.45C257.997 131.948 258.25 132.2 258.25 132.746V132.997C258.25 133.543 257.997 133.753 257.45 133.753H250.884C250.047 133.753 249.2 133.743 248.348 133.732C247.485 133.722 246.617 133.711 245.749 133.711C244.781 133.711 244.739 134.005 244.739 135.18C244.739 136.355 244.781 136.691 245.749 136.691C246.617 136.691 247.485 136.669 248.348 136.648C249.2 136.627 250.047 136.607 250.884 136.607H257.071C257.871 136.607 258.165 136.9 258.25 137.698C258.165 139.335 257.997 139.88 255.893 139.88C255.311 139.88 254.799 139.824 254.364 139.777C254.045 139.742 253.768 139.712 253.536 139.712C252.904 139.712 252.736 140.09 252.736 140.678C252.736 143.808 253.974 143.796 255.104 143.784C255.171 143.784 255.238 143.783 255.303 143.783C258.376 143.783 262.711 143.699 262.711 139.628C262.711 139.209 262.711 138.118 262.669 137.698C262.711 136.9 263.006 136.607 263.806 136.607H269.277C269.656 136.607 269.783 136.817 269.951 137.11C270.161 137.614 270.751 137.614 272.013 137.614C272.083 137.614 272.151 137.614 272.217 137.614C273.833 137.616 274.455 137.616 274.455 136.649C274.455 136.281 274.428 135.851 274.399 135.388C274.365 134.846 274.328 134.257 274.328 133.669V133.123C274.328 132.368 274.665 131.99 275.465 131.99C275.907 131.99 276.349 132.001 276.791 132.011C277.233 132.022 277.675 132.032 278.116 132.032C278.958 132.032 278.958 131.571 278.958 130.605C278.958 130.566 278.958 130.528 278.958 130.49C278.96 129.68 278.961 129.22 278.116 129.22C277.233 129.22 276.349 129.22 275.423 129.262ZM301.266 108.824C301.266 108.195 296.931 106.264 296.552 106.264C296.131 106.264 296.047 106.684 295.963 107.145C295.668 108.363 294.406 111.636 293.69 112.559C293.311 113.063 292.175 113.105 291.08 113.105H289.86C289.168 113.105 288.518 113.078 287.953 113.055C287.521 113.037 287.139 113.021 286.829 113.021C285.777 113.021 285.609 113.273 285.609 114.951C285.609 117.092 285.777 117.302 286.703 117.302C287.462 117.302 288.108 117.259 288.647 117.223C289.035 117.198 289.368 117.176 289.649 117.176C290.239 117.176 290.575 117.302 290.575 117.679C290.575 118.477 284.472 126.912 283.504 127.961C283.475 127.996 283.444 128.032 283.411 128.07C283.207 128.305 282.957 128.595 282.957 128.885C282.957 129.64 285.777 131.319 286.535 131.319C286.829 131.319 286.998 131.109 287.124 130.899C288.008 129.388 289.439 127.206 290.659 125.989C292.301 124.31 296.173 122.296 298.53 122.296C299.499 122.296 300.172 122.799 300.382 123.723C300.467 124.016 300.593 124.604 300.593 124.898C300.593 125.401 300.256 125.653 299.835 125.863C298.951 126.283 298.067 126.744 297.226 127.248C294.321 128.969 291.249 131.025 291.249 134.802C291.249 137.656 292.89 139.67 295.458 140.803C297.689 141.769 299.709 141.895 302.108 141.895C303.918 141.895 308.59 141.727 310.19 141.349C311.116 141.139 311.158 140.803 311.158 139.544C311.158 137.152 310.863 136.691 310.316 136.691C310.021 136.691 309.727 136.733 309.474 136.775C306.738 137.446 304.465 137.824 301.645 137.824C299.625 137.824 295.542 137.572 295.542 134.76C295.542 132.158 299.877 130.312 300.088 130.312C300.509 130.312 300.635 130.647 300.635 131.025C300.635 131.461 300.614 131.906 300.594 132.357C300.572 132.819 300.551 133.286 300.551 133.753C300.551 134.844 301.308 134.928 303.118 134.928C304.718 134.928 304.928 134.76 304.928 133.249C304.928 132.599 304.918 131.959 304.907 131.319C304.897 130.679 304.886 130.039 304.886 129.388V128.843C304.886 128.003 305.223 127.752 305.98 127.458C307.622 126.744 309.264 126.031 310.947 125.401C311.038 125.365 311.129 125.337 311.217 125.309C311.332 125.273 311.441 125.239 311.536 125.192C312.336 124.94 312.799 124.772 312.799 124.268C312.799 123.555 311.789 120.323 310.989 120.323C310.742 120.323 310.427 120.482 310.16 120.616C310.063 120.664 309.973 120.71 309.895 120.743C309.221 121.121 305.475 123.135 304.97 123.135C304.549 123.135 304.423 122.799 304.339 122.422C303.792 119.778 302.234 118.645 299.541 118.645C297.983 118.645 296.384 119.106 294.953 119.736C294.742 119.862 294.448 119.988 294.195 119.988C294.027 119.988 293.858 119.862 293.858 119.694C293.858 119.4 295.037 117.595 295.289 117.26C295.71 116.756 295.879 116.672 296.552 116.588C299.204 116.294 301.856 115.833 304.507 115.287C304.592 115.271 304.681 115.255 304.773 115.238C305.637 115.082 306.738 114.883 306.738 114.238C306.738 113.65 306.528 112.517 306.401 111.972C306.275 111.384 306.065 110.713 305.349 110.713C305.055 110.713 304.592 110.839 304.297 110.965C303.413 111.258 300.256 112.14 299.414 112.14C299.162 112.14 298.951 112.014 298.951 111.72C298.951 111.468 299.246 110.965 299.372 110.755C299.919 109.789 300.088 109.58 300.761 109.328C300.972 109.244 301.266 109.076 301.266 108.824Z" fill="#1C1C1C"/>
<path d="M158.331 64.497C158.331 64.6649 158.289 64.7488 158.205 64.8747C156.984 67.3508 156.058 69.1974 154.417 71.4637C154.122 71.8833 153.87 72.0512 153.28 72.0512C152.481 72.0092 152.186 71.6735 152.186 70.8761V65.0846C152.186 64.2452 152.523 63.9095 153.323 63.9095H157.616C157.995 63.9515 158.331 64.0774 158.331 64.497Z" fill="#1C1C1C"/>
<path fill-rule="evenodd" clip-rule="evenodd" d="M84.6545 51.8734H246.103V95.7063H84.6545V51.8734ZM105.634 78.9759V84.6415C105.634 85.7379 105.602 86.8238 105.57 87.9044C105.539 88.9745 105.508 90.0395 105.508 91.1045C105.508 92.5314 105.971 92.5734 107.823 92.5734C109.632 92.5734 110.095 92.5314 110.095 91.1465C110.095 90.0815 110.075 89.0061 110.054 87.9255C110.033 86.8344 110.011 85.7379 110.011 84.6415V79.0178C110.011 78.808 110.095 78.5562 110.39 78.5562C110.516 78.5562 110.643 78.6401 110.727 78.7241C113.126 81.5779 115.694 83.928 118.724 86.1523C119.524 86.7399 123.607 89.5937 124.364 89.5937C125.122 89.5937 126.805 87.3694 126.805 86.614C126.805 86.2564 126.277 85.9741 125.757 85.6958C125.728 85.6801 125.698 85.6644 125.669 85.6487C120.955 82.9208 116.662 79.6473 113 75.6604C112.985 75.6388 112.971 75.6185 112.957 75.5987C112.889 75.5033 112.831 75.4218 112.831 75.2827C112.831 74.947 113.126 74.863 113.421 74.8211H120.155C121.044 74.8211 121.923 74.8423 122.796 74.8634C123.659 74.8843 124.517 74.905 125.374 74.905C126.387 74.905 126.386 74.3611 126.385 73.0118C126.385 72.9586 126.385 72.9042 126.385 72.8486C126.385 72.7913 126.385 72.7353 126.385 72.6808C126.386 71.2971 126.387 70.7922 125.374 70.7922C124.517 70.7922 123.659 70.8129 122.796 70.8338C121.923 70.8549 121.044 70.8761 120.155 70.8761H111.19C110.348 70.8761 110.011 70.5404 110.011 69.701V66.2597C110.011 65.4623 110.348 65.1266 111.19 65.1266H117.335C118.156 65.1266 118.977 65.1475 119.797 65.1685C120.618 65.1895 121.439 65.2105 122.26 65.2105C123.272 65.2105 123.271 64.7055 123.27 63.3219C123.27 63.2673 123.27 63.2114 123.27 63.1541C123.27 63.0984 123.27 63.044 123.27 62.9909C123.271 61.6446 123.272 61.1396 122.26 61.1396C121.439 61.1396 120.618 61.1606 119.797 61.1816C118.977 61.2026 118.156 61.2236 117.335 61.2236H111.19C110.39 61.2236 110.011 60.9298 110.011 60.1324V58.6635C110.011 57.2366 110.053 56.775 110.516 56.3973C110.577 56.3519 110.634 56.312 110.686 56.2753C110.922 56.1084 111.064 56.0086 111.064 55.7678C111.064 55.2863 110.474 55.2297 110.103 55.1942C110.054 55.1895 110.009 55.1852 109.969 55.1802C109.696 55.1678 109.326 55.1481 108.921 55.1265C107.956 55.0748 106.787 55.0124 106.223 55.0124C105.802 55.0124 105.423 55.0543 105.423 55.5999C105.423 55.6629 105.434 55.7363 105.444 55.8097C105.455 55.8832 105.465 55.9566 105.465 56.0196C105.55 56.9429 105.634 57.9501 105.634 58.9153V60.0485C105.634 60.8878 105.297 61.2236 104.455 61.2236H98.4784C97.6577 61.2236 96.8369 61.2026 96.0161 61.1816C95.1954 61.1606 94.3746 61.1396 93.5538 61.1396C92.5436 61.1396 92.5436 61.6432 92.5436 63.1541C92.5436 64.7069 92.5436 65.2105 93.5538 65.2105C94.3746 65.2105 95.1954 65.1895 96.0161 65.1685C96.8369 65.1475 97.6577 65.1266 98.4784 65.1266H104.455C105.297 65.1266 105.634 65.4623 105.634 66.2597V69.701C105.634 70.5404 105.297 70.8761 104.455 70.8761H95.5742C94.6849 70.8761 93.8064 70.8549 92.9331 70.8338C92.0703 70.8129 91.2126 70.7922 90.3549 70.7922C89.3426 70.7922 89.3431 71.2582 89.3446 72.6761C89.3447 72.7321 89.3447 72.7896 89.3447 72.8486C89.3447 72.9059 89.3447 72.9618 89.3446 73.0164C89.3431 74.4 89.3426 74.905 90.3549 74.905C91.2126 74.905 92.0703 74.8843 92.9331 74.8634C93.8064 74.8423 94.6849 74.8211 95.5742 74.8211H102.098C102.393 74.863 102.688 74.947 102.688 75.3247C102.688 75.4637 102.63 75.5452 102.562 75.6407C102.548 75.6604 102.534 75.6808 102.519 75.7024C98.731 79.9411 94.9849 83.0048 89.9761 85.7327C89.9532 85.7453 89.9296 85.7583 89.9053 85.7716C89.5283 85.9786 89.008 86.2641 89.008 86.6979C89.008 87.4114 90.6917 89.6356 91.4493 89.6356C91.8702 89.6356 92.712 89.132 93.175 88.8382C97.805 86.0684 101.551 82.7949 104.96 78.7241C105.045 78.5982 105.129 78.5562 105.255 78.5562C105.55 78.5562 105.634 78.766 105.634 78.9759ZM141.411 71.7155C141.958 71.7155 144.231 70.8342 144.231 70.0368C144.231 69.5332 143.095 67.4767 142.758 66.9731C142.728 66.9204 142.691 66.8552 142.649 66.7802C142.221 66.0188 141.224 64.2452 140.611 64.2452C140.148 64.2452 137.791 65.2944 137.791 66.0079C137.791 66.2128 137.958 66.4733 138.089 66.6763C138.119 66.7228 138.146 66.7662 138.17 66.8053C138.843 67.9384 139.348 68.8617 139.727 69.5751L139.794 69.6944C140.587 71.1191 140.919 71.7155 141.411 71.7155ZM152.84 79.1009C152.86 79.1149 152.88 79.1293 152.902 79.1437C155.343 82.0395 157.574 84.2638 160.604 86.572C161.488 87.2854 165.739 90.3491 166.623 90.3491C167.465 90.3491 168.938 88.2927 168.938 87.4533C168.938 87.0336 168.601 86.8238 168.012 86.4881C163.424 83.928 159.257 80.6546 155.722 76.7516C155.638 76.6257 155.595 76.5417 155.595 76.3739C155.595 76.0381 155.89 75.9122 156.185 75.9122H162.414C163.272 75.9122 164.129 75.933 164.992 75.9538C165.866 75.9749 166.744 75.9962 167.633 75.9962C168.604 75.9962 168.603 75.4928 168.602 74.1511C168.602 74.0961 168.601 74.0396 168.601 73.9817C168.601 73.9221 168.602 73.864 168.602 73.8075C168.603 72.4319 168.604 71.9673 167.633 71.9673C166.744 71.9673 165.866 71.9885 164.992 72.0096C164.129 72.0305 163.272 72.0512 162.414 72.0512H159.72C159.384 72.0092 159.089 71.8833 159.089 71.5056C159.089 71.3378 159.131 71.2538 159.215 71.1279C160.141 69.7641 160.643 68.8987 161.494 67.4324L161.614 67.2249C161.825 66.8892 162.12 66.7633 162.54 66.7213C162.568 66.7158 162.6 66.7109 162.634 66.7057C162.855 66.672 163.172 66.6236 163.172 66.2597C163.172 65.84 162.456 65.4623 160.646 64.6649C160.623 64.6533 160.592 64.6385 160.555 64.6212C160.327 64.5131 159.889 64.306 159.889 64.1613C159.889 63.9934 160.057 63.9095 160.183 63.9095C160.941 63.9095 161.688 63.9305 162.435 63.9515C163.182 63.9725 163.929 63.9934 164.687 63.9934C165.699 63.9934 165.699 63.4496 165.697 62.1002C165.697 62.047 165.697 61.9927 165.697 61.937C165.697 61.8797 165.697 61.8238 165.697 61.7692C165.699 60.3856 165.699 59.8806 164.687 59.8806C163.861 59.8806 163.035 59.9019 162.214 59.923C161.404 59.9438 160.599 59.9645 159.805 59.9645H153.365C152.565 59.9645 152.186 59.6708 152.186 58.8734V57.9081C152.186 57.0268 152.228 56.4812 152.649 56.1455C152.673 56.1282 152.697 56.1116 152.72 56.0953C152.977 55.9141 153.154 55.7891 153.154 55.5579C153.154 55.0822 152.553 55.0184 152.167 54.9774C152.145 54.975 152.123 54.9727 152.102 54.9704C151.815 54.9574 151.431 54.9363 151.015 54.9135C150.086 54.8625 148.992 54.8025 148.44 54.8025C148.019 54.8025 147.64 54.8445 147.64 55.3481C147.64 55.432 147.651 55.5055 147.661 55.5789C147.672 55.6524 147.682 55.7258 147.682 55.8097C147.767 56.775 147.851 57.8662 147.851 58.7894C147.851 59.6288 147.472 59.9645 146.672 59.9645H140.274C139.48 59.9645 138.675 59.9438 137.865 59.923C137.044 59.9019 136.218 59.8806 135.392 59.8806C134.382 59.8806 134.382 60.3842 134.382 61.937C134.382 61.9943 134.382 62.0503 134.382 62.1048C134.38 63.4885 134.38 63.9934 135.392 63.9934C136.218 63.9934 137.044 63.9722 137.865 63.9511C138.675 63.9302 139.48 63.9095 140.274 63.9095H146.672C147.472 63.9095 147.851 64.2452 147.851 65.0846V70.8761C147.851 71.7155 147.472 72.0512 146.672 72.0512H137.623C136.734 72.0512 135.855 72.03 134.982 72.0089C134.119 71.988 133.261 71.9673 132.404 71.9673C131.393 71.9673 131.393 72.3869 131.393 73.9817C131.393 75.5345 131.393 75.9962 132.404 75.9962C133.261 75.9962 134.119 75.9754 134.982 75.9546C135.855 75.9335 136.734 75.9122 137.623 75.9122H143.6C143.894 75.9122 144.231 76.0381 144.231 76.3739C144.231 76.5531 144.17 76.6405 144.099 76.7406C144.087 76.7577 144.075 76.7752 144.063 76.7935C140.864 80.6126 136.865 83.7602 132.572 86.2782L132.551 86.2893C132.078 86.547 131.015 87.1248 131.015 87.6212C131.015 88.4186 132.446 90.517 133.245 90.517C133.54 90.517 134.424 90.0553 135.224 89.5937C139.517 86.9497 144.063 83.2146 147.135 79.2277C147.162 79.2102 147.186 79.1926 147.21 79.1759C147.298 79.1124 147.372 79.0598 147.472 79.0598C147.725 79.0598 147.809 79.3116 147.851 79.5214V84.4316C147.851 85.5228 147.819 86.614 147.788 87.7051C147.756 88.7963 147.725 89.8874 147.725 90.9786C147.725 92.3216 148.23 92.3635 149.997 92.3635C151.807 92.3635 152.27 92.3216 152.27 90.9786C152.27 89.8874 152.249 88.7963 152.228 87.7051C152.207 86.614 152.186 85.5228 152.186 84.4316V79.4375C152.186 79.1018 152.397 78.9759 152.523 78.9759C152.662 78.9759 152.744 79.0335 152.84 79.1009ZM208.251 71.6315C208.251 70.5823 202.527 61.2236 200.969 61.2236C200.212 61.2236 197.77 62.6924 197.77 63.4478C197.77 63.7416 197.981 63.9934 198.149 64.1613C200.969 67.141 202.106 69.5331 203.789 73.1424C203.809 73.1812 203.828 73.2211 203.848 73.2615C204.042 73.6583 204.261 74.1076 204.757 74.1076C205.599 74.1076 208.251 72.5548 208.251 71.6315ZM189.941 58.034C189.31 57.8662 186.111 57.0688 185.69 57.0688C185.227 57.0688 185.227 57.5724 185.227 57.9081C185.227 58.1654 185.238 58.4117 185.249 58.6527C185.259 58.8834 185.269 59.1092 185.269 59.335C185.269 60.8459 185.101 63.28 184.848 64.7488C184.722 65.6302 184.301 65.84 183.459 66.0079C183.132 66.0782 182.794 66.1524 182.447 66.2285C180.516 66.6516 178.328 67.131 176.472 67.3089C176.432 67.3119 176.391 67.3148 176.35 67.3177C175.824 67.3542 175.21 67.3969 175.21 67.9803C175.21 68.1902 175.925 72.303 176.978 72.303C177.17 72.303 177.437 72.2051 177.665 72.1214C177.735 72.0955 177.802 72.071 177.861 72.0512C178.577 71.7574 182.07 70.5823 182.66 70.5823C182.996 70.5823 183.207 70.7922 183.207 71.1279C183.207 71.5056 182.365 73.7719 182.155 74.2755C180.429 78.766 177.988 82.5011 174.663 85.9845C174.41 86.2363 174.073 86.572 174.073 86.9497C174.073 87.915 176.767 89.5097 177.483 89.5097C177.777 89.5097 178.03 89.2999 178.24 89.0901C179.503 87.7471 181.439 84.6835 182.449 83.0467C184.68 79.3116 186.7 74.8211 187.795 70.5823C188.089 69.4073 188.51 69.0715 190.91 69.0715C193.435 69.0715 193.561 70.7922 193.561 72.8906C193.561 75.5765 192.93 79.9411 191.709 82.3752C190.657 84.4316 189.605 84.9353 187.332 84.9353C186.839 84.9353 186.389 84.8921 186.016 84.8563C185.753 84.831 185.528 84.8094 185.354 84.8094C184.933 84.8094 184.806 85.1031 184.806 85.5228C184.806 86.3202 185.185 87.7891 185.522 88.5025C185.985 89.3838 186.532 89.5097 187.458 89.5097C190.867 89.5097 193.73 88.0409 195.413 84.9772C197.265 81.6198 197.939 75.9542 197.939 72.0932C197.939 69.785 197.476 67.3508 195.371 66.0079C193.856 65.0426 192.299 65.0426 190.573 65.0426C190.489 65.0426 190.404 65.0531 190.32 65.0636C190.236 65.0741 190.152 65.0846 190.068 65.0846C189.563 65.0846 189.142 64.7908 189.142 64.2033C189.142 64.0774 189.184 63.8675 189.226 63.7416C189.305 63.294 189.368 62.8959 189.424 62.537C189.458 62.3239 189.489 62.1246 189.521 61.937C189.531 61.8754 189.541 61.8151 189.552 61.7562C189.781 60.4119 189.891 59.772 190.657 59.2091C190.825 59.0832 190.994 58.9573 190.994 58.7055C190.994 58.2838 190.397 58.1422 190.037 58.0569C190.002 58.0489 189.971 58.0413 189.941 58.034ZM221.215 65.0006C220.499 64.7488 217.553 63.8256 216.922 63.8256C216.248 63.8256 216.206 64.4551 216.206 65.6721C216.206 65.8141 216.196 65.9561 216.186 66.1028C216.175 66.2597 216.164 66.4219 216.164 66.5954C216.038 69.659 215.701 72.7227 215.154 75.7444C214.901 77.1293 214.564 78.5142 214.186 79.8572C214.148 79.9814 214.096 80.1241 214.041 80.2743C213.911 80.6312 213.765 81.0306 213.765 81.326C213.765 82.5431 216.585 82.9628 216.964 82.9628C217.523 82.9628 217.855 82.5472 218.175 82.1462C218.192 82.1245 218.209 82.103 218.226 82.0815C220.878 78.766 225.34 75.0729 229.759 75.0729C232.453 75.0729 234.81 76.6257 234.81 79.5214C234.81 83.0887 231.695 84.3897 228.707 85.1451C226.939 85.6067 224.919 85.9005 223.109 85.9845C222.562 86.0264 222.057 86.0684 222.057 86.7399C222.057 87.4533 222.478 88.8383 222.772 89.4678C223.151 90.2652 223.404 90.6429 224.33 90.6429C225.634 90.6429 228.497 89.8874 229.801 89.5097C234.894 87.9989 239.356 85.4808 239.356 79.5214C239.356 74.2335 235.357 70.7922 230.18 70.7922C226.182 70.7922 223.656 72.4709 220.541 74.6532C220.373 74.7791 220.205 74.905 219.994 74.905C219.7 74.905 219.573 74.6532 219.573 74.4014C219.573 74.2091 219.622 73.9432 219.664 73.7162C219.677 73.646 219.69 73.5795 219.7 73.5201C219.977 72.2492 220.181 70.9601 220.384 69.6767C220.489 69.0107 220.595 68.3462 220.71 67.6866C220.719 67.6423 220.727 67.5994 220.735 67.5576C220.884 66.8073 220.956 66.4474 221.594 66.0498C221.762 65.9659 221.972 65.84 221.972 65.5882C221.972 65.3011 221.634 65.1674 221.351 65.056C221.304 65.0371 221.257 65.0189 221.215 65.0006ZM221.972 55.9356C220.962 55.9356 219.615 58.4537 219.615 58.9993C219.615 59.3835 219.994 59.5932 220.364 59.798C220.439 59.8392 220.513 59.8803 220.583 59.9226C222.393 60.9298 224.287 62.1469 225.887 63.4898C225.965 63.5482 226.054 63.6247 226.152 63.7078C226.473 63.9827 226.878 64.3292 227.234 64.3292C228.118 64.3292 229.843 61.7691 229.843 61.0137C229.843 60.3734 227.877 59.2261 227.017 58.7245C226.919 58.6672 226.836 58.6183 226.771 58.5796C226.668 58.5171 226.517 58.423 226.33 58.307C225.141 57.5668 222.518 55.9356 221.972 55.9356Z" fill="#1C1C1C"/>
</svg>
