<svg width="270" height="91" viewBox="0 0 270 91" fill="none" xmlns="http://www.w3.org/2000/svg">
<path d="M234.402 79.2807C247.362 79.2807 257.562 68.4807 257.562 55.8807C257.562 42.9207 248.202 32.1207 234.402 32.1207C221.922 32.1207 211.722 42.8007 211.722 55.8807C211.722 68.3607 221.922 79.2807 234.402 79.2807ZM269.802 89.0007H257.322V78.6807H257.082C252.402 86.6007 244.002 90.6807 234.522 90.6807C215.082 90.6807 199.242 76.0407 199.242 56.8407C199.242 35.6007 214.482 20.7207 234.042 20.7207C243.762 20.7207 251.922 24.3207 257.082 31.8807H257.322V22.5207H269.802V89.0007Z" fill="black"/>
<path d="M186.64 89.0012H174.16V33.9212H165.16V22.5212H174.16V0.201172H186.64V89.0012Z" fill="black"/>
<path d="M120.613 79.2807C133.573 79.2807 143.773 68.4807 143.773 55.8807C143.773 42.9207 134.413 32.1207 120.613 32.1207C108.133 32.1207 97.9331 42.8007 97.9331 55.8807C97.9331 68.3607 108.133 79.2807 120.613 79.2807ZM156.013 89.0007H143.533V78.6807H143.293C138.613 86.6007 130.213 90.6807 120.733 90.6807C101.293 90.6807 85.4531 76.0407 85.4531 56.8407C85.4531 35.6007 100.693 20.7207 120.253 20.7207C129.973 20.7207 138.133 24.3207 143.293 31.8807H143.533V22.5207H156.013V89.0007Z" fill="black"/>
<path d="M29.7208 89.0012H0.800781V0.201172H31.6408C58.5208 0.201172 74.9608 21.4412 74.9608 44.6012C74.9608 71.7212 57.8008 89.0012 29.7208 89.0012ZM13.7608 77.1212H29.2408C49.7608 77.1212 62.0008 65.1212 62.0008 44.8412C62.0008 24.9212 47.9608 12.0812 29.8408 12.0812H13.7608V77.1212Z" fill="black"/>
</svg>
