<svg width="352" height="91" viewBox="0 0 352 91" fill="none" xmlns="http://www.w3.org/2000/svg">
<g clip-path="url(#clip0_43_3071)">
<path d="M58.0638 88.801V26.281H57.8237L15.4637 88.801H0.34375V0.000976562H13.3038V70.201H13.5437L61.0638 0.000976562H71.0238V70.201H71.2637L118.774 0.000976562H135.094L73.1738 88.801H58.0537H58.0638Z" fill="white"/>
<path d="M157.904 90.4805C139.184 90.4805 122.504 74.5205 122.504 55.8005C122.504 35.5205 138.464 20.5205 158.864 20.5205C177.224 20.5205 194.504 34.9205 194.264 56.0405C194.024 73.8005 179.144 90.4805 157.904 90.4805ZM158.264 31.9205C145.784 31.9205 134.984 42.4805 134.984 55.4405C134.984 68.4005 145.424 79.0805 158.024 79.0805C170.624 79.0805 181.784 68.7605 181.784 55.3205C181.784 41.8805 171.344 31.9205 158.264 31.9205Z" fill="white"/>
<path d="M206.984 88.8005V22.3205H218.624V28.3205H218.864C221.864 23.8805 227.024 21.0005 235.784 20.5205V33.3605C224.984 33.7205 219.464 40.3205 219.464 51.4805V88.8005H206.984Z" fill="white"/>
<path d="M246.582 88.801V0.000976562H259.062V88.801H246.582ZM285.932 88.801L259.292 54.361L282.932 22.321H297.692L273.572 53.641L301.532 88.801H285.932Z" fill="white"/>
<path d="M337.054 39.9605C336.454 35.1605 333.694 31.9205 328.534 31.9205C323.734 31.9205 320.734 35.1605 320.734 39.0005C320.734 44.6405 326.494 46.3205 333.094 48.3605C342.454 51.2405 351.094 56.8805 351.094 69.2405C351.094 81.6005 341.734 90.4805 328.774 90.4805C316.774 90.4805 305.254 82.3205 305.254 66.9605H317.734C318.334 75.0005 322.414 79.0805 329.014 79.0805C334.774 79.0805 338.614 75.3605 338.614 69.9605C338.614 65.4005 335.134 62.4005 327.334 59.8805C311.014 54.7205 308.254 47.6405 308.254 40.0805C308.254 28.3205 318.214 20.5205 329.134 20.5205C340.054 20.5205 349.174 28.2005 349.534 39.9605H337.054Z" fill="white"/>
</g>
<defs>
<clipPath id="clip0_43_3071">
<rect width="350.75" height="90.48" fill="white" transform="translate(0.34375 0.000976562)"/>
</clipPath>
</defs>
</svg>
