<svg width="333" height="31" viewBox="0 0 333 31" fill="none" xmlns="http://www.w3.org/2000/svg">
<path d="M146.62 29.564V0.751997H169.09V5.414H152.08V12.512H167.242V17.174H152.08V24.902H169.342V29.564H146.62Z" fill="black"/>
<path d="M122.667 29.564V0.751997H128.127V24.818H142.575V29.564H122.667Z" fill="black"/>
<path d="M94.5305 29.564V0.751997H108.979C111.107 0.751997 112.857 1.13 114.229 1.886C115.629 2.642 116.679 3.706 117.379 5.078C118.079 6.45 118.429 8.088 118.429 9.992C118.429 11.868 118.065 13.506 117.337 14.906C116.609 16.306 115.517 17.398 114.061 18.182C112.633 18.938 110.841 19.316 108.685 19.316H99.9905V29.564H94.5305ZM99.9905 14.654H108.517C109.917 14.654 110.995 14.248 111.751 13.436C112.535 12.596 112.927 11.448 112.927 9.992C112.927 9.012 112.759 8.186 112.423 7.514C112.087 6.842 111.597 6.324 110.953 5.96C110.309 5.596 109.497 5.414 108.517 5.414H99.9905V14.654Z" fill="black"/>
<path d="M59.093 29.564V0.751997H67.703L72.239 16.796C72.407 17.356 72.575 17.986 72.743 18.686C72.911 19.386 73.065 20.058 73.205 20.702C73.373 21.346 73.499 21.906 73.583 22.382H73.919C73.975 21.962 74.059 21.444 74.171 20.828C74.283 20.212 74.409 19.554 74.549 18.854C74.717 18.126 74.899 17.426 75.095 16.754L79.631 0.751997H88.157V29.564H82.697V14.99C82.697 13.702 82.711 12.414 82.739 11.126C82.767 9.838 82.795 8.732 82.823 7.808C82.879 6.884 82.907 6.338 82.907 6.17H82.571C82.515 6.422 82.375 6.968 82.151 7.808C81.927 8.648 81.689 9.558 81.437 10.538C81.185 11.518 80.961 12.358 80.765 13.058L76.019 29.564H70.979L66.233 13.1C66.065 12.512 65.869 11.812 65.645 11C65.449 10.16 65.239 9.306 65.015 8.438C64.819 7.57 64.637 6.814 64.469 6.17H64.133C64.161 6.926 64.189 7.836 64.217 8.9C64.245 9.936 64.273 11 64.301 12.092C64.329 13.156 64.343 14.122 64.343 14.99V29.564H59.093Z" fill="black"/>
<path d="M26.3337 29.564L37.5477 0.751997H44.4357L55.6917 29.564H49.7697L47.4597 23.432H34.2717L31.9617 29.564H26.3337ZM35.9937 18.812H45.6957L42.7977 11C42.6857 10.72 42.5457 10.37 42.3777 9.95C42.2377 9.502 42.0837 9.026 41.9157 8.522C41.7477 7.99 41.5797 7.458 41.4117 6.926C41.2437 6.394 41.0897 5.918 40.9497 5.498H40.7397C40.5717 6.058 40.3617 6.702 40.1097 7.43C39.8857 8.158 39.6617 8.844 39.4377 9.488C39.2137 10.132 39.0317 10.636 38.8917 11L35.9937 18.812Z" fill="black"/>
<path d="M12.054 30.068C10.458 30.068 8.932 29.9 7.476 29.564C6.02 29.2 4.732 28.654 3.612 27.926C2.492 27.17 1.61 26.246 0.966 25.154C0.322 24.034 0 22.718 0 21.206C0 21.038 0 20.87 0 20.702C0.0280001 20.534 0.0420001 20.408 0.0420001 20.324H5.544C5.544 20.38 5.53 20.492 5.502 20.66C5.502 20.8 5.502 20.926 5.502 21.038C5.502 21.962 5.768 22.76 6.3 23.432C6.832 24.076 7.602 24.58 8.61 24.944C9.618 25.28 10.808 25.448 12.18 25.448C13.104 25.448 13.916 25.392 14.616 25.28C15.344 25.168 15.96 25.014 16.464 24.818C16.996 24.594 17.43 24.342 17.766 24.062C18.102 23.754 18.34 23.418 18.48 23.054C18.648 22.69 18.732 22.298 18.732 21.878C18.732 21.066 18.48 20.394 17.976 19.862C17.472 19.33 16.786 18.882 15.918 18.518C15.078 18.154 14.112 17.832 13.02 17.552C11.956 17.244 10.85 16.936 9.702 16.628C8.582 16.32 7.476 15.956 6.384 15.536C5.32 15.088 4.354 14.556 3.486 13.94C2.646 13.324 1.974 12.554 1.47 11.63C0.966 10.678 0.714 9.544 0.714 8.228C0.714 6.884 0.994 5.708 1.554 4.7C2.142 3.692 2.954 2.866 3.99 2.222C5.054 1.55 6.286 1.06 7.686 0.751997C9.086 0.415998 10.612 0.247999 12.264 0.247999C13.804 0.247999 15.246 0.415998 16.59 0.751997C17.962 1.06 19.166 1.564 20.202 2.264C21.238 2.936 22.05 3.804 22.638 4.868C23.226 5.904 23.52 7.15 23.52 8.606V9.11H18.102V8.69C18.102 7.878 17.85 7.192 17.346 6.632C16.87 6.072 16.184 5.638 15.288 5.33C14.42 5.022 13.398 4.868 12.222 4.868C10.962 4.868 9.884 4.994 8.988 5.246C8.092 5.47 7.406 5.82 6.93 6.296C6.454 6.744 6.216 7.304 6.216 7.976C6.216 8.676 6.468 9.264 6.972 9.74C7.476 10.216 8.148 10.622 8.988 10.958C9.856 11.294 10.822 11.602 11.886 11.882C12.978 12.162 14.084 12.47 15.204 12.806C16.352 13.114 17.458 13.478 18.522 13.898C19.614 14.318 20.58 14.85 21.42 15.494C22.288 16.11 22.974 16.88 23.478 17.804C23.982 18.728 24.234 19.834 24.234 21.122C24.234 23.278 23.702 25.014 22.638 26.33C21.602 27.646 20.16 28.598 18.312 29.186C16.492 29.774 14.406 30.068 12.054 30.068Z" fill="black"/>
<path d="M326.681 30.564V20.232H322.739V18.216H332.981V20.232H329.021V30.564H326.681Z" fill="black"/>
<path d="M308.673 30.564V18.216H310.905L316.179 25.506C316.239 25.578 316.311 25.68 316.395 25.812C316.479 25.932 316.557 26.052 316.629 26.172C316.701 26.292 316.749 26.388 316.773 26.46H316.863C316.863 26.292 316.863 26.13 316.863 25.974C316.863 25.818 316.863 25.662 316.863 25.506V18.216H319.113V30.564H316.899L311.607 23.22C311.511 23.076 311.397 22.902 311.265 22.698C311.145 22.482 311.061 22.332 311.013 22.248H310.923C310.923 22.404 310.923 22.566 310.923 22.734C310.923 22.89 310.923 23.052 310.923 23.22V30.564H308.673Z" fill="black"/>
<path d="M294.779 30.564V18.216H304.409V20.214H297.119V23.256H303.617V25.254H297.119V28.566H304.517V30.564H294.779Z" fill="black"/>
<path d="M277.792 30.564V18.216H281.482L283.426 25.092C283.498 25.332 283.57 25.602 283.642 25.902C283.714 26.202 283.78 26.49 283.84 26.766C283.912 27.042 283.966 27.282 284.002 27.486H284.146C284.17 27.306 284.206 27.084 284.254 26.82C284.302 26.556 284.356 26.274 284.416 25.974C284.488 25.662 284.566 25.362 284.65 25.074L286.594 18.216H290.248V30.564H287.908V24.318C287.908 23.766 287.914 23.214 287.926 22.662C287.938 22.11 287.95 21.636 287.962 21.24C287.986 20.844 287.998 20.61 287.998 20.538H287.854C287.83 20.646 287.77 20.88 287.674 21.24C287.578 21.6 287.476 21.99 287.368 22.41C287.26 22.83 287.164 23.19 287.08 23.49L285.046 30.564H282.886L280.852 23.508C280.78 23.256 280.696 22.956 280.6 22.608C280.516 22.248 280.426 21.882 280.33 21.51C280.246 21.138 280.168 20.814 280.096 20.538H279.952C279.964 20.862 279.976 21.252 279.988 21.708C280 22.152 280.012 22.608 280.024 23.076C280.036 23.532 280.042 23.946 280.042 24.318V30.564H277.792Z" fill="black"/>
<path d="M267.871 30.564V20.232H263.929V18.216H274.171V20.232H270.211V30.564H267.871Z" fill="black"/>
<path d="M257.967 30.564V18.216H260.307V30.564H257.967Z" fill="black"/>
<path d="M248.272 30.78C247.192 30.78 246.262 30.606 245.482 30.258C244.702 29.91 244.102 29.382 243.682 28.674C243.274 27.954 243.07 27.06 243.07 25.992V18.216H245.41V25.92C245.41 26.868 245.656 27.588 246.148 28.08C246.652 28.56 247.36 28.8 248.272 28.8C249.184 28.8 249.892 28.56 250.396 28.08C250.912 27.588 251.17 26.868 251.17 25.92V18.216H253.51V25.992C253.51 27.06 253.3 27.954 252.88 28.674C252.46 29.382 251.86 29.91 251.08 30.258C250.3 30.606 249.364 30.78 248.272 30.78Z" fill="black"/>
<path d="M228.615 30.564V18.216H235.113C236.025 18.216 236.781 18.372 237.381 18.684C237.981 18.996 238.431 19.44 238.731 20.016C239.031 20.592 239.181 21.27 239.181 22.05C239.181 22.854 239.001 23.568 238.641 24.192C238.281 24.804 237.753 25.266 237.057 25.578L239.613 30.564H237.057L234.789 25.974H230.955V30.564H228.615ZM230.955 24.012H234.933C235.533 24.012 235.995 23.838 236.319 23.49C236.643 23.142 236.805 22.662 236.805 22.05C236.805 21.654 236.733 21.324 236.589 21.06C236.445 20.784 236.235 20.574 235.959 20.43C235.683 20.286 235.341 20.214 234.933 20.214H230.955V24.012Z" fill="black"/>
<path d="M219.279 30.78C218.019 30.78 216.939 30.558 216.039 30.114C215.151 29.67 214.467 28.98 213.987 28.044C213.519 27.096 213.285 25.878 213.285 24.39C213.285 22.218 213.813 20.61 214.869 19.566C215.925 18.522 217.395 18 219.279 18C220.299 18 221.217 18.174 222.033 18.522C222.861 18.87 223.515 19.398 223.995 20.106C224.487 20.802 224.733 21.69 224.733 22.77H222.339C222.339 22.17 222.207 21.666 221.943 21.258C221.691 20.838 221.337 20.52 220.881 20.304C220.425 20.088 219.903 19.98 219.315 19.98C218.499 19.98 217.821 20.142 217.281 20.466C216.741 20.778 216.339 21.246 216.075 21.87C215.823 22.494 215.697 23.268 215.697 24.192V24.588C215.697 25.524 215.823 26.304 216.075 26.928C216.339 27.552 216.735 28.02 217.263 28.332C217.803 28.644 218.487 28.8 219.315 28.8C219.939 28.8 220.485 28.698 220.953 28.494C221.421 28.278 221.781 27.966 222.033 27.558C222.297 27.138 222.429 26.628 222.429 26.028H224.733C224.733 27.108 224.493 28.002 224.013 28.71C223.533 29.406 222.879 29.928 222.051 30.276C221.235 30.612 220.311 30.78 219.279 30.78Z" fill="black"/>
<path d="M199.949 30.564V18.216H209.579V20.214H202.289V23.256H208.787V25.254H202.289V28.566H209.687V30.564H199.949Z" fill="black"/>
<path d="M185.247 30.564V18.216H191.745C192.657 18.216 193.413 18.372 194.013 18.684C194.613 18.996 195.063 19.44 195.363 20.016C195.663 20.592 195.813 21.27 195.813 22.05C195.813 22.854 195.633 23.568 195.273 24.192C194.913 24.804 194.385 25.266 193.689 25.578L196.245 30.564H193.689L191.421 25.974H187.587V30.564H185.247ZM187.587 24.012H191.565C192.165 24.012 192.627 23.838 192.951 23.49C193.275 23.142 193.437 22.662 193.437 22.05C193.437 21.654 193.365 21.324 193.221 21.06C193.077 20.784 192.867 20.574 192.591 20.43C192.315 20.286 191.973 20.214 191.565 20.214H187.587V24.012Z" fill="black"/>
<path d="M257.071 12.564V0.216H263.569C264.481 0.216 265.237 0.372 265.837 0.684C266.437 0.996 266.887 1.44 267.187 2.016C267.487 2.592 267.637 3.27 267.637 4.05C267.637 4.854 267.457 5.568 267.097 6.192C266.737 6.804 266.209 7.266 265.513 7.578L268.069 12.564H265.513L263.245 7.974H259.411V12.564H257.071ZM259.411 6.012H263.389C263.989 6.012 264.451 5.838 264.775 5.49C265.099 5.142 265.261 4.662 265.261 4.05C265.261 3.654 265.189 3.324 265.045 3.06C264.901 2.784 264.691 2.574 264.415 2.43C264.139 2.286 263.797 2.214 263.389 2.214H259.411V6.012Z" fill="black"/>
<path d="M243.177 12.564V0.216H252.807V2.214H245.517V5.256H252.015V7.254H245.517V10.566H252.915V12.564H243.177Z" fill="black"/>
<path d="M229.283 12.564V0.216H238.913V2.214H231.623V5.256H238.121V7.254H231.623V10.566H239.021V12.564H229.283Z" fill="black"/>
<path d="M214.581 12.564V0.216H221.079C221.991 0.216 222.747 0.372 223.347 0.684C223.947 0.996 224.397 1.44 224.697 2.016C224.997 2.592 225.147 3.27 225.147 4.05C225.147 4.854 224.967 5.568 224.607 6.192C224.247 6.804 223.719 7.266 223.023 7.578L225.579 12.564H223.023L220.755 7.974H216.921V12.564H214.581ZM216.921 6.012H220.899C221.499 6.012 221.961 5.838 222.285 5.49C222.609 5.142 222.771 4.662 222.771 4.05C222.771 3.654 222.699 3.324 222.555 3.06C222.411 2.784 222.201 2.574 221.925 2.43C221.649 2.286 221.307 2.214 220.899 2.214H216.921V6.012Z" fill="black"/>
<path d="M198.741 12.564L203.547 0.216H206.499L211.323 12.564H208.785L207.795 9.936H202.143L201.153 12.564H198.741ZM202.881 7.956H207.039L205.797 4.608C205.749 4.488 205.689 4.338 205.617 4.158C205.557 3.966 205.491 3.762 205.419 3.546C205.347 3.318 205.275 3.09 205.203 2.862C205.131 2.634 205.065 2.43 205.005 2.25H204.915C204.843 2.49 204.753 2.766 204.645 3.078C204.549 3.39 204.453 3.684 204.357 3.96C204.261 4.236 204.183 4.452 204.123 4.608L202.881 7.956Z" fill="black"/>
<path d="M190.683 12.78C189.423 12.78 188.343 12.558 187.443 12.114C186.555 11.67 185.871 10.98 185.391 10.044C184.923 9.096 184.689 7.878 184.689 6.39C184.689 4.218 185.217 2.61 186.273 1.566C187.329 0.522 188.799 0 190.683 0C191.703 0 192.621 0.174 193.437 0.522C194.265 0.869999 194.919 1.398 195.399 2.106C195.891 2.802 196.137 3.69 196.137 4.77H193.743C193.743 4.17 193.611 3.666 193.347 3.258C193.095 2.838 192.741 2.52 192.285 2.304C191.829 2.088 191.307 1.98 190.719 1.98C189.903 1.98 189.225 2.142 188.685 2.466C188.145 2.778 187.743 3.246 187.479 3.87C187.227 4.494 187.101 5.268 187.101 6.192V6.588C187.101 7.524 187.227 8.304 187.479 8.928C187.743 9.552 188.139 10.02 188.667 10.332C189.207 10.644 189.891 10.8 190.719 10.8C191.343 10.8 191.889 10.698 192.357 10.494C192.825 10.278 193.185 9.966 193.437 9.558C193.701 9.138 193.833 8.628 193.833 8.028H196.137C196.137 9.108 195.897 10.002 195.417 10.71C194.937 11.406 194.283 11.928 193.455 12.276C192.639 12.612 191.715 12.78 190.683 12.78Z" fill="black"/>
</svg>
