<svg width="48" height="48" viewBox="0 0 48 48" fill="none" xmlns="http://www.w3.org/2000/svg">
<g clip-path="url(#clip0_43_3110)">
<path d="M24 48.001C37.2548 48.001 48 37.2558 48 24.001C48 10.7462 37.2548 0.000976562 24 0.000976562C10.7452 0.000976562 0 10.7462 0 24.001C0 37.2558 10.7452 48.001 24 48.001Z" fill="white"/>
<path d="M34.0405 33.5528L26.1781 22.1384L25.2853 20.8424L19.6597 12.6728L19.1893 11.9912H12.2773L13.9573 14.4392L21.4357 25.2968L22.3285 26.5832L28.3381 35.3096L28.8085 35.9816H35.7205L34.0405 33.5336V33.5528ZM29.6341 34.436L23.3941 25.3736L22.5013 24.0872L15.2629 13.5656H18.3733L24.2293 22.0712L25.1221 23.3576L32.7445 34.436H29.6341Z" fill="black"/>
<path d="M22.5088 24.0869L23.4016 25.3733L22.3456 26.6021L14.2624 36.0005H12.2656L21.4528 25.3061L22.5088 24.0869Z" fill="black"/>
<path d="M34.8941 12.001L26.1773 22.1386L25.1309 23.3578L24.2381 22.0714L25.2941 20.8426L31.1981 13.9786L32.8973 12.001H34.8941Z" fill="black"/>
</g>
<defs>
<clipPath id="clip0_43_3110">
<rect width="48" height="48" fill="white" transform="translate(0 0.000976562)"/>
</clipPath>
</defs>
</svg>
